<?xml version="1.0" encoding="utf-8"?>
<svg xmlns="http://www.w3.org/2000/svg" xmlns:xlink="http://www.w3.org/1999/xlink" width="600" height="400" viewBox="0 0 2400 1600">
<defs>
  <clipPath id="clip280">
    <rect x="0" y="0" width="2400" height="1600"/>
  </clipPath>
</defs>
<path clip-path="url(#clip280)" d="M0 1600 L2400 1600 L2400 0 L0 0  Z" fill="#ffffff" fill-rule="evenodd" fill-opacity="1"/>
<defs>
  <clipPath id="clip281">
    <rect x="480" y="0" width="1681" height="1600"/>
  </clipPath>
</defs>
<path clip-path="url(#clip280)" d="M155.927 1486.45 L2352.76 1486.45 L2352.76 47.2441 L155.927 47.2441  Z" fill="#ffffff" fill-rule="evenodd" fill-opacity="1"/>
<defs>
  <clipPath id="clip282">
    <rect x="155" y="47" width="2198" height="1440"/>
  </clipPath>
</defs>
<polyline clip-path="url(#clip282)" style="stroke:#000000; stroke-linecap:round; stroke-linejoin:round; stroke-width:2; stroke-opacity:0.1; fill:none" points="205.691,1486.45 205.691,47.2441 "/>
<polyline clip-path="url(#clip282)" style="stroke:#000000; stroke-linecap:round; stroke-linejoin:round; stroke-width:2; stroke-opacity:0.1; fill:none" points="826.194,1486.45 826.194,47.2441 "/>
<polyline clip-path="url(#clip282)" style="stroke:#000000; stroke-linecap:round; stroke-linejoin:round; stroke-width:2; stroke-opacity:0.1; fill:none" points="1446.7,1486.45 1446.7,47.2441 "/>
<polyline clip-path="url(#clip282)" style="stroke:#000000; stroke-linecap:round; stroke-linejoin:round; stroke-width:2; stroke-opacity:0.1; fill:none" points="2067.2,1486.45 2067.2,47.2441 "/>
<polyline clip-path="url(#clip282)" style="stroke:#000000; stroke-linecap:round; stroke-linejoin:round; stroke-width:2; stroke-opacity:0.1; fill:none" points="155.927,1226.06 2352.76,1226.06 "/>
<polyline clip-path="url(#clip282)" style="stroke:#000000; stroke-linecap:round; stroke-linejoin:round; stroke-width:2; stroke-opacity:0.1; fill:none" points="155.927,917.218 2352.76,917.218 "/>
<polyline clip-path="url(#clip282)" style="stroke:#000000; stroke-linecap:round; stroke-linejoin:round; stroke-width:2; stroke-opacity:0.1; fill:none" points="155.927,608.375 2352.76,608.375 "/>
<polyline clip-path="url(#clip282)" style="stroke:#000000; stroke-linecap:round; stroke-linejoin:round; stroke-width:2; stroke-opacity:0.1; fill:none" points="155.927,299.533 2352.76,299.533 "/>
<polyline clip-path="url(#clip280)" style="stroke:#000000; stroke-linecap:round; stroke-linejoin:round; stroke-width:4; stroke-opacity:1; fill:none" points="155.927,1486.45 2352.76,1486.45 "/>
<polyline clip-path="url(#clip280)" style="stroke:#000000; stroke-linecap:round; stroke-linejoin:round; stroke-width:4; stroke-opacity:1; fill:none" points="205.691,1486.45 205.691,1467.55 "/>
<polyline clip-path="url(#clip280)" style="stroke:#000000; stroke-linecap:round; stroke-linejoin:round; stroke-width:4; stroke-opacity:1; fill:none" points="826.194,1486.45 826.194,1467.55 "/>
<polyline clip-path="url(#clip280)" style="stroke:#000000; stroke-linecap:round; stroke-linejoin:round; stroke-width:4; stroke-opacity:1; fill:none" points="1446.7,1486.45 1446.7,1467.55 "/>
<polyline clip-path="url(#clip280)" style="stroke:#000000; stroke-linecap:round; stroke-linejoin:round; stroke-width:4; stroke-opacity:1; fill:none" points="2067.2,1486.45 2067.2,1467.55 "/>
<path clip-path="url(#clip280)" d="M205.691 1517.37 Q202.08 1517.37 200.251 1520.93 Q198.446 1524.47 198.446 1531.6 Q198.446 1538.71 200.251 1542.27 Q202.08 1545.82 205.691 1545.82 Q209.326 1545.82 211.131 1542.27 Q212.96 1538.71 212.96 1531.6 Q212.96 1524.47 211.131 1520.93 Q209.326 1517.37 205.691 1517.37 M205.691 1513.66 Q211.501 1513.66 214.557 1518.27 Q217.636 1522.85 217.636 1531.6 Q217.636 1540.33 214.557 1544.94 Q211.501 1549.52 205.691 1549.52 Q199.881 1549.52 196.802 1544.94 Q193.747 1540.33 193.747 1531.6 Q193.747 1522.85 196.802 1518.27 Q199.881 1513.66 205.691 1513.66 Z" fill="#000000" fill-rule="nonzero" fill-opacity="1" /><path clip-path="url(#clip280)" d="M800.894 1514.29 L819.25 1514.29 L819.25 1518.22 L805.176 1518.22 L805.176 1526.7 Q806.194 1526.35 807.213 1526.19 Q808.231 1526 809.25 1526 Q815.037 1526 818.417 1529.17 Q821.796 1532.34 821.796 1537.76 Q821.796 1543.34 818.324 1546.44 Q814.852 1549.52 808.532 1549.52 Q806.356 1549.52 804.088 1549.15 Q801.843 1548.78 799.435 1548.04 L799.435 1543.34 Q801.519 1544.47 803.741 1545.03 Q805.963 1545.58 808.44 1545.58 Q812.444 1545.58 814.782 1543.48 Q817.12 1541.37 817.12 1537.76 Q817.12 1534.15 814.782 1532.04 Q812.444 1529.94 808.44 1529.94 Q806.565 1529.94 804.69 1530.35 Q802.838 1530.77 800.894 1531.65 L800.894 1514.29 Z" fill="#000000" fill-rule="nonzero" fill-opacity="1" /><path clip-path="url(#clip280)" d="M841.009 1517.37 Q837.398 1517.37 835.569 1520.93 Q833.764 1524.47 833.764 1531.6 Q833.764 1538.71 835.569 1542.27 Q837.398 1545.82 841.009 1545.82 Q844.643 1545.82 846.449 1542.27 Q848.278 1538.71 848.278 1531.6 Q848.278 1524.47 846.449 1520.93 Q844.643 1517.37 841.009 1517.37 M841.009 1513.66 Q846.819 1513.66 849.875 1518.27 Q852.953 1522.85 852.953 1531.6 Q852.953 1540.33 849.875 1544.94 Q846.819 1549.52 841.009 1549.52 Q835.199 1549.52 832.12 1544.94 Q829.065 1540.33 829.065 1531.6 Q829.065 1522.85 832.12 1518.27 Q835.199 1513.66 841.009 1513.66 Z" fill="#000000" fill-rule="nonzero" fill-opacity="1" /><path clip-path="url(#clip280)" d="M1406.3 1544.91 L1413.94 1544.91 L1413.94 1518.55 L1405.63 1520.21 L1405.63 1515.95 L1413.9 1514.29 L1418.57 1514.29 L1418.57 1544.91 L1426.21 1544.91 L1426.21 1548.85 L1406.3 1548.85 L1406.3 1544.91 Z" fill="#000000" fill-rule="nonzero" fill-opacity="1" /><path clip-path="url(#clip280)" d="M1445.66 1517.37 Q1442.04 1517.37 1440.22 1520.93 Q1438.41 1524.47 1438.41 1531.6 Q1438.41 1538.71 1440.22 1542.27 Q1442.04 1545.82 1445.66 1545.82 Q1449.29 1545.82 1451.1 1542.27 Q1452.92 1538.71 1452.92 1531.6 Q1452.92 1524.47 1451.1 1520.93 Q1449.29 1517.37 1445.66 1517.37 M1445.66 1513.66 Q1451.47 1513.66 1454.52 1518.27 Q1457.6 1522.85 1457.6 1531.6 Q1457.6 1540.33 1454.52 1544.94 Q1451.47 1549.52 1445.66 1549.52 Q1439.85 1549.52 1436.77 1544.94 Q1433.71 1540.33 1433.71 1531.6 Q1433.71 1522.85 1436.77 1518.27 Q1439.85 1513.66 1445.66 1513.66 Z" fill="#000000" fill-rule="nonzero" fill-opacity="1" /><path clip-path="url(#clip280)" d="M1475.82 1517.37 Q1472.21 1517.37 1470.38 1520.93 Q1468.57 1524.47 1468.57 1531.6 Q1468.57 1538.71 1470.38 1542.27 Q1472.21 1545.82 1475.82 1545.82 Q1479.45 1545.82 1481.26 1542.27 Q1483.09 1538.71 1483.09 1531.6 Q1483.09 1524.47 1481.26 1520.93 Q1479.45 1517.37 1475.82 1517.37 M1475.82 1513.66 Q1481.63 1513.66 1484.68 1518.27 Q1487.76 1522.85 1487.76 1531.6 Q1487.76 1540.33 1484.68 1544.94 Q1481.63 1549.52 1475.82 1549.52 Q1470.01 1549.52 1466.93 1544.94 Q1463.87 1540.33 1463.87 1531.6 Q1463.87 1522.85 1466.93 1518.27 Q1470.01 1513.66 1475.82 1513.66 Z" fill="#000000" fill-rule="nonzero" fill-opacity="1" /><path clip-path="url(#clip280)" d="M2026.81 1544.91 L2034.45 1544.91 L2034.45 1518.55 L2026.14 1520.21 L2026.14 1515.95 L2034.4 1514.29 L2039.08 1514.29 L2039.08 1544.91 L2046.71 1544.91 L2046.71 1548.85 L2026.81 1548.85 L2026.81 1544.91 Z" fill="#000000" fill-rule="nonzero" fill-opacity="1" /><path clip-path="url(#clip280)" d="M2056.21 1514.29 L2074.56 1514.29 L2074.56 1518.22 L2060.49 1518.22 L2060.49 1526.7 Q2061.51 1526.35 2062.52 1526.19 Q2063.54 1526 2064.56 1526 Q2070.35 1526 2073.73 1529.17 Q2077.11 1532.34 2077.11 1537.76 Q2077.11 1543.34 2073.64 1546.44 Q2070.16 1549.52 2063.84 1549.52 Q2061.67 1549.52 2059.4 1549.15 Q2057.15 1548.78 2054.75 1548.04 L2054.75 1543.34 Q2056.83 1544.47 2059.05 1545.03 Q2061.27 1545.58 2063.75 1545.58 Q2067.76 1545.58 2070.09 1543.48 Q2072.43 1541.37 2072.43 1537.76 Q2072.43 1534.15 2070.09 1532.04 Q2067.76 1529.94 2063.75 1529.94 Q2061.88 1529.94 2060 1530.35 Q2058.15 1530.77 2056.21 1531.65 L2056.21 1514.29 Z" fill="#000000" fill-rule="nonzero" fill-opacity="1" /><path clip-path="url(#clip280)" d="M2096.32 1517.37 Q2092.71 1517.37 2090.88 1520.93 Q2089.08 1524.47 2089.08 1531.6 Q2089.08 1538.71 2090.88 1542.27 Q2092.71 1545.82 2096.32 1545.82 Q2099.95 1545.82 2101.76 1542.27 Q2103.59 1538.71 2103.59 1531.6 Q2103.59 1524.47 2101.76 1520.93 Q2099.95 1517.37 2096.32 1517.37 M2096.32 1513.66 Q2102.13 1513.66 2105.19 1518.27 Q2108.27 1522.85 2108.27 1531.6 Q2108.27 1540.33 2105.19 1544.94 Q2102.13 1549.52 2096.32 1549.52 Q2090.51 1549.52 2087.43 1544.94 Q2084.38 1540.33 2084.38 1531.6 Q2084.38 1522.85 2087.43 1518.27 Q2090.51 1513.66 2096.32 1513.66 Z" fill="#000000" fill-rule="nonzero" fill-opacity="1" /><polyline clip-path="url(#clip280)" style="stroke:#000000; stroke-linecap:round; stroke-linejoin:round; stroke-width:4; stroke-opacity:1; fill:none" points="155.927,1486.45 155.927,47.2441 "/>
<polyline clip-path="url(#clip280)" style="stroke:#000000; stroke-linecap:round; stroke-linejoin:round; stroke-width:4; stroke-opacity:1; fill:none" points="155.927,1226.06 174.825,1226.06 "/>
<polyline clip-path="url(#clip280)" style="stroke:#000000; stroke-linecap:round; stroke-linejoin:round; stroke-width:4; stroke-opacity:1; fill:none" points="155.927,917.218 174.825,917.218 "/>
<polyline clip-path="url(#clip280)" style="stroke:#000000; stroke-linecap:round; stroke-linejoin:round; stroke-width:4; stroke-opacity:1; fill:none" points="155.927,608.375 174.825,608.375 "/>
<polyline clip-path="url(#clip280)" style="stroke:#000000; stroke-linecap:round; stroke-linejoin:round; stroke-width:4; stroke-opacity:1; fill:none" points="155.927,299.533 174.825,299.533 "/>
<path clip-path="url(#clip280)" d="M52.7977 1208.78 L71.1541 1208.78 L71.1541 1212.72 L57.0801 1212.72 L57.0801 1221.19 Q58.0986 1220.84 59.1171 1220.68 Q60.1356 1220.49 61.1541 1220.49 Q66.9411 1220.49 70.3207 1223.67 Q73.7003 1226.84 73.7003 1232.25 Q73.7003 1237.83 70.2281 1240.93 Q66.7559 1244.01 60.4365 1244.01 Q58.2606 1244.01 55.9921 1243.64 Q53.7467 1243.27 51.3393 1242.53 L51.3393 1237.83 Q53.4227 1238.97 55.6449 1239.52 Q57.8671 1240.08 60.3439 1240.08 Q64.3485 1240.08 66.6865 1237.97 Q69.0244 1235.86 69.0244 1232.25 Q69.0244 1228.64 66.6865 1226.54 Q64.3485 1224.43 60.3439 1224.43 Q58.4689 1224.43 56.5939 1224.85 Q54.7421 1225.26 52.7977 1226.14 L52.7977 1208.78 Z" fill="#000000" fill-rule="nonzero" fill-opacity="1" /><path clip-path="url(#clip280)" d="M82.9133 1237.46 L87.7975 1237.46 L87.7975 1243.34 L82.9133 1243.34 L82.9133 1237.46 Z" fill="#000000" fill-rule="nonzero" fill-opacity="1" /><path clip-path="url(#clip280)" d="M107.983 1211.86 Q104.371 1211.86 102.543 1215.42 Q100.737 1218.97 100.737 1226.1 Q100.737 1233.2 102.543 1236.77 Q104.371 1240.31 107.983 1240.31 Q111.617 1240.31 113.422 1236.77 Q115.251 1233.2 115.251 1226.1 Q115.251 1218.97 113.422 1215.42 Q111.617 1211.86 107.983 1211.86 M107.983 1208.16 Q113.793 1208.16 116.848 1212.76 Q119.927 1217.35 119.927 1226.1 Q119.927 1234.82 116.848 1239.43 Q113.793 1244.01 107.983 1244.01 Q102.172 1244.01 99.0937 1239.43 Q96.0382 1234.82 96.0382 1226.1 Q96.0382 1217.35 99.0937 1212.76 Q102.172 1208.16 107.983 1208.16 Z" fill="#000000" fill-rule="nonzero" fill-opacity="1" /><path clip-path="url(#clip280)" d="M53.793 899.938 L72.1494 899.938 L72.1494 903.873 L58.0754 903.873 L58.0754 912.346 Q59.0939 911.998 60.1124 911.836 Q61.131 911.651 62.1495 911.651 Q67.9365 911.651 71.3161 914.822 Q74.6957 917.994 74.6957 923.41 Q74.6957 928.989 71.2235 932.091 Q67.7513 935.17 61.4319 935.17 Q59.256 935.17 56.9875 934.799 Q54.7421 934.429 52.3347 933.688 L52.3347 928.989 Q54.418 930.123 56.6402 930.679 Q58.8625 931.234 61.3393 931.234 Q65.3439 931.234 67.6819 929.128 Q70.0198 927.021 70.0198 923.41 Q70.0198 919.799 67.6819 917.693 Q65.3439 915.586 61.3393 915.586 Q59.4643 915.586 57.5893 916.003 Q55.7375 916.42 53.793 917.299 L53.793 899.938 Z" fill="#000000" fill-rule="nonzero" fill-opacity="1" /><path clip-path="url(#clip280)" d="M83.9086 928.619 L88.7928 928.619 L88.7928 934.498 L83.9086 934.498 L83.9086 928.619 Z" fill="#000000" fill-rule="nonzero" fill-opacity="1" /><path clip-path="url(#clip280)" d="M99.0243 899.938 L117.381 899.938 L117.381 903.873 L103.307 903.873 L103.307 912.346 Q104.325 911.998 105.344 911.836 Q106.362 911.651 107.381 911.651 Q113.168 911.651 116.547 914.822 Q119.927 917.994 119.927 923.41 Q119.927 928.989 116.455 932.091 Q112.983 935.17 106.663 935.17 Q104.487 935.17 102.219 934.799 Q99.9733 934.429 97.566 933.688 L97.566 928.989 Q99.6493 930.123 101.871 930.679 Q104.094 931.234 106.571 931.234 Q110.575 931.234 112.913 929.128 Q115.251 927.021 115.251 923.41 Q115.251 919.799 112.913 917.693 Q110.575 915.586 106.571 915.586 Q104.696 915.586 102.821 916.003 Q100.969 916.42 99.0243 917.299 L99.0243 899.938 Z" fill="#000000" fill-rule="nonzero" fill-opacity="1" /><path clip-path="url(#clip280)" d="M63.33 606.512 Q60.1819 606.512 58.33 608.665 Q56.5014 610.818 56.5014 614.568 Q56.5014 618.294 58.33 620.47 Q60.1819 622.623 63.33 622.623 Q66.4782 622.623 68.3068 620.47 Q70.1587 618.294 70.1587 614.568 Q70.1587 610.818 68.3068 608.665 Q66.4782 606.512 63.33 606.512 M72.6124 591.859 L72.6124 596.119 Q70.8531 595.285 69.0476 594.845 Q67.2652 594.406 65.5059 594.406 Q60.8763 594.406 58.4226 597.531 Q55.9921 600.656 55.6449 606.975 Q57.0106 604.961 59.0708 603.896 Q61.131 602.808 63.6078 602.808 Q68.8161 602.808 71.8253 605.98 Q74.8577 609.128 74.8577 614.568 Q74.8577 619.892 71.7096 623.109 Q68.5615 626.327 63.33 626.327 Q57.3347 626.327 54.1634 621.743 Q50.9921 617.137 50.9921 608.41 Q50.9921 600.216 54.881 595.355 Q58.7699 590.47 65.3208 590.47 Q67.08 590.47 68.8624 590.818 Q70.6679 591.165 72.6124 591.859 Z" fill="#000000" fill-rule="nonzero" fill-opacity="1" /><path clip-path="url(#clip280)" d="M82.9133 619.776 L87.7975 619.776 L87.7975 625.655 L82.9133 625.655 L82.9133 619.776 Z" fill="#000000" fill-rule="nonzero" fill-opacity="1" /><path clip-path="url(#clip280)" d="M107.983 594.174 Q104.371 594.174 102.543 597.739 Q100.737 601.281 100.737 608.41 Q100.737 615.517 102.543 619.081 Q104.371 622.623 107.983 622.623 Q111.617 622.623 113.422 619.081 Q115.251 615.517 115.251 608.41 Q115.251 601.281 113.422 597.739 Q111.617 594.174 107.983 594.174 M107.983 590.47 Q113.793 590.47 116.848 595.077 Q119.927 599.66 119.927 608.41 Q119.927 617.137 116.848 621.743 Q113.793 626.327 107.983 626.327 Q102.172 626.327 99.0937 621.743 Q96.0382 617.137 96.0382 608.41 Q96.0382 599.66 99.0937 595.077 Q102.172 590.47 107.983 590.47 Z" fill="#000000" fill-rule="nonzero" fill-opacity="1" /><path clip-path="url(#clip280)" d="M64.3254 297.669 Q61.1773 297.669 59.3254 299.822 Q57.4967 301.975 57.4967 305.725 Q57.4967 309.452 59.3254 311.627 Q61.1773 313.78 64.3254 313.78 Q67.4735 313.78 69.3022 311.627 Q71.1541 309.452 71.1541 305.725 Q71.1541 301.975 69.3022 299.822 Q67.4735 297.669 64.3254 297.669 M73.6077 283.016 L73.6077 287.276 Q71.8485 286.442 70.0429 286.003 Q68.2606 285.563 66.5013 285.563 Q61.8717 285.563 59.418 288.688 Q56.9875 291.813 56.6402 298.132 Q58.006 296.118 60.0662 295.053 Q62.1263 293.965 64.6032 293.965 Q69.8115 293.965 72.8207 297.137 Q75.8531 300.285 75.8531 305.725 Q75.8531 311.049 72.705 314.266 Q69.5568 317.484 64.3254 317.484 Q58.33 317.484 55.1588 312.901 Q51.9875 308.294 51.9875 299.567 Q51.9875 291.373 55.8764 286.512 Q59.7652 281.628 66.3161 281.628 Q68.0754 281.628 69.8578 281.975 Q71.6633 282.322 73.6077 283.016 Z" fill="#000000" fill-rule="nonzero" fill-opacity="1" /><path clip-path="url(#clip280)" d="M83.9086 310.933 L88.7928 310.933 L88.7928 316.813 L83.9086 316.813 L83.9086 310.933 Z" fill="#000000" fill-rule="nonzero" fill-opacity="1" /><path clip-path="url(#clip280)" d="M99.0243 282.253 L117.381 282.253 L117.381 286.188 L103.307 286.188 L103.307 294.66 Q104.325 294.313 105.344 294.151 Q106.362 293.965 107.381 293.965 Q113.168 293.965 116.547 297.137 Q119.927 300.308 119.927 305.725 Q119.927 311.303 116.455 314.405 Q112.983 317.484 106.663 317.484 Q104.487 317.484 102.219 317.114 Q99.9733 316.743 97.566 316.002 L97.566 311.303 Q99.6493 312.438 101.871 312.993 Q104.094 313.549 106.571 313.549 Q110.575 313.549 112.913 311.442 Q115.251 309.336 115.251 305.725 Q115.251 302.114 112.913 300.007 Q110.575 297.901 106.571 297.901 Q104.696 297.901 102.821 298.317 Q100.969 298.734 99.0243 299.614 L99.0243 282.253 Z" fill="#000000" fill-rule="nonzero" fill-opacity="1" /><polyline clip-path="url(#clip282)" style="stroke:#000000; stroke-linecap:round; stroke-linejoin:round; stroke-width:4; stroke-opacity:1; fill:none" points="218.101,1399.94 230.511,1367.71 242.921,1298.45 255.332,1312.65 267.742,1352.2 280.152,1284.57 292.562,1227.78 304.972,1227.78 317.382,1280.01 329.792,1362.49 342.202,1445.72 354.612,1367.71 367.022,1383.61 379.432,1327.19 391.842,1257.71 404.252,1284.57 416.662,1332.11 429.072,1223.62 441.482,1142.18 453.893,1142.18 466.303,1187.4 478.713,1293.79 491.123,1389.01 503.533,1262.11 515.943,1240.43 528.353,1219.49 540.763,1113.78 553.173,1168.15 565.583,1134.96 577.993,1113.78 590.403,1044.89 602.813,1044.89 615.223,1093.3 627.633,1171.95 640.043,1236.19 652.453,1156.89 664.864,1138.56 677.274,1106.87 689.684,1063.8 702.094,1103.45 714.504,1096.66 726.914,988.564 739.324,955.466 751.734,924.051 764.144,1014.61 776.554,1070.24 788.964,1134.96 801.374,1060.61 813.784,1054.27 826.194,1054.27 838.604,939.559 851.014,942.182 863.425,958.157 875.835,921.504 888.245,870.306 900.655,851.866 913.065,936.947 925.475,1008.72 937.885,1106.87 950.295,1038.71 962.705,1029.56 975.115,1080.01 987.525,942.182 999.935,963.576 1012.35,944.816 1024.76,870.306 1037.17,787.24 1049.58,805.928 1061.99,882.116 1074.4,958.157 1086.81,1032.6 1099.22,958.157 1111.63,924.051 1124.04,947.461 1136.45,863.326 1148.86,858.716 1161.27,856.424 1173.68,761.208 1186.09,671.902 1198.5,701.445 1210.91,767.119 1223.32,847.341 1235.73,936.947 1248.14,838.389 1260.55,825.199 1272.96,840.614 1285.37,757.298 1297.78,765.142 1310.19,755.353 1322.6,655.162 1335.01,593.892 1347.42,605.974 1359.83,687.366 1372.24,779.113 1384.65,854.141 1397.06,779.113 1409.47,761.208 1421.88,789.289 1434.29,685.629 1446.7,699.668 1459.11,687.366 1471.52,580.576 1483.93,520.641 1496.34,517.99 1508.75,607.501 1521.16,701.445 1533.57,781.135 1545.98,721.343 1558.39,714.033 1570.8,755.353 1583.21,675.305 1595.62,699.668 1608.03,673.601 1620.44,561.835 1632.85,487.035 1645.26,469.669 1657.67,607.501 1670.08,680.445 1682.49,771.091 1694.9,719.508 1707.31,678.727 1719.72,710.41 1732.13,604.451 1744.54,619.856 1756.95,583.511 1769.36,511.412 1781.77,419.194 1794.18,406.918 1806.59,523.303 1819,602.932 1831.41,675.305 1843.82,605.974 1856.23,587.939 1868.64,627.704 1881.05,584.983 1893.46,525.977 1905.87,511.412 1918.28,434.023 1930.69,340.955 1943.1,357.051 1955.51,466.01 1967.92,525.977 1980.33,629.286 1992.74,566.11 "/>
<polyline clip-path="url(#clip282)" style="stroke:#0000ff; stroke-linecap:round; stroke-linejoin:round; stroke-width:4; stroke-opacity:1; fill:none" points="2005.15,531.089 2017.56,557.002 2029.97,487.827 2042.38,475.045 2054.79,469.585 2067.2,396.736 2079.61,313.095 2092.02,314.888 2104.43,419.761 2116.84,481.791 2129.25,566.163 2141.66,495.219 2154.07,461.627 2166.48,487.54 2178.89,418.365 2191.3,405.583 2203.71,400.123 2216.12,327.275 2228.53,243.633 2240.94,245.426 2253.35,350.299 2265.76,412.329 2278.17,496.701 2290.58,425.757 "/>
<path clip-path="url(#clip282)" d="M2005.15 578.376 L2017.56 613.546 L2029.97 553.286 L2042.38 548.406 L2054.79 550.118 L2067.2 483.882 L2079.61 406.413 L2092.02 414.03 L2104.43 524.451 L2116.84 591.769 L2129.25 680.945 L2141.66 613.12 L2154.07 588.154 L2166.48 618.44 L2178.89 553.989 L2191.3 545.8 L2203.71 544.81 L2216.12 476.315 L2228.53 396.923 L2240.94 402.876 L2253.35 511.836 L2265.76 577.866 L2278.17 665.967 L2290.58 597.546 L2290.58 253.968 L2278.17 327.435 L2265.76 246.791 L2253.35 188.763 L2240.94 87.9763 L2228.53 90.3437 L2216.12 178.234 L2203.71 255.437 L2191.3 265.366 L2178.89 282.74 L2166.48 356.64 L2154.07 335.1 L2141.66 377.318 L2129.25 451.38 L2116.84 371.812 L2104.43 315.071 L2092.02 215.746 L2079.61 219.778 L2067.2 309.591 L2054.79 389.052 L2042.38 401.683 L2029.97 422.367 L2017.56 500.457 L2005.15 483.801  Z" fill="#4682b4" fill-rule="evenodd" fill-opacity="0.5"/>
<polyline clip-path="url(#clip282)" style="stroke:#4682b4; stroke-linecap:round; stroke-linejoin:round; stroke-width:4; stroke-opacity:1; fill:none" points="2005.15,578.376 2017.56,613.546 2029.97,553.286 2042.38,548.406 2054.79,550.118 2067.2,483.882 2079.61,406.413 2092.02,414.03 2104.43,524.451 2116.84,591.769 2129.25,680.945 2141.66,613.12 2154.07,588.154 2166.48,618.44 2178.89,553.989 2191.3,545.8 2203.71,544.81 2216.12,476.315 2228.53,396.923 2240.94,402.876 2253.35,511.836 2265.76,577.866 2278.17,665.967 2290.58,597.546 "/>
<path clip-path="url(#clip282)" d="M2005.15 562.009 L2017.56 593.974 L2029.97 530.629 L2042.38 523.013 L2054.79 522.243 L2067.2 453.718 L2079.61 374.112 L2092.02 379.713 L2104.43 488.215 L2116.84 553.702 L2129.25 641.215 L2141.66 572.31 L2154.07 544.359 L2166.48 573.131 L2178.89 507.045 L2191.3 497.266 L2203.71 494.729 L2216.12 424.727 L2228.53 343.864 L2240.94 348.377 L2253.35 455.923 L2265.76 520.568 L2278.17 607.378 L2290.58 538.084 L2290.58 313.43 L2278.17 386.024 L2265.76 304.09 L2253.35 244.676 L2240.94 142.475 L2228.53 143.403 L2216.12 229.822 L2203.71 305.518 L2191.3 313.9 L2178.89 329.685 L2166.48 401.949 L2154.07 378.895 L2141.66 418.127 L2129.25 491.111 L2116.84 409.88 L2104.43 351.308 L2092.02 250.062 L2079.61 252.078 L2067.2 339.755 L2054.79 416.928 L2042.38 427.076 L2029.97 445.025 L2017.56 520.029 L2005.15 500.169  Z" fill="#4682b4" fill-rule="evenodd" fill-opacity="0.5"/>
<polyline clip-path="url(#clip282)" style="stroke:#4682b4; stroke-linecap:round; stroke-linejoin:round; stroke-width:4; stroke-opacity:1; fill:none" points="2005.15,562.009 2017.56,593.974 2029.97,530.629 2042.38,523.013 2054.79,522.243 2067.2,453.718 2079.61,374.112 2092.02,379.713 2104.43,488.215 2116.84,553.702 2129.25,641.215 2141.66,572.31 2154.07,544.359 2166.48,573.131 2178.89,507.045 2191.3,497.266 2203.71,494.729 2216.12,424.727 2228.53,343.864 2240.94,348.377 2253.35,455.923 2265.76,520.568 2278.17,607.378 2290.58,538.084 "/>
<path clip-path="url(#clip280)" d="M229.155 250.738 L501.268 250.738 L501.268 95.2176 L229.155 95.2176  Z" fill="#ffffff" fill-rule="evenodd" fill-opacity="1"/>
<polyline clip-path="url(#clip280)" style="stroke:#000000; stroke-linecap:round; stroke-linejoin:round; stroke-width:4; stroke-opacity:1; fill:none" points="229.155,250.738 501.268,250.738 501.268,95.2176 229.155,95.2176 229.155,250.738 "/>
<polyline clip-path="url(#clip280)" style="stroke:#000000; stroke-linecap:round; stroke-linejoin:round; stroke-width:4; stroke-opacity:1; fill:none" points="253.564,147.058 400.019,147.058 "/>
<path clip-path="url(#clip280)" d="M438.271 166.745 Q436.465 171.375 434.752 172.787 Q433.039 174.199 430.169 174.199 L426.766 174.199 L426.766 170.634 L429.266 170.634 Q431.025 170.634 431.998 169.8 Q432.97 168.967 434.15 165.865 L434.914 163.921 L424.428 138.412 L428.942 138.412 L437.044 158.689 L445.146 138.412 L449.66 138.412 L438.271 166.745 Z" fill="#000000" fill-rule="nonzero" fill-opacity="1" /><path clip-path="url(#clip280)" d="M456.951 160.402 L464.59 160.402 L464.59 134.037 L456.28 135.703 L456.28 131.444 L464.544 129.778 L469.22 129.778 L469.22 160.402 L476.859 160.402 L476.859 164.338 L456.951 164.338 L456.951 160.402 Z" fill="#000000" fill-rule="nonzero" fill-opacity="1" /><polyline clip-path="url(#clip280)" style="stroke:#0000ff; stroke-linecap:round; stroke-linejoin:round; stroke-width:4; stroke-opacity:1; fill:none" points="253.564,198.898 400.019,198.898 "/>
<path clip-path="url(#clip280)" d="M438.271 218.585 Q436.465 223.215 434.752 224.627 Q433.039 226.039 430.169 226.039 L426.766 226.039 L426.766 222.474 L429.266 222.474 Q431.025 222.474 431.998 221.64 Q432.97 220.807 434.15 217.705 L434.914 215.761 L424.428 190.252 L428.942 190.252 L437.044 210.529 L445.146 190.252 L449.66 190.252 L438.271 218.585 Z" fill="#000000" fill-rule="nonzero" fill-opacity="1" /><path clip-path="url(#clip280)" d="M460.169 212.242 L476.488 212.242 L476.488 216.178 L454.544 216.178 L454.544 212.242 Q457.206 209.488 461.789 204.858 Q466.396 200.205 467.576 198.863 Q469.822 196.34 470.701 194.604 Q471.604 192.844 471.604 191.155 Q471.604 188.4 469.659 186.664 Q467.738 184.928 464.636 184.928 Q462.437 184.928 459.984 185.692 Q457.553 186.455 454.775 188.006 L454.775 183.284 Q457.599 182.15 460.053 181.571 Q462.507 180.993 464.544 180.993 Q469.914 180.993 473.109 183.678 Q476.303 186.363 476.303 190.854 Q476.303 192.983 475.493 194.905 Q474.706 196.803 472.599 199.395 Q472.021 200.067 468.919 203.284 Q465.817 206.479 460.169 212.242 Z" fill="#000000" fill-rule="nonzero" fill-opacity="1" /></svg>
