<?xml version="1.0" encoding="utf-8"?>
<svg xmlns="http://www.w3.org/2000/svg" xmlns:xlink="http://www.w3.org/1999/xlink" width="600" height="400" viewBox="0 0 2400 1600">
<defs>
  <clipPath id="clip100">
    <rect x="0" y="0" width="2400" height="1600"/>
  </clipPath>
</defs>
<path clip-path="url(#clip100)" d="M0 1600 L2400 1600 L2400 0 L0 0  Z" fill="#ffffff" fill-rule="evenodd" fill-opacity="1"/>
<defs>
  <clipPath id="clip101">
    <rect x="480" y="0" width="1681" height="1600"/>
  </clipPath>
</defs>
<path clip-path="url(#clip100)" d="M186.089 1486.45 L2352.76 1486.45 L2352.76 47.2441 L186.089 47.2441  Z" fill="#ffffff" fill-rule="evenodd" fill-opacity="1"/>
<defs>
  <clipPath id="clip102">
    <rect x="186" y="47" width="2168" height="1440"/>
  </clipPath>
</defs>
<polyline clip-path="url(#clip102)" style="stroke:#000000; stroke-linecap:round; stroke-linejoin:round; stroke-width:2; stroke-opacity:0.1; fill:none" points="247.41,1486.45 247.41,47.2441 "/>
<polyline clip-path="url(#clip102)" style="stroke:#000000; stroke-linecap:round; stroke-linejoin:round; stroke-width:2; stroke-opacity:0.1; fill:none" points="866.811,1486.45 866.811,47.2441 "/>
<polyline clip-path="url(#clip102)" style="stroke:#000000; stroke-linecap:round; stroke-linejoin:round; stroke-width:2; stroke-opacity:0.1; fill:none" points="1486.21,1486.45 1486.21,47.2441 "/>
<polyline clip-path="url(#clip102)" style="stroke:#000000; stroke-linecap:round; stroke-linejoin:round; stroke-width:2; stroke-opacity:0.1; fill:none" points="2105.61,1486.45 2105.61,47.2441 "/>
<polyline clip-path="url(#clip102)" style="stroke:#000000; stroke-linecap:round; stroke-linejoin:round; stroke-width:2; stroke-opacity:0.1; fill:none" points="186.089,1369.67 2352.76,1369.67 "/>
<polyline clip-path="url(#clip102)" style="stroke:#000000; stroke-linecap:round; stroke-linejoin:round; stroke-width:2; stroke-opacity:0.1; fill:none" points="186.089,1065.29 2352.76,1065.29 "/>
<polyline clip-path="url(#clip102)" style="stroke:#000000; stroke-linecap:round; stroke-linejoin:round; stroke-width:2; stroke-opacity:0.1; fill:none" points="186.089,760.915 2352.76,760.915 "/>
<polyline clip-path="url(#clip102)" style="stroke:#000000; stroke-linecap:round; stroke-linejoin:round; stroke-width:2; stroke-opacity:0.1; fill:none" points="186.089,456.54 2352.76,456.54 "/>
<polyline clip-path="url(#clip102)" style="stroke:#000000; stroke-linecap:round; stroke-linejoin:round; stroke-width:2; stroke-opacity:0.1; fill:none" points="186.089,152.164 2352.76,152.164 "/>
<polyline clip-path="url(#clip100)" style="stroke:#000000; stroke-linecap:round; stroke-linejoin:round; stroke-width:4; stroke-opacity:1; fill:none" points="186.089,1486.45 2352.76,1486.45 "/>
<polyline clip-path="url(#clip100)" style="stroke:#000000; stroke-linecap:round; stroke-linejoin:round; stroke-width:4; stroke-opacity:1; fill:none" points="247.41,1486.45 247.41,1467.55 "/>
<polyline clip-path="url(#clip100)" style="stroke:#000000; stroke-linecap:round; stroke-linejoin:round; stroke-width:4; stroke-opacity:1; fill:none" points="866.811,1486.45 866.811,1467.55 "/>
<polyline clip-path="url(#clip100)" style="stroke:#000000; stroke-linecap:round; stroke-linejoin:round; stroke-width:4; stroke-opacity:1; fill:none" points="1486.21,1486.45 1486.21,1467.55 "/>
<polyline clip-path="url(#clip100)" style="stroke:#000000; stroke-linecap:round; stroke-linejoin:round; stroke-width:4; stroke-opacity:1; fill:none" points="2105.61,1486.45 2105.61,1467.55 "/>
<path clip-path="url(#clip100)" d="M191.935 1544.91 L199.574 1544.91 L199.574 1518.55 L191.264 1520.21 L191.264 1515.95 L199.528 1514.29 L204.204 1514.29 L204.204 1544.91 L211.843 1544.91 L211.843 1548.85 L191.935 1548.85 L191.935 1544.91 Z" fill="#000000" fill-rule="nonzero" fill-opacity="1" /><path clip-path="url(#clip100)" d="M221.426 1548.13 L221.426 1543.87 Q223.185 1544.7 224.991 1545.14 Q226.796 1545.58 228.532 1545.58 Q233.162 1545.58 235.593 1542.48 Q238.046 1539.36 238.393 1533.01 Q237.051 1535.01 234.991 1536.07 Q232.93 1537.13 230.431 1537.13 Q225.245 1537.13 222.213 1534.01 Q219.204 1530.86 219.204 1525.42 Q219.204 1520.1 222.352 1516.88 Q225.5 1513.66 230.731 1513.66 Q236.727 1513.66 239.875 1518.27 Q243.046 1522.85 243.046 1531.6 Q243.046 1539.77 239.157 1544.66 Q235.292 1549.52 228.741 1549.52 Q226.981 1549.52 225.176 1549.17 Q223.37 1548.82 221.426 1548.13 M230.731 1533.48 Q233.88 1533.48 235.708 1531.32 Q237.56 1529.17 237.56 1525.42 Q237.56 1521.7 235.708 1519.54 Q233.88 1517.37 230.731 1517.37 Q227.583 1517.37 225.731 1519.54 Q223.903 1521.7 223.903 1525.42 Q223.903 1529.17 225.731 1531.32 Q227.583 1533.48 230.731 1533.48 Z" fill="#000000" fill-rule="nonzero" fill-opacity="1" /><path clip-path="url(#clip100)" d="M250.268 1514.29 L272.49 1514.29 L272.49 1516.28 L259.944 1548.85 L255.06 1548.85 L266.865 1518.22 L250.268 1518.22 L250.268 1514.29 Z" fill="#000000" fill-rule="nonzero" fill-opacity="1" /><path clip-path="url(#clip100)" d="M291.611 1517.37 Q288 1517.37 286.171 1520.93 Q284.365 1524.47 284.365 1531.6 Q284.365 1538.71 286.171 1542.27 Q288 1545.82 291.611 1545.82 Q295.245 1545.82 297.051 1542.27 Q298.879 1538.71 298.879 1531.6 Q298.879 1524.47 297.051 1520.93 Q295.245 1517.37 291.611 1517.37 M291.611 1513.66 Q297.421 1513.66 300.476 1518.27 Q303.555 1522.85 303.555 1531.6 Q303.555 1540.33 300.476 1544.94 Q297.421 1549.52 291.611 1549.52 Q285.801 1549.52 282.722 1544.94 Q279.666 1540.33 279.666 1531.6 Q279.666 1522.85 282.722 1518.27 Q285.801 1513.66 291.611 1513.66 Z" fill="#000000" fill-rule="nonzero" fill-opacity="1" /><path clip-path="url(#clip100)" d="M811.337 1544.91 L818.976 1544.91 L818.976 1518.55 L810.666 1520.21 L810.666 1515.95 L818.93 1514.29 L823.605 1514.29 L823.605 1544.91 L831.244 1544.91 L831.244 1548.85 L811.337 1548.85 L811.337 1544.91 Z" fill="#000000" fill-rule="nonzero" fill-opacity="1" /><path clip-path="url(#clip100)" d="M840.828 1548.13 L840.828 1543.87 Q842.587 1544.7 844.392 1545.14 Q846.198 1545.58 847.934 1545.58 Q852.564 1545.58 854.994 1542.48 Q857.448 1539.36 857.795 1533.01 Q856.453 1535.01 854.392 1536.07 Q852.332 1537.13 849.832 1537.13 Q844.647 1537.13 841.615 1534.01 Q838.605 1530.86 838.605 1525.42 Q838.605 1520.1 841.754 1516.88 Q844.902 1513.66 850.133 1513.66 Q856.128 1513.66 859.277 1518.27 Q862.448 1522.85 862.448 1531.6 Q862.448 1539.77 858.559 1544.66 Q854.693 1549.52 848.142 1549.52 Q846.383 1549.52 844.578 1549.17 Q842.772 1548.82 840.828 1548.13 M850.133 1533.48 Q853.281 1533.48 855.11 1531.32 Q856.962 1529.17 856.962 1525.42 Q856.962 1521.7 855.11 1519.54 Q853.281 1517.37 850.133 1517.37 Q846.985 1517.37 845.133 1519.54 Q843.304 1521.7 843.304 1525.42 Q843.304 1529.17 845.133 1531.32 Q846.985 1533.48 850.133 1533.48 Z" fill="#000000" fill-rule="nonzero" fill-opacity="1" /><path clip-path="url(#clip100)" d="M880.851 1532.44 Q877.517 1532.44 875.596 1534.22 Q873.698 1536 873.698 1539.13 Q873.698 1542.25 875.596 1544.03 Q877.517 1545.82 880.851 1545.82 Q884.184 1545.82 886.105 1544.03 Q888.026 1542.23 888.026 1539.13 Q888.026 1536 886.105 1534.22 Q884.207 1532.44 880.851 1532.44 M876.175 1530.45 Q873.165 1529.7 871.476 1527.64 Q869.809 1525.58 869.809 1522.62 Q869.809 1518.48 872.749 1516.07 Q875.712 1513.66 880.851 1513.66 Q886.013 1513.66 888.952 1516.07 Q891.892 1518.48 891.892 1522.62 Q891.892 1525.58 890.202 1527.64 Q888.536 1529.7 885.55 1530.45 Q888.929 1531.23 890.804 1533.52 Q892.702 1535.82 892.702 1539.13 Q892.702 1544.15 889.624 1546.83 Q886.568 1549.52 880.851 1549.52 Q875.133 1549.52 872.054 1546.83 Q868.999 1544.15 868.999 1539.13 Q868.999 1535.82 870.897 1533.52 Q872.795 1531.23 876.175 1530.45 M874.462 1523.06 Q874.462 1525.75 876.128 1527.25 Q877.818 1528.76 880.851 1528.76 Q883.86 1528.76 885.55 1527.25 Q887.263 1525.75 887.263 1523.06 Q887.263 1520.38 885.55 1518.87 Q883.86 1517.37 880.851 1517.37 Q877.818 1517.37 876.128 1518.87 Q874.462 1520.38 874.462 1523.06 Z" fill="#000000" fill-rule="nonzero" fill-opacity="1" /><path clip-path="url(#clip100)" d="M911.012 1517.37 Q907.401 1517.37 905.573 1520.93 Q903.767 1524.47 903.767 1531.6 Q903.767 1538.71 905.573 1542.27 Q907.401 1545.82 911.012 1545.82 Q914.647 1545.82 916.452 1542.27 Q918.281 1538.71 918.281 1531.6 Q918.281 1524.47 916.452 1520.93 Q914.647 1517.37 911.012 1517.37 M911.012 1513.66 Q916.823 1513.66 919.878 1518.27 Q922.957 1522.85 922.957 1531.6 Q922.957 1540.33 919.878 1544.94 Q916.823 1549.52 911.012 1549.52 Q905.202 1549.52 902.124 1544.94 Q899.068 1540.33 899.068 1531.6 Q899.068 1522.85 902.124 1518.27 Q905.202 1513.66 911.012 1513.66 Z" fill="#000000" fill-rule="nonzero" fill-opacity="1" /><path clip-path="url(#clip100)" d="M1430.74 1544.91 L1438.38 1544.91 L1438.38 1518.55 L1430.07 1520.21 L1430.07 1515.95 L1438.33 1514.29 L1443.01 1514.29 L1443.01 1544.91 L1450.65 1544.91 L1450.65 1548.85 L1430.74 1548.85 L1430.74 1544.91 Z" fill="#000000" fill-rule="nonzero" fill-opacity="1" /><path clip-path="url(#clip100)" d="M1460.23 1548.13 L1460.23 1543.87 Q1461.99 1544.7 1463.79 1545.14 Q1465.6 1545.58 1467.34 1545.58 Q1471.97 1545.58 1474.4 1542.48 Q1476.85 1539.36 1477.2 1533.01 Q1475.85 1535.01 1473.79 1536.07 Q1471.73 1537.13 1469.23 1537.13 Q1464.05 1537.13 1461.02 1534.01 Q1458.01 1530.86 1458.01 1525.42 Q1458.01 1520.1 1461.16 1516.88 Q1464.3 1513.66 1469.53 1513.66 Q1475.53 1513.66 1478.68 1518.27 Q1481.85 1522.85 1481.85 1531.6 Q1481.85 1539.77 1477.96 1544.66 Q1474.09 1549.52 1467.54 1549.52 Q1465.78 1549.52 1463.98 1549.17 Q1462.17 1548.82 1460.23 1548.13 M1469.53 1533.48 Q1472.68 1533.48 1474.51 1531.32 Q1476.36 1529.17 1476.36 1525.42 Q1476.36 1521.7 1474.51 1519.54 Q1472.68 1517.37 1469.53 1517.37 Q1466.39 1517.37 1464.53 1519.54 Q1462.71 1521.7 1462.71 1525.42 Q1462.71 1529.17 1464.53 1531.32 Q1466.39 1533.48 1469.53 1533.48 Z" fill="#000000" fill-rule="nonzero" fill-opacity="1" /><path clip-path="url(#clip100)" d="M1490.39 1548.13 L1490.39 1543.87 Q1492.15 1544.7 1493.96 1545.14 Q1495.76 1545.58 1497.5 1545.58 Q1502.13 1545.58 1504.56 1542.48 Q1507.01 1539.36 1507.36 1533.01 Q1506.02 1535.01 1503.96 1536.07 Q1501.9 1537.13 1499.4 1537.13 Q1494.21 1537.13 1491.18 1534.01 Q1488.17 1530.86 1488.17 1525.42 Q1488.17 1520.1 1491.32 1516.88 Q1494.47 1513.66 1499.7 1513.66 Q1505.69 1513.66 1508.84 1518.27 Q1512.01 1522.85 1512.01 1531.6 Q1512.01 1539.77 1508.12 1544.66 Q1504.26 1549.52 1497.71 1549.52 Q1495.95 1549.52 1494.14 1549.17 Q1492.34 1548.82 1490.39 1548.13 M1499.7 1533.48 Q1502.84 1533.48 1504.67 1531.32 Q1506.53 1529.17 1506.53 1525.42 Q1506.53 1521.7 1504.67 1519.54 Q1502.84 1517.37 1499.7 1517.37 Q1496.55 1517.37 1494.7 1519.54 Q1492.87 1521.7 1492.87 1525.42 Q1492.87 1529.17 1494.7 1531.32 Q1496.55 1533.48 1499.7 1533.48 Z" fill="#000000" fill-rule="nonzero" fill-opacity="1" /><path clip-path="url(#clip100)" d="M1530.41 1517.37 Q1526.8 1517.37 1524.97 1520.93 Q1523.17 1524.47 1523.17 1531.6 Q1523.17 1538.71 1524.97 1542.27 Q1526.8 1545.82 1530.41 1545.82 Q1534.05 1545.82 1535.85 1542.27 Q1537.68 1538.71 1537.68 1531.6 Q1537.68 1524.47 1535.85 1520.93 Q1534.05 1517.37 1530.41 1517.37 M1530.41 1513.66 Q1536.22 1513.66 1539.28 1518.27 Q1542.36 1522.85 1542.36 1531.6 Q1542.36 1540.33 1539.28 1544.94 Q1536.22 1549.52 1530.41 1549.52 Q1524.6 1549.52 1521.53 1544.94 Q1518.47 1540.33 1518.47 1531.6 Q1518.47 1522.85 1521.53 1518.27 Q1524.6 1513.66 1530.41 1513.66 Z" fill="#000000" fill-rule="nonzero" fill-opacity="1" /><path clip-path="url(#clip100)" d="M2054.23 1544.91 L2070.55 1544.91 L2070.55 1548.85 L2048.6 1548.85 L2048.6 1544.91 Q2051.26 1542.16 2055.85 1537.53 Q2060.45 1532.88 2061.63 1531.53 Q2063.88 1529.01 2064.76 1527.27 Q2065.66 1525.51 2065.66 1523.82 Q2065.66 1521.07 2063.72 1519.33 Q2061.8 1517.6 2058.69 1517.6 Q2056.49 1517.6 2054.04 1518.36 Q2051.61 1519.13 2048.83 1520.68 L2048.83 1515.95 Q2051.66 1514.82 2054.11 1514.24 Q2056.56 1513.66 2058.6 1513.66 Q2063.97 1513.66 2067.17 1516.35 Q2070.36 1519.03 2070.36 1523.52 Q2070.36 1525.65 2069.55 1527.57 Q2068.76 1529.47 2066.66 1532.07 Q2066.08 1532.74 2062.98 1535.95 Q2059.87 1539.15 2054.23 1544.91 Z" fill="#000000" fill-rule="nonzero" fill-opacity="1" /><path clip-path="url(#clip100)" d="M2090.36 1517.37 Q2086.75 1517.37 2084.92 1520.93 Q2083.11 1524.47 2083.11 1531.6 Q2083.11 1538.71 2084.92 1542.27 Q2086.75 1545.82 2090.36 1545.82 Q2093.99 1545.82 2095.8 1542.27 Q2097.63 1538.71 2097.63 1531.6 Q2097.63 1524.47 2095.8 1520.93 Q2093.99 1517.37 2090.36 1517.37 M2090.36 1513.66 Q2096.17 1513.66 2099.23 1518.27 Q2102.3 1522.85 2102.3 1531.6 Q2102.3 1540.33 2099.23 1544.94 Q2096.17 1549.52 2090.36 1549.52 Q2084.55 1549.52 2081.47 1544.94 Q2078.42 1540.33 2078.42 1531.6 Q2078.42 1522.85 2081.47 1518.27 Q2084.55 1513.66 2090.36 1513.66 Z" fill="#000000" fill-rule="nonzero" fill-opacity="1" /><path clip-path="url(#clip100)" d="M2120.52 1517.37 Q2116.91 1517.37 2115.08 1520.93 Q2113.28 1524.47 2113.28 1531.6 Q2113.28 1538.71 2115.08 1542.27 Q2116.91 1545.82 2120.52 1545.82 Q2124.16 1545.82 2125.96 1542.27 Q2127.79 1538.71 2127.79 1531.6 Q2127.79 1524.47 2125.96 1520.93 Q2124.16 1517.37 2120.52 1517.37 M2120.52 1513.66 Q2126.33 1513.66 2129.39 1518.27 Q2132.47 1522.85 2132.47 1531.6 Q2132.47 1540.33 2129.39 1544.94 Q2126.33 1549.52 2120.52 1549.52 Q2114.71 1549.52 2111.63 1544.94 Q2108.58 1540.33 2108.58 1531.6 Q2108.58 1522.85 2111.63 1518.27 Q2114.71 1513.66 2120.52 1513.66 Z" fill="#000000" fill-rule="nonzero" fill-opacity="1" /><path clip-path="url(#clip100)" d="M2150.68 1517.37 Q2147.07 1517.37 2145.24 1520.93 Q2143.44 1524.47 2143.44 1531.6 Q2143.44 1538.71 2145.24 1542.27 Q2147.07 1545.82 2150.68 1545.82 Q2154.32 1545.82 2156.12 1542.27 Q2157.95 1538.71 2157.95 1531.6 Q2157.95 1524.47 2156.12 1520.93 Q2154.32 1517.37 2150.68 1517.37 M2150.68 1513.66 Q2156.49 1513.66 2159.55 1518.27 Q2162.63 1522.85 2162.63 1531.6 Q2162.63 1540.33 2159.55 1544.94 Q2156.49 1549.52 2150.68 1549.52 Q2144.87 1549.52 2141.79 1544.94 Q2138.74 1540.33 2138.74 1531.6 Q2138.74 1522.85 2141.79 1518.27 Q2144.87 1513.66 2150.68 1513.66 Z" fill="#000000" fill-rule="nonzero" fill-opacity="1" /><polyline clip-path="url(#clip100)" style="stroke:#000000; stroke-linecap:round; stroke-linejoin:round; stroke-width:4; stroke-opacity:1; fill:none" points="186.089,1486.45 186.089,47.2441 "/>
<polyline clip-path="url(#clip100)" style="stroke:#000000; stroke-linecap:round; stroke-linejoin:round; stroke-width:4; stroke-opacity:1; fill:none" points="186.089,1369.67 204.986,1369.67 "/>
<polyline clip-path="url(#clip100)" style="stroke:#000000; stroke-linecap:round; stroke-linejoin:round; stroke-width:4; stroke-opacity:1; fill:none" points="186.089,1065.29 204.986,1065.29 "/>
<polyline clip-path="url(#clip100)" style="stroke:#000000; stroke-linecap:round; stroke-linejoin:round; stroke-width:4; stroke-opacity:1; fill:none" points="186.089,760.915 204.986,760.915 "/>
<polyline clip-path="url(#clip100)" style="stroke:#000000; stroke-linecap:round; stroke-linejoin:round; stroke-width:4; stroke-opacity:1; fill:none" points="186.089,456.54 204.986,456.54 "/>
<polyline clip-path="url(#clip100)" style="stroke:#000000; stroke-linecap:round; stroke-linejoin:round; stroke-width:4; stroke-opacity:1; fill:none" points="186.089,152.164 204.986,152.164 "/>
<path clip-path="url(#clip100)" d="M63.33 1367.8 Q60.1819 1367.8 58.33 1369.96 Q56.5014 1372.11 56.5014 1375.86 Q56.5014 1379.58 58.33 1381.76 Q60.1819 1383.91 63.33 1383.91 Q66.4782 1383.91 68.3068 1381.76 Q70.1587 1379.58 70.1587 1375.86 Q70.1587 1372.11 68.3068 1369.96 Q66.4782 1367.8 63.33 1367.8 M72.6124 1353.15 L72.6124 1357.41 Q70.8531 1356.58 69.0476 1356.14 Q67.2652 1355.7 65.5059 1355.7 Q60.8763 1355.7 58.4226 1358.82 Q55.9921 1361.95 55.6449 1368.27 Q57.0106 1366.25 59.0708 1365.19 Q61.131 1364.1 63.6078 1364.1 Q68.8161 1364.1 71.8253 1367.27 Q74.8577 1370.42 74.8577 1375.86 Q74.8577 1381.18 71.7096 1384.4 Q68.5615 1387.62 63.33 1387.62 Q57.3347 1387.62 54.1634 1383.03 Q50.9921 1378.43 50.9921 1369.7 Q50.9921 1361.51 54.881 1356.65 Q58.7699 1351.76 65.3208 1351.76 Q67.08 1351.76 68.8624 1352.11 Q70.6679 1352.46 72.6124 1353.15 Z" fill="#000000" fill-rule="nonzero" fill-opacity="1" /><path clip-path="url(#clip100)" d="M82.9133 1381.07 L87.7975 1381.07 L87.7975 1386.95 L82.9133 1386.95 L82.9133 1381.07 Z" fill="#000000" fill-rule="nonzero" fill-opacity="1" /><path clip-path="url(#clip100)" d="M107.983 1355.46 Q104.371 1355.46 102.543 1359.03 Q100.737 1362.57 100.737 1369.7 Q100.737 1376.81 102.543 1380.37 Q104.371 1383.91 107.983 1383.91 Q111.617 1383.91 113.422 1380.37 Q115.251 1376.81 115.251 1369.7 Q115.251 1362.57 113.422 1359.03 Q111.617 1355.46 107.983 1355.46 M107.983 1351.76 Q113.793 1351.76 116.848 1356.37 Q119.927 1360.95 119.927 1369.7 Q119.927 1378.43 116.848 1383.03 Q113.793 1387.62 107.983 1387.62 Q102.172 1387.62 99.0937 1383.03 Q96.0382 1378.43 96.0382 1369.7 Q96.0382 1360.95 99.0937 1356.37 Q102.172 1351.76 107.983 1351.76 Z" fill="#000000" fill-rule="nonzero" fill-opacity="1" /><path clip-path="url(#clip100)" d="M138.144 1355.46 Q134.533 1355.46 132.705 1359.03 Q130.899 1362.57 130.899 1369.7 Q130.899 1376.81 132.705 1380.37 Q134.533 1383.91 138.144 1383.91 Q141.779 1383.91 143.584 1380.37 Q145.413 1376.81 145.413 1369.7 Q145.413 1362.57 143.584 1359.03 Q141.779 1355.46 138.144 1355.46 M138.144 1351.76 Q143.955 1351.76 147.01 1356.37 Q150.089 1360.95 150.089 1369.7 Q150.089 1378.43 147.01 1383.03 Q143.955 1387.62 138.144 1387.62 Q132.334 1387.62 129.256 1383.03 Q126.2 1378.43 126.2 1369.7 Q126.2 1360.95 129.256 1356.37 Q132.334 1351.76 138.144 1351.76 Z" fill="#000000" fill-rule="nonzero" fill-opacity="1" /><path clip-path="url(#clip100)" d="M64.3254 1063.43 Q61.1773 1063.43 59.3254 1065.58 Q57.4967 1067.73 57.4967 1071.48 Q57.4967 1075.21 59.3254 1077.39 Q61.1773 1079.54 64.3254 1079.54 Q67.4735 1079.54 69.3022 1077.39 Q71.1541 1075.21 71.1541 1071.48 Q71.1541 1067.73 69.3022 1065.58 Q67.4735 1063.43 64.3254 1063.43 M73.6077 1048.77 L73.6077 1053.03 Q71.8485 1052.2 70.0429 1051.76 Q68.2606 1051.32 66.5013 1051.32 Q61.8717 1051.32 59.418 1054.45 Q56.9875 1057.57 56.6402 1063.89 Q58.006 1061.88 60.0662 1060.81 Q62.1263 1059.72 64.6032 1059.72 Q69.8115 1059.72 72.8207 1062.89 Q75.8531 1066.04 75.8531 1071.48 Q75.8531 1076.81 72.705 1080.02 Q69.5568 1083.24 64.3254 1083.24 Q58.33 1083.24 55.1588 1078.66 Q51.9875 1074.05 51.9875 1065.33 Q51.9875 1057.13 55.8764 1052.27 Q59.7652 1047.39 66.3161 1047.39 Q68.0754 1047.39 69.8578 1047.73 Q71.6633 1048.08 73.6077 1048.77 Z" fill="#000000" fill-rule="nonzero" fill-opacity="1" /><path clip-path="url(#clip100)" d="M83.9086 1076.69 L88.7928 1076.69 L88.7928 1082.57 L83.9086 1082.57 L83.9086 1076.69 Z" fill="#000000" fill-rule="nonzero" fill-opacity="1" /><path clip-path="url(#clip100)" d="M103.006 1078.64 L119.325 1078.64 L119.325 1082.57 L97.3808 1082.57 L97.3808 1078.64 Q100.043 1075.88 104.626 1071.25 Q109.233 1066.6 110.413 1065.26 Q112.658 1062.73 113.538 1061 Q114.441 1059.24 114.441 1057.55 Q114.441 1054.79 112.496 1053.06 Q110.575 1051.32 107.473 1051.32 Q105.274 1051.32 102.821 1052.08 Q100.39 1052.85 97.6122 1054.4 L97.6122 1049.68 Q100.436 1048.54 102.89 1047.96 Q105.344 1047.39 107.381 1047.39 Q112.751 1047.39 115.945 1050.07 Q119.14 1052.76 119.14 1057.25 Q119.14 1059.38 118.33 1061.3 Q117.543 1063.2 115.436 1065.79 Q114.858 1066.46 111.756 1069.68 Q108.654 1072.87 103.006 1078.64 Z" fill="#000000" fill-rule="nonzero" fill-opacity="1" /><path clip-path="url(#clip100)" d="M129.186 1048.01 L147.543 1048.01 L147.543 1051.95 L133.469 1051.95 L133.469 1060.42 Q134.487 1060.07 135.506 1059.91 Q136.524 1059.72 137.543 1059.72 Q143.33 1059.72 146.709 1062.89 Q150.089 1066.07 150.089 1071.48 Q150.089 1077.06 146.617 1080.16 Q143.144 1083.24 136.825 1083.24 Q134.649 1083.24 132.381 1082.87 Q130.135 1082.5 127.728 1081.76 L127.728 1077.06 Q129.811 1078.2 132.033 1078.75 Q134.256 1079.31 136.732 1079.31 Q140.737 1079.31 143.075 1077.2 Q145.413 1075.09 145.413 1071.48 Q145.413 1067.87 143.075 1065.77 Q140.737 1063.66 136.732 1063.66 Q134.857 1063.66 132.982 1064.08 Q131.131 1064.49 129.186 1065.37 L129.186 1048.01 Z" fill="#000000" fill-rule="nonzero" fill-opacity="1" /><path clip-path="url(#clip100)" d="M63.33 759.052 Q60.1819 759.052 58.33 761.204 Q56.5014 763.357 56.5014 767.107 Q56.5014 770.834 58.33 773.01 Q60.1819 775.163 63.33 775.163 Q66.4782 775.163 68.3068 773.01 Q70.1587 770.834 70.1587 767.107 Q70.1587 763.357 68.3068 761.204 Q66.4782 759.052 63.33 759.052 M72.6124 744.399 L72.6124 748.658 Q70.8531 747.825 69.0476 747.385 Q67.2652 746.945 65.5059 746.945 Q60.8763 746.945 58.4226 750.07 Q55.9921 753.195 55.6449 759.515 Q57.0106 757.501 59.0708 756.436 Q61.131 755.348 63.6078 755.348 Q68.8161 755.348 71.8253 758.519 Q74.8577 761.667 74.8577 767.107 Q74.8577 772.431 71.7096 775.649 Q68.5615 778.866 63.33 778.866 Q57.3347 778.866 54.1634 774.283 Q50.9921 769.677 50.9921 760.95 Q50.9921 752.755 54.881 747.894 Q58.7699 743.01 65.3208 743.01 Q67.08 743.01 68.8624 743.357 Q70.6679 743.705 72.6124 744.399 Z" fill="#000000" fill-rule="nonzero" fill-opacity="1" /><path clip-path="url(#clip100)" d="M82.9133 772.315 L87.7975 772.315 L87.7975 778.195 L82.9133 778.195 L82.9133 772.315 Z" fill="#000000" fill-rule="nonzero" fill-opacity="1" /><path clip-path="url(#clip100)" d="M98.0289 743.635 L116.385 743.635 L116.385 747.57 L102.311 747.57 L102.311 756.042 Q103.33 755.695 104.348 755.533 Q105.367 755.348 106.385 755.348 Q112.172 755.348 115.552 758.519 Q118.932 761.691 118.932 767.107 Q118.932 772.686 115.459 775.788 Q111.987 778.866 105.668 778.866 Q103.492 778.866 101.223 778.496 Q98.978 778.126 96.5706 777.385 L96.5706 772.686 Q98.6539 773.82 100.876 774.376 Q103.098 774.931 105.575 774.931 Q109.58 774.931 111.918 772.825 Q114.256 770.718 114.256 767.107 Q114.256 763.496 111.918 761.39 Q109.58 759.283 105.575 759.283 Q103.7 759.283 101.825 759.7 Q99.9733 760.116 98.0289 760.996 L98.0289 743.635 Z" fill="#000000" fill-rule="nonzero" fill-opacity="1" /><path clip-path="url(#clip100)" d="M138.144 746.714 Q134.533 746.714 132.705 750.279 Q130.899 753.82 130.899 760.95 Q130.899 768.056 132.705 771.621 Q134.533 775.163 138.144 775.163 Q141.779 775.163 143.584 771.621 Q145.413 768.056 145.413 760.95 Q145.413 753.82 143.584 750.279 Q141.779 746.714 138.144 746.714 M138.144 743.01 Q143.955 743.01 147.01 747.617 Q150.089 752.2 150.089 760.95 Q150.089 769.677 147.01 774.283 Q143.955 778.866 138.144 778.866 Q132.334 778.866 129.256 774.283 Q126.2 769.677 126.2 760.95 Q126.2 752.2 129.256 747.617 Q132.334 743.01 138.144 743.01 Z" fill="#000000" fill-rule="nonzero" fill-opacity="1" /><path clip-path="url(#clip100)" d="M64.3254 454.676 Q61.1773 454.676 59.3254 456.829 Q57.4967 458.982 57.4967 462.732 Q57.4967 466.459 59.3254 468.635 Q61.1773 470.787 64.3254 470.787 Q67.4735 470.787 69.3022 468.635 Q71.1541 466.459 71.1541 462.732 Q71.1541 458.982 69.3022 456.829 Q67.4735 454.676 64.3254 454.676 M73.6077 440.024 L73.6077 444.283 Q71.8485 443.449 70.0429 443.01 Q68.2606 442.57 66.5013 442.57 Q61.8717 442.57 59.418 445.695 Q56.9875 448.82 56.6402 455.139 Q58.006 453.125 60.0662 452.061 Q62.1263 450.973 64.6032 450.973 Q69.8115 450.973 72.8207 454.144 Q75.8531 457.292 75.8531 462.732 Q75.8531 468.056 72.705 471.273 Q69.5568 474.491 64.3254 474.491 Q58.33 474.491 55.1588 469.908 Q51.9875 465.301 51.9875 456.574 Q51.9875 448.38 55.8764 443.519 Q59.7652 438.635 66.3161 438.635 Q68.0754 438.635 69.8578 438.982 Q71.6633 439.329 73.6077 440.024 Z" fill="#000000" fill-rule="nonzero" fill-opacity="1" /><path clip-path="url(#clip100)" d="M83.9086 467.94 L88.7928 467.94 L88.7928 473.82 L83.9086 473.82 L83.9086 467.94 Z" fill="#000000" fill-rule="nonzero" fill-opacity="1" /><path clip-path="url(#clip100)" d="M97.7974 439.26 L120.02 439.26 L120.02 441.25 L107.473 473.82 L102.589 473.82 L114.395 443.195 L97.7974 443.195 L97.7974 439.26 Z" fill="#000000" fill-rule="nonzero" fill-opacity="1" /><path clip-path="url(#clip100)" d="M129.186 439.26 L147.543 439.26 L147.543 443.195 L133.469 443.195 L133.469 451.667 Q134.487 451.32 135.506 451.158 Q136.524 450.973 137.543 450.973 Q143.33 450.973 146.709 454.144 Q150.089 457.315 150.089 462.732 Q150.089 468.31 146.617 471.412 Q143.144 474.491 136.825 474.491 Q134.649 474.491 132.381 474.121 Q130.135 473.75 127.728 473.009 L127.728 468.31 Q129.811 469.445 132.033 470 Q134.256 470.556 136.732 470.556 Q140.737 470.556 143.075 468.449 Q145.413 466.343 145.413 462.732 Q145.413 459.121 143.075 457.014 Q140.737 454.908 136.732 454.908 Q134.857 454.908 132.982 455.324 Q131.131 455.741 129.186 456.621 L129.186 439.26 Z" fill="#000000" fill-rule="nonzero" fill-opacity="1" /><path clip-path="url(#clip100)" d="M51.5708 134.884 L73.7929 134.884 L73.7929 136.875 L61.2467 169.444 L56.3625 169.444 L68.168 138.819 L51.5708 138.819 L51.5708 134.884 Z" fill="#000000" fill-rule="nonzero" fill-opacity="1" /><path clip-path="url(#clip100)" d="M82.9133 163.565 L87.7975 163.565 L87.7975 169.444 L82.9133 169.444 L82.9133 163.565 Z" fill="#000000" fill-rule="nonzero" fill-opacity="1" /><path clip-path="url(#clip100)" d="M107.983 137.963 Q104.371 137.963 102.543 141.528 Q100.737 145.069 100.737 152.199 Q100.737 159.305 102.543 162.87 Q104.371 166.412 107.983 166.412 Q111.617 166.412 113.422 162.87 Q115.251 159.305 115.251 152.199 Q115.251 145.069 113.422 141.528 Q111.617 137.963 107.983 137.963 M107.983 134.259 Q113.793 134.259 116.848 138.866 Q119.927 143.449 119.927 152.199 Q119.927 160.926 116.848 165.532 Q113.793 170.116 107.983 170.116 Q102.172 170.116 99.0937 165.532 Q96.0382 160.926 96.0382 152.199 Q96.0382 143.449 99.0937 138.866 Q102.172 134.259 107.983 134.259 Z" fill="#000000" fill-rule="nonzero" fill-opacity="1" /><path clip-path="url(#clip100)" d="M138.144 137.963 Q134.533 137.963 132.705 141.528 Q130.899 145.069 130.899 152.199 Q130.899 159.305 132.705 162.87 Q134.533 166.412 138.144 166.412 Q141.779 166.412 143.584 162.87 Q145.413 159.305 145.413 152.199 Q145.413 145.069 143.584 141.528 Q141.779 137.963 138.144 137.963 M138.144 134.259 Q143.955 134.259 147.01 138.866 Q150.089 143.449 150.089 152.199 Q150.089 160.926 147.01 165.532 Q143.955 170.116 138.144 170.116 Q132.334 170.116 129.256 165.532 Q126.2 160.926 126.2 152.199 Q126.2 143.449 129.256 138.866 Q132.334 134.259 138.144 134.259 Z" fill="#000000" fill-rule="nonzero" fill-opacity="1" /><polyline clip-path="url(#clip102)" style="stroke:#009af9; stroke-linecap:round; stroke-linejoin:round; stroke-width:4; stroke-opacity:1; fill:none" points="247.41,199.286 309.35,101.745 371.29,87.9763 433.23,164.027 495.17,441.041 557.11,379.296 619.051,530.078 680.991,683.171 742.931,866.279 804.871,788.951 866.811,990.128 928.751,981.322 990.692,950.991 1052.63,878.314 1114.57,1012.43 1176.51,1012.43 1238.45,862.294 1300.39,925.581 1362.33,783.345 1424.27,640.98 1486.21,790.826 1548.15,823.142 1610.09,884.376 1672.03,1147.98 1733.97,1158.08 1795.91,1261.25 1857.85,1367.94 1919.79,1269.56 1981.73,1380.06 2043.67,1289.18 2105.61,1392.29 2167.55,1283.54 2229.49,1335.24 2291.44,1445.72 "/>
<path clip-path="url(#clip100)" d="M1244.03 198.898 L2280.53 198.898 L2280.53 95.2176 L1244.03 95.2176  Z" fill="#ffffff" fill-rule="evenodd" fill-opacity="1"/>
<polyline clip-path="url(#clip100)" style="stroke:#000000; stroke-linecap:round; stroke-linejoin:round; stroke-width:4; stroke-opacity:1; fill:none" points="1244.03,198.898 2280.53,198.898 2280.53,95.2176 1244.03,95.2176 1244.03,198.898 "/>
<polyline clip-path="url(#clip100)" style="stroke:#009af9; stroke-linecap:round; stroke-linejoin:round; stroke-width:4; stroke-opacity:1; fill:none" points="1268.11,147.058 1412.55,147.058 "/>
<path clip-path="url(#clip100)" d="M1436.63 129.778 L1441.3 129.778 L1441.3 160.402 L1458.13 160.402 L1458.13 164.338 L1436.63 164.338 L1436.63 129.778 Z" fill="#000000" fill-rule="nonzero" fill-opacity="1" /><path clip-path="url(#clip100)" d="M1472.07 141.398 Q1468.64 141.398 1466.65 144.083 Q1464.66 146.745 1464.66 151.398 Q1464.66 156.051 1466.63 158.736 Q1468.62 161.398 1472.07 161.398 Q1475.47 161.398 1477.46 158.713 Q1479.45 156.027 1479.45 151.398 Q1479.45 146.791 1477.46 144.106 Q1475.47 141.398 1472.07 141.398 M1472.07 137.787 Q1477.62 137.787 1480.79 141.398 Q1483.96 145.009 1483.96 151.398 Q1483.96 157.764 1480.79 161.398 Q1477.62 165.009 1472.07 165.009 Q1466.49 165.009 1463.32 161.398 Q1460.17 157.764 1460.17 151.398 Q1460.17 145.009 1463.32 141.398 Q1466.49 137.787 1472.07 137.787 Z" fill="#000000" fill-rule="nonzero" fill-opacity="1" /><path clip-path="url(#clip100)" d="M1508.08 151.074 Q1508.08 146.444 1506.16 143.898 Q1504.26 141.352 1500.82 141.352 Q1497.39 141.352 1495.47 143.898 Q1493.57 146.444 1493.57 151.074 Q1493.57 155.68 1495.47 158.226 Q1497.39 160.773 1500.82 160.773 Q1504.26 160.773 1506.16 158.226 Q1508.08 155.68 1508.08 151.074 M1512.34 161.12 Q1512.34 167.74 1509.4 170.958 Q1506.46 174.199 1500.4 174.199 Q1498.15 174.199 1496.16 173.851 Q1494.17 173.527 1492.3 172.833 L1492.3 168.689 Q1494.17 169.708 1496 170.194 Q1497.83 170.68 1499.73 170.68 Q1503.92 170.68 1506 168.481 Q1508.08 166.305 1508.08 161.884 L1508.08 159.777 Q1506.76 162.069 1504.7 163.203 Q1502.64 164.338 1499.77 164.338 Q1495.01 164.338 1492.09 160.703 Q1489.17 157.069 1489.17 151.074 Q1489.17 145.055 1492.09 141.421 Q1495.01 137.787 1499.77 137.787 Q1502.64 137.787 1504.7 138.921 Q1506.76 140.055 1508.08 142.347 L1508.08 138.412 L1512.34 138.412 L1512.34 161.12 Z" fill="#000000" fill-rule="nonzero" fill-opacity="1" /><path clip-path="url(#clip100)" d="M1546.23 141.398 Q1542.81 141.398 1540.82 144.083 Q1538.82 146.745 1538.82 151.398 Q1538.82 156.051 1540.79 158.736 Q1542.78 161.398 1546.23 161.398 Q1549.63 161.398 1551.63 158.713 Q1553.62 156.027 1553.62 151.398 Q1553.62 146.791 1551.63 144.106 Q1549.63 141.398 1546.23 141.398 M1546.23 137.787 Q1551.79 137.787 1554.96 141.398 Q1558.13 145.009 1558.13 151.398 Q1558.13 157.764 1554.96 161.398 Q1551.79 165.009 1546.23 165.009 Q1540.65 165.009 1537.48 161.398 Q1534.33 157.764 1534.33 151.398 Q1534.33 145.009 1537.48 141.398 Q1540.65 137.787 1546.23 137.787 Z" fill="#000000" fill-rule="nonzero" fill-opacity="1" /><path clip-path="url(#clip100)" d="M1578.32 128.319 L1578.32 131.861 L1574.24 131.861 Q1571.95 131.861 1571.05 132.787 Q1570.17 133.713 1570.17 136.12 L1570.17 138.412 L1577.18 138.412 L1577.18 141.722 L1570.17 141.722 L1570.17 164.338 L1565.88 164.338 L1565.88 141.722 L1561.81 141.722 L1561.81 138.412 L1565.88 138.412 L1565.88 136.606 Q1565.88 132.278 1567.9 130.31 Q1569.91 128.319 1574.29 128.319 L1578.32 128.319 Z" fill="#000000" fill-rule="nonzero" fill-opacity="1" /><path clip-path="url(#clip100)" d="M1597.13 129.778 L1617 129.778 L1617 133.713 L1601.81 133.713 L1601.81 143.898 L1615.51 143.898 L1615.51 147.833 L1601.81 147.833 L1601.81 164.338 L1597.13 164.338 L1597.13 129.778 Z" fill="#000000" fill-rule="nonzero" fill-opacity="1" /><path clip-path="url(#clip100)" d="M1620.77 138.412 L1625.03 138.412 L1625.03 164.338 L1620.77 164.338 L1620.77 138.412 M1620.77 128.319 L1625.03 128.319 L1625.03 133.713 L1620.77 133.713 L1620.77 128.319 Z" fill="#000000" fill-rule="nonzero" fill-opacity="1" /><path clip-path="url(#clip100)" d="M1655.49 148.689 L1655.49 164.338 L1651.23 164.338 L1651.23 148.828 Q1651.23 145.148 1649.8 143.319 Q1648.36 141.49 1645.49 141.49 Q1642.04 141.49 1640.05 143.69 Q1638.06 145.889 1638.06 149.685 L1638.06 164.338 L1633.78 164.338 L1633.78 138.412 L1638.06 138.412 L1638.06 142.44 Q1639.59 140.102 1641.65 138.944 Q1643.73 137.787 1646.44 137.787 Q1650.91 137.787 1653.2 140.565 Q1655.49 143.319 1655.49 148.689 Z" fill="#000000" fill-rule="nonzero" fill-opacity="1" /><path clip-path="url(#clip100)" d="M1663.99 128.319 L1668.25 128.319 L1668.25 164.338 L1663.99 164.338 L1663.99 128.319 Z" fill="#000000" fill-rule="nonzero" fill-opacity="1" /><path clip-path="url(#clip100)" d="M1688.94 151.305 Q1683.78 151.305 1681.79 152.486 Q1679.8 153.666 1679.8 156.514 Q1679.8 158.782 1681.28 160.125 Q1682.78 161.444 1685.35 161.444 Q1688.89 161.444 1691.02 158.944 Q1693.18 156.421 1693.18 152.254 L1693.18 151.305 L1688.94 151.305 M1697.43 149.546 L1697.43 164.338 L1693.18 164.338 L1693.18 160.402 Q1691.72 162.763 1689.54 163.898 Q1687.37 165.009 1684.22 165.009 Q1680.24 165.009 1677.87 162.787 Q1675.54 160.541 1675.54 156.791 Q1675.54 152.416 1678.45 150.194 Q1681.39 147.972 1687.2 147.972 L1693.18 147.972 L1693.18 147.555 Q1693.18 144.615 1691.23 143.018 Q1689.31 141.398 1685.81 141.398 Q1683.59 141.398 1681.49 141.93 Q1679.38 142.463 1677.43 143.527 L1677.43 139.592 Q1679.77 138.69 1681.97 138.25 Q1684.17 137.787 1686.25 137.787 Q1691.88 137.787 1694.66 140.703 Q1697.43 143.62 1697.43 149.546 Z" fill="#000000" fill-rule="nonzero" fill-opacity="1" /><path clip-path="url(#clip100)" d="M1727.76 148.689 L1727.76 164.338 L1723.5 164.338 L1723.5 148.828 Q1723.5 145.148 1722.06 143.319 Q1720.63 141.49 1717.76 141.49 Q1714.31 141.49 1712.32 143.69 Q1710.33 145.889 1710.33 149.685 L1710.33 164.338 L1706.05 164.338 L1706.05 138.412 L1710.33 138.412 L1710.33 142.44 Q1711.86 140.102 1713.92 138.944 Q1716 137.787 1718.71 137.787 Q1723.18 137.787 1725.47 140.565 Q1727.76 143.319 1727.76 148.689 Z" fill="#000000" fill-rule="nonzero" fill-opacity="1" /><path clip-path="url(#clip100)" d="M1753.31 142.347 L1753.31 128.319 L1757.57 128.319 L1757.57 164.338 L1753.31 164.338 L1753.31 160.449 Q1751.97 162.763 1749.91 163.898 Q1747.87 165.009 1745 165.009 Q1740.3 165.009 1737.34 161.259 Q1734.4 157.509 1734.4 151.398 Q1734.4 145.287 1737.34 141.537 Q1740.3 137.787 1745 137.787 Q1747.87 137.787 1749.91 138.921 Q1751.97 140.032 1753.31 142.347 M1738.8 151.398 Q1738.8 156.097 1740.72 158.782 Q1742.67 161.444 1746.05 161.444 Q1749.43 161.444 1751.37 158.782 Q1753.31 156.097 1753.31 151.398 Q1753.31 146.699 1751.37 144.037 Q1749.43 141.352 1746.05 141.352 Q1742.67 141.352 1740.72 144.037 Q1738.8 146.699 1738.8 151.398 Z" fill="#000000" fill-rule="nonzero" fill-opacity="1" /><path clip-path="url(#clip100)" d="M1796.44 142.393 Q1795.72 141.977 1794.86 141.791 Q1794.03 141.583 1793.01 141.583 Q1789.4 141.583 1787.46 143.944 Q1785.54 146.282 1785.54 150.68 L1785.54 164.338 L1781.25 164.338 L1781.25 138.412 L1785.54 138.412 L1785.54 142.44 Q1786.88 140.078 1789.03 138.944 Q1791.18 137.787 1794.26 137.787 Q1794.7 137.787 1795.24 137.856 Q1795.77 137.903 1796.42 138.018 L1796.44 142.393 Z" fill="#000000" fill-rule="nonzero" fill-opacity="1" /><path clip-path="url(#clip100)" d="M1809.91 141.398 Q1806.49 141.398 1804.49 144.083 Q1802.5 146.745 1802.5 151.398 Q1802.5 156.051 1804.47 158.736 Q1806.46 161.398 1809.91 161.398 Q1813.31 161.398 1815.3 158.713 Q1817.3 156.027 1817.3 151.398 Q1817.3 146.791 1815.3 144.106 Q1813.31 141.398 1809.91 141.398 M1809.91 137.787 Q1815.47 137.787 1818.64 141.398 Q1821.81 145.009 1821.81 151.398 Q1821.81 157.764 1818.64 161.398 Q1815.47 165.009 1809.91 165.009 Q1804.33 165.009 1801.16 161.398 Q1798.01 157.764 1798.01 151.398 Q1798.01 145.009 1801.16 141.398 Q1804.33 137.787 1809.91 137.787 Z" fill="#000000" fill-rule="nonzero" fill-opacity="1" /><path clip-path="url(#clip100)" d="M1840.65 151.305 Q1835.49 151.305 1833.5 152.486 Q1831.51 153.666 1831.51 156.514 Q1831.51 158.782 1832.99 160.125 Q1834.49 161.444 1837.06 161.444 Q1840.61 161.444 1842.73 158.944 Q1844.89 156.421 1844.89 152.254 L1844.89 151.305 L1840.65 151.305 M1849.15 149.546 L1849.15 164.338 L1844.89 164.338 L1844.89 160.402 Q1843.43 162.763 1841.25 163.898 Q1839.08 165.009 1835.93 165.009 Q1831.95 165.009 1829.59 162.787 Q1827.25 160.541 1827.25 156.791 Q1827.25 152.416 1830.17 150.194 Q1833.11 147.972 1838.92 147.972 L1844.89 147.972 L1844.89 147.555 Q1844.89 144.615 1842.94 143.018 Q1841.02 141.398 1837.53 141.398 Q1835.3 141.398 1833.2 141.93 Q1831.09 142.463 1829.15 143.527 L1829.15 139.592 Q1831.49 138.69 1833.68 138.25 Q1835.88 137.787 1837.97 137.787 Q1843.59 137.787 1846.37 140.703 Q1849.15 143.62 1849.15 149.546 Z" fill="#000000" fill-rule="nonzero" fill-opacity="1" /><path clip-path="url(#clip100)" d="M1874.98 142.347 L1874.98 128.319 L1879.24 128.319 L1879.24 164.338 L1874.98 164.338 L1874.98 160.449 Q1873.64 162.763 1871.58 163.898 Q1869.54 165.009 1866.67 165.009 Q1861.97 165.009 1859.01 161.259 Q1856.07 157.509 1856.07 151.398 Q1856.07 145.287 1859.01 141.537 Q1861.97 137.787 1866.67 137.787 Q1869.54 137.787 1871.58 138.921 Q1873.64 140.032 1874.98 142.347 M1860.47 151.398 Q1860.47 156.097 1862.39 158.782 Q1864.33 161.444 1867.71 161.444 Q1871.09 161.444 1873.04 158.782 Q1874.98 156.097 1874.98 151.398 Q1874.98 146.699 1873.04 144.037 Q1871.09 141.352 1867.71 141.352 Q1864.33 141.352 1862.39 144.037 Q1860.47 146.699 1860.47 151.398 Z" fill="#000000" fill-rule="nonzero" fill-opacity="1" /><path clip-path="url(#clip100)" d="M1907.29 131.051 L1907.29 138.412 L1916.07 138.412 L1916.07 141.722 L1907.29 141.722 L1907.29 155.796 Q1907.29 158.967 1908.15 159.87 Q1909.03 160.773 1911.69 160.773 L1916.07 160.773 L1916.07 164.338 L1911.69 164.338 Q1906.76 164.338 1904.89 162.509 Q1903.01 160.657 1903.01 155.796 L1903.01 141.722 L1899.89 141.722 L1899.89 138.412 L1903.01 138.412 L1903.01 131.051 L1907.29 131.051 Z" fill="#000000" fill-rule="nonzero" fill-opacity="1" /><path clip-path="url(#clip100)" d="M1936.69 142.393 Q1935.98 141.977 1935.12 141.791 Q1934.29 141.583 1933.27 141.583 Q1929.66 141.583 1927.71 143.944 Q1925.79 146.282 1925.79 150.68 L1925.79 164.338 L1921.51 164.338 L1921.51 138.412 L1925.79 138.412 L1925.79 142.44 Q1927.13 140.078 1929.29 138.944 Q1931.44 137.787 1934.52 137.787 Q1934.96 137.787 1935.49 137.856 Q1936.02 137.903 1936.67 138.018 L1936.69 142.393 Z" fill="#000000" fill-rule="nonzero" fill-opacity="1" /><path clip-path="url(#clip100)" d="M1952.94 151.305 Q1947.78 151.305 1945.79 152.486 Q1943.8 153.666 1943.8 156.514 Q1943.8 158.782 1945.28 160.125 Q1946.79 161.444 1949.35 161.444 Q1952.9 161.444 1955.03 158.944 Q1957.18 156.421 1957.18 152.254 L1957.18 151.305 L1952.94 151.305 M1961.44 149.546 L1961.44 164.338 L1957.18 164.338 L1957.18 160.402 Q1955.72 162.763 1953.54 163.898 Q1951.37 165.009 1948.22 165.009 Q1944.24 165.009 1941.88 162.787 Q1939.54 160.541 1939.54 156.791 Q1939.54 152.416 1942.46 150.194 Q1945.4 147.972 1951.21 147.972 L1957.18 147.972 L1957.18 147.555 Q1957.18 144.615 1955.23 143.018 Q1953.31 141.398 1949.82 141.398 Q1947.6 141.398 1945.49 141.93 Q1943.38 142.463 1941.44 143.527 L1941.44 139.592 Q1943.78 138.69 1945.98 138.25 Q1948.17 137.787 1950.26 137.787 Q1955.88 137.787 1958.66 140.703 Q1961.44 143.62 1961.44 149.546 Z" fill="#000000" fill-rule="nonzero" fill-opacity="1" /><path clip-path="url(#clip100)" d="M1983.34 128.319 L1983.34 131.861 L1979.26 131.861 Q1976.97 131.861 1976.07 132.787 Q1975.19 133.713 1975.19 136.12 L1975.19 138.412 L1982.2 138.412 L1982.2 141.722 L1975.19 141.722 L1975.19 164.338 L1970.91 164.338 L1970.91 141.722 L1966.83 141.722 L1966.83 138.412 L1970.91 138.412 L1970.91 136.606 Q1970.91 132.278 1972.92 130.31 Q1974.93 128.319 1979.31 128.319 L1983.34 128.319 Z" fill="#000000" fill-rule="nonzero" fill-opacity="1" /><path clip-path="url(#clip100)" d="M2000.03 128.319 L2000.03 131.861 L1995.95 131.861 Q1993.66 131.861 1992.76 132.787 Q1991.88 133.713 1991.88 136.12 L1991.88 138.412 L1998.89 138.412 L1998.89 141.722 L1991.88 141.722 L1991.88 164.338 L1987.6 164.338 L1987.6 141.722 L1983.52 141.722 L1983.52 138.412 L1987.6 138.412 L1987.6 136.606 Q1987.6 132.278 1989.61 130.31 Q1991.62 128.319 1996 128.319 L2000.03 128.319 Z" fill="#000000" fill-rule="nonzero" fill-opacity="1" /><path clip-path="url(#clip100)" d="M2003.59 138.412 L2007.85 138.412 L2007.85 164.338 L2003.59 164.338 L2003.59 138.412 M2003.59 128.319 L2007.85 128.319 L2007.85 133.713 L2003.59 133.713 L2003.59 128.319 Z" fill="#000000" fill-rule="nonzero" fill-opacity="1" /><path clip-path="url(#clip100)" d="M2035.42 139.407 L2035.42 143.389 Q2033.61 142.393 2031.78 141.907 Q2029.98 141.398 2028.13 141.398 Q2023.98 141.398 2021.69 144.037 Q2019.4 146.652 2019.4 151.398 Q2019.4 156.143 2021.69 158.782 Q2023.98 161.398 2028.13 161.398 Q2029.98 161.398 2031.78 160.912 Q2033.61 160.402 2035.42 159.407 L2035.42 163.342 Q2033.64 164.176 2031.72 164.592 Q2029.82 165.009 2027.66 165.009 Q2021.81 165.009 2018.36 161.328 Q2014.91 157.648 2014.91 151.398 Q2014.91 145.055 2018.38 141.421 Q2021.88 137.787 2027.94 137.787 Q2029.91 137.787 2031.78 138.203 Q2033.66 138.597 2035.42 139.407 Z" fill="#000000" fill-rule="nonzero" fill-opacity="1" /><path clip-path="url(#clip100)" d="M2071.02 128.319 L2071.02 131.861 L2066.95 131.861 Q2064.66 131.861 2063.75 132.787 Q2062.87 133.713 2062.87 136.12 L2062.87 138.412 L2069.89 138.412 L2069.89 141.722 L2062.87 141.722 L2062.87 164.338 L2058.59 164.338 L2058.59 141.722 L2054.52 141.722 L2054.52 138.412 L2058.59 138.412 L2058.59 136.606 Q2058.59 132.278 2060.6 130.31 Q2062.62 128.319 2066.99 128.319 L2071.02 128.319 Z" fill="#000000" fill-rule="nonzero" fill-opacity="1" /><path clip-path="url(#clip100)" d="M2086.37 151.305 Q2081.21 151.305 2079.22 152.486 Q2077.22 153.666 2077.22 156.514 Q2077.22 158.782 2078.71 160.125 Q2080.21 161.444 2082.78 161.444 Q2086.32 161.444 2088.45 158.944 Q2090.6 156.421 2090.6 152.254 L2090.6 151.305 L2086.37 151.305 M2094.86 149.546 L2094.86 164.338 L2090.6 164.338 L2090.6 160.402 Q2089.15 162.763 2086.97 163.898 Q2084.79 165.009 2081.65 165.009 Q2077.66 165.009 2075.3 162.787 Q2072.97 160.541 2072.97 156.791 Q2072.97 152.416 2075.88 150.194 Q2078.82 147.972 2084.63 147.972 L2090.6 147.972 L2090.6 147.555 Q2090.6 144.615 2088.66 143.018 Q2086.74 141.398 2083.24 141.398 Q2081.02 141.398 2078.91 141.93 Q2076.81 142.463 2074.86 143.527 L2074.86 139.592 Q2077.2 138.69 2079.4 138.25 Q2081.6 137.787 2083.68 137.787 Q2089.31 137.787 2092.09 140.703 Q2094.86 143.62 2094.86 149.546 Z" fill="#000000" fill-rule="nonzero" fill-opacity="1" /><path clip-path="url(#clip100)" d="M2107.85 131.051 L2107.85 138.412 L2116.62 138.412 L2116.62 141.722 L2107.85 141.722 L2107.85 155.796 Q2107.85 158.967 2108.71 159.87 Q2109.59 160.773 2112.25 160.773 L2116.62 160.773 L2116.62 164.338 L2112.25 164.338 Q2107.32 164.338 2105.44 162.509 Q2103.57 160.657 2103.57 155.796 L2103.57 141.722 L2100.44 141.722 L2100.44 138.412 L2103.57 138.412 L2103.57 131.051 L2107.85 131.051 Z" fill="#000000" fill-rule="nonzero" fill-opacity="1" /><path clip-path="url(#clip100)" d="M2134.01 151.305 Q2128.84 151.305 2126.85 152.486 Q2124.86 153.666 2124.86 156.514 Q2124.86 158.782 2126.34 160.125 Q2127.85 161.444 2130.42 161.444 Q2133.96 161.444 2136.09 158.944 Q2138.24 156.421 2138.24 152.254 L2138.24 151.305 L2134.01 151.305 M2142.5 149.546 L2142.5 164.338 L2138.24 164.338 L2138.24 160.402 Q2136.78 162.763 2134.61 163.898 Q2132.43 165.009 2129.28 165.009 Q2125.3 165.009 2122.94 162.787 Q2120.6 160.541 2120.6 156.791 Q2120.6 152.416 2123.52 150.194 Q2126.46 147.972 2132.27 147.972 L2138.24 147.972 L2138.24 147.555 Q2138.24 144.615 2136.3 143.018 Q2134.38 141.398 2130.88 141.398 Q2128.66 141.398 2126.55 141.93 Q2124.45 142.463 2122.5 143.527 L2122.5 139.592 Q2124.84 138.69 2127.04 138.25 Q2129.24 137.787 2131.32 137.787 Q2136.95 137.787 2139.72 140.703 Q2142.5 143.62 2142.5 149.546 Z" fill="#000000" fill-rule="nonzero" fill-opacity="1" /><path clip-path="url(#clip100)" d="M2151.27 128.319 L2155.53 128.319 L2155.53 164.338 L2151.27 164.338 L2151.27 128.319 Z" fill="#000000" fill-rule="nonzero" fill-opacity="1" /><path clip-path="url(#clip100)" d="M2164.45 138.412 L2168.71 138.412 L2168.71 164.338 L2164.45 164.338 L2164.45 138.412 M2164.45 128.319 L2168.71 128.319 L2168.71 133.713 L2164.45 133.713 L2164.45 128.319 Z" fill="#000000" fill-rule="nonzero" fill-opacity="1" /><path clip-path="url(#clip100)" d="M2181.83 131.051 L2181.83 138.412 L2190.6 138.412 L2190.6 141.722 L2181.83 141.722 L2181.83 155.796 Q2181.83 158.967 2182.69 159.87 Q2183.57 160.773 2186.23 160.773 L2190.6 160.773 L2190.6 164.338 L2186.23 164.338 Q2181.3 164.338 2179.42 162.509 Q2177.55 160.657 2177.55 155.796 L2177.55 141.722 L2174.42 141.722 L2174.42 138.412 L2177.55 138.412 L2177.55 131.051 L2181.83 131.051 Z" fill="#000000" fill-rule="nonzero" fill-opacity="1" /><path clip-path="url(#clip100)" d="M2196.21 138.412 L2200.46 138.412 L2200.46 164.338 L2196.21 164.338 L2196.21 138.412 M2196.21 128.319 L2200.46 128.319 L2200.46 133.713 L2196.21 133.713 L2196.21 128.319 Z" fill="#000000" fill-rule="nonzero" fill-opacity="1" /><path clip-path="url(#clip100)" d="M2231.55 150.31 L2231.55 152.393 L2211.97 152.393 Q2212.25 156.791 2214.61 159.106 Q2216.99 161.398 2221.23 161.398 Q2223.68 161.398 2225.97 160.796 Q2228.29 160.194 2230.56 158.99 L2230.56 163.018 Q2228.27 163.99 2225.86 164.5 Q2223.45 165.009 2220.97 165.009 Q2214.77 165.009 2211.14 161.398 Q2207.52 157.787 2207.52 151.629 Q2207.52 145.264 2210.95 141.537 Q2214.4 137.787 2220.23 137.787 Q2225.46 137.787 2228.5 141.166 Q2231.55 144.523 2231.55 150.31 M2227.29 149.06 Q2227.25 145.565 2225.33 143.481 Q2223.43 141.398 2220.28 141.398 Q2216.71 141.398 2214.56 143.412 Q2212.43 145.426 2212.11 149.083 L2227.29 149.06 Z" fill="#000000" fill-rule="nonzero" fill-opacity="1" /><path clip-path="url(#clip100)" d="M2255.07 139.176 L2255.07 143.203 Q2253.27 142.277 2251.32 141.815 Q2249.38 141.352 2247.29 141.352 Q2244.12 141.352 2242.52 142.324 Q2240.95 143.296 2240.95 145.24 Q2240.95 146.722 2242.08 147.578 Q2243.22 148.412 2246.64 149.176 L2248.1 149.5 Q2252.64 150.472 2254.54 152.254 Q2256.46 154.014 2256.46 157.185 Q2256.46 160.796 2253.59 162.902 Q2250.74 165.009 2245.74 165.009 Q2243.66 165.009 2241.39 164.592 Q2239.14 164.199 2236.64 163.388 L2236.64 158.99 Q2239.01 160.217 2241.3 160.842 Q2243.59 161.444 2245.83 161.444 Q2248.84 161.444 2250.46 160.426 Q2252.08 159.384 2252.08 157.509 Q2252.08 155.773 2250.9 154.847 Q2249.75 153.921 2245.79 153.064 L2244.31 152.717 Q2240.35 151.884 2238.59 150.171 Q2236.83 148.435 2236.83 145.426 Q2236.83 141.768 2239.42 139.778 Q2242.02 137.787 2246.78 137.787 Q2249.14 137.787 2251.23 138.134 Q2253.31 138.481 2255.07 139.176 Z" fill="#000000" fill-rule="nonzero" fill-opacity="1" /></svg>
