<?xml version="1.0" encoding="utf-8"?>
<svg xmlns="http://www.w3.org/2000/svg" xmlns:xlink="http://www.w3.org/1999/xlink" width="600" height="400" viewBox="0 0 2400 1600">
<defs>
  <clipPath id="clip160">
    <rect x="0" y="0" width="2400" height="1600"/>
  </clipPath>
</defs>
<path clip-path="url(#clip160)" d="M0 1600 L2400 1600 L2400 0 L0 0  Z" fill="#ffffff" fill-rule="evenodd" fill-opacity="1"/>
<defs>
  <clipPath id="clip161">
    <rect x="480" y="0" width="1681" height="1600"/>
  </clipPath>
</defs>
<path clip-path="url(#clip160)" d="M224.26 1486.45 L2352.76 1486.45 L2352.76 47.2441 L224.26 47.2441  Z" fill="#ffffff" fill-rule="evenodd" fill-opacity="1"/>
<defs>
  <clipPath id="clip162">
    <rect x="224" y="47" width="2129" height="1440"/>
  </clipPath>
</defs>
<polyline clip-path="url(#clip162)" style="stroke:#000000; stroke-linecap:round; stroke-linejoin:round; stroke-width:2; stroke-opacity:0.1; fill:none" points="284.5,1486.45 284.5,47.2441 "/>
<polyline clip-path="url(#clip162)" style="stroke:#000000; stroke-linecap:round; stroke-linejoin:round; stroke-width:2; stroke-opacity:0.1; fill:none" points="892.99,1486.45 892.99,47.2441 "/>
<polyline clip-path="url(#clip162)" style="stroke:#000000; stroke-linecap:round; stroke-linejoin:round; stroke-width:2; stroke-opacity:0.1; fill:none" points="1501.48,1486.45 1501.48,47.2441 "/>
<polyline clip-path="url(#clip162)" style="stroke:#000000; stroke-linecap:round; stroke-linejoin:round; stroke-width:2; stroke-opacity:0.1; fill:none" points="2109.97,1486.45 2109.97,47.2441 "/>
<polyline clip-path="url(#clip162)" style="stroke:#000000; stroke-linecap:round; stroke-linejoin:round; stroke-width:2; stroke-opacity:0.1; fill:none" points="224.26,1329.74 2352.76,1329.74 "/>
<polyline clip-path="url(#clip162)" style="stroke:#000000; stroke-linecap:round; stroke-linejoin:round; stroke-width:2; stroke-opacity:0.1; fill:none" points="224.26,1069.44 2352.76,1069.44 "/>
<polyline clip-path="url(#clip162)" style="stroke:#000000; stroke-linecap:round; stroke-linejoin:round; stroke-width:2; stroke-opacity:0.1; fill:none" points="224.26,809.138 2352.76,809.138 "/>
<polyline clip-path="url(#clip162)" style="stroke:#000000; stroke-linecap:round; stroke-linejoin:round; stroke-width:2; stroke-opacity:0.1; fill:none" points="224.26,548.838 2352.76,548.838 "/>
<polyline clip-path="url(#clip162)" style="stroke:#000000; stroke-linecap:round; stroke-linejoin:round; stroke-width:2; stroke-opacity:0.1; fill:none" points="224.26,288.538 2352.76,288.538 "/>
<polyline clip-path="url(#clip160)" style="stroke:#000000; stroke-linecap:round; stroke-linejoin:round; stroke-width:4; stroke-opacity:1; fill:none" points="224.26,1486.45 2352.76,1486.45 "/>
<polyline clip-path="url(#clip160)" style="stroke:#000000; stroke-linecap:round; stroke-linejoin:round; stroke-width:4; stroke-opacity:1; fill:none" points="284.5,1486.45 284.5,1467.55 "/>
<polyline clip-path="url(#clip160)" style="stroke:#000000; stroke-linecap:round; stroke-linejoin:round; stroke-width:4; stroke-opacity:1; fill:none" points="892.99,1486.45 892.99,1467.55 "/>
<polyline clip-path="url(#clip160)" style="stroke:#000000; stroke-linecap:round; stroke-linejoin:round; stroke-width:4; stroke-opacity:1; fill:none" points="1501.48,1486.45 1501.48,1467.55 "/>
<polyline clip-path="url(#clip160)" style="stroke:#000000; stroke-linecap:round; stroke-linejoin:round; stroke-width:4; stroke-opacity:1; fill:none" points="2109.97,1486.45 2109.97,1467.55 "/>
<path clip-path="url(#clip160)" d="M229.026 1544.91 L236.665 1544.91 L236.665 1518.55 L228.355 1520.21 L228.355 1515.95 L236.619 1514.29 L241.295 1514.29 L241.295 1544.91 L248.933 1544.91 L248.933 1548.85 L229.026 1548.85 L229.026 1544.91 Z" fill="#000000" fill-rule="nonzero" fill-opacity="1" /><path clip-path="url(#clip160)" d="M258.517 1548.13 L258.517 1543.87 Q260.276 1544.7 262.082 1545.14 Q263.887 1545.58 265.623 1545.58 Q270.253 1545.58 272.683 1542.48 Q275.137 1539.36 275.484 1533.01 Q274.142 1535.01 272.081 1536.07 Q270.021 1537.13 267.521 1537.13 Q262.336 1537.13 259.304 1534.01 Q256.294 1530.86 256.294 1525.42 Q256.294 1520.1 259.443 1516.88 Q262.591 1513.66 267.822 1513.66 Q273.818 1513.66 276.966 1518.27 Q280.137 1522.85 280.137 1531.6 Q280.137 1539.77 276.248 1544.66 Q272.382 1549.52 265.831 1549.52 Q264.072 1549.52 262.267 1549.17 Q260.461 1548.82 258.517 1548.13 M267.822 1533.48 Q270.97 1533.48 272.799 1531.32 Q274.651 1529.17 274.651 1525.42 Q274.651 1521.7 272.799 1519.54 Q270.97 1517.37 267.822 1517.37 Q264.674 1517.37 262.822 1519.54 Q260.994 1521.7 260.994 1525.42 Q260.994 1529.17 262.822 1531.32 Q264.674 1533.48 267.822 1533.48 Z" fill="#000000" fill-rule="nonzero" fill-opacity="1" /><path clip-path="url(#clip160)" d="M287.359 1514.29 L309.581 1514.29 L309.581 1516.28 L297.035 1548.85 L292.151 1548.85 L303.956 1518.22 L287.359 1518.22 L287.359 1514.29 Z" fill="#000000" fill-rule="nonzero" fill-opacity="1" /><path clip-path="url(#clip160)" d="M328.702 1517.37 Q325.09 1517.37 323.262 1520.93 Q321.456 1524.47 321.456 1531.6 Q321.456 1538.71 323.262 1542.27 Q325.09 1545.82 328.702 1545.82 Q332.336 1545.82 334.141 1542.27 Q335.97 1538.71 335.97 1531.6 Q335.97 1524.47 334.141 1520.93 Q332.336 1517.37 328.702 1517.37 M328.702 1513.66 Q334.512 1513.66 337.567 1518.27 Q340.646 1522.85 340.646 1531.6 Q340.646 1540.33 337.567 1544.94 Q334.512 1549.52 328.702 1549.52 Q322.891 1549.52 319.813 1544.94 Q316.757 1540.33 316.757 1531.6 Q316.757 1522.85 319.813 1518.27 Q322.891 1513.66 328.702 1513.66 Z" fill="#000000" fill-rule="nonzero" fill-opacity="1" /><path clip-path="url(#clip160)" d="M837.516 1544.91 L845.154 1544.91 L845.154 1518.55 L836.844 1520.21 L836.844 1515.95 L845.108 1514.29 L849.784 1514.29 L849.784 1544.91 L857.423 1544.91 L857.423 1548.85 L837.516 1548.85 L837.516 1544.91 Z" fill="#000000" fill-rule="nonzero" fill-opacity="1" /><path clip-path="url(#clip160)" d="M867.006 1548.13 L867.006 1543.87 Q868.765 1544.7 870.571 1545.14 Q872.376 1545.58 874.113 1545.58 Q878.742 1545.58 881.173 1542.48 Q883.626 1539.36 883.974 1533.01 Q882.631 1535.01 880.571 1536.07 Q878.511 1537.13 876.011 1537.13 Q870.826 1537.13 867.793 1534.01 Q864.784 1530.86 864.784 1525.42 Q864.784 1520.1 867.932 1516.88 Q871.08 1513.66 876.312 1513.66 Q882.307 1513.66 885.455 1518.27 Q888.626 1522.85 888.626 1531.6 Q888.626 1539.77 884.738 1544.66 Q880.872 1549.52 874.321 1549.52 Q872.562 1549.52 870.756 1549.17 Q868.951 1548.82 867.006 1548.13 M876.312 1533.48 Q879.46 1533.48 881.288 1531.32 Q883.14 1529.17 883.14 1525.42 Q883.14 1521.7 881.288 1519.54 Q879.46 1517.37 876.312 1517.37 Q873.164 1517.37 871.312 1519.54 Q869.483 1521.7 869.483 1525.42 Q869.483 1529.17 871.312 1531.32 Q873.164 1533.48 876.312 1533.48 Z" fill="#000000" fill-rule="nonzero" fill-opacity="1" /><path clip-path="url(#clip160)" d="M907.029 1532.44 Q903.696 1532.44 901.774 1534.22 Q899.876 1536 899.876 1539.13 Q899.876 1542.25 901.774 1544.03 Q903.696 1545.82 907.029 1545.82 Q910.362 1545.82 912.284 1544.03 Q914.205 1542.23 914.205 1539.13 Q914.205 1536 912.284 1534.22 Q910.386 1532.44 907.029 1532.44 M902.353 1530.45 Q899.344 1529.7 897.654 1527.64 Q895.987 1525.58 895.987 1522.62 Q895.987 1518.48 898.927 1516.07 Q901.89 1513.66 907.029 1513.66 Q912.191 1513.66 915.131 1516.07 Q918.071 1518.48 918.071 1522.62 Q918.071 1525.58 916.381 1527.64 Q914.714 1529.7 911.728 1530.45 Q915.108 1531.23 916.983 1533.52 Q918.881 1535.82 918.881 1539.13 Q918.881 1544.15 915.802 1546.83 Q912.747 1549.52 907.029 1549.52 Q901.311 1549.52 898.233 1546.83 Q895.177 1544.15 895.177 1539.13 Q895.177 1535.82 897.075 1533.52 Q898.974 1531.23 902.353 1530.45 M900.64 1523.06 Q900.64 1525.75 902.307 1527.25 Q903.997 1528.76 907.029 1528.76 Q910.038 1528.76 911.728 1527.25 Q913.441 1525.75 913.441 1523.06 Q913.441 1520.38 911.728 1518.87 Q910.038 1517.37 907.029 1517.37 Q903.997 1517.37 902.307 1518.87 Q900.64 1520.38 900.64 1523.06 Z" fill="#000000" fill-rule="nonzero" fill-opacity="1" /><path clip-path="url(#clip160)" d="M937.191 1517.37 Q933.58 1517.37 931.751 1520.93 Q929.946 1524.47 929.946 1531.6 Q929.946 1538.71 931.751 1542.27 Q933.58 1545.82 937.191 1545.82 Q940.825 1545.82 942.631 1542.27 Q944.459 1538.71 944.459 1531.6 Q944.459 1524.47 942.631 1520.93 Q940.825 1517.37 937.191 1517.37 M937.191 1513.66 Q943.001 1513.66 946.057 1518.27 Q949.135 1522.85 949.135 1531.6 Q949.135 1540.33 946.057 1544.94 Q943.001 1549.52 937.191 1549.52 Q931.381 1549.52 928.302 1544.94 Q925.247 1540.33 925.247 1531.6 Q925.247 1522.85 928.302 1518.27 Q931.381 1513.66 937.191 1513.66 Z" fill="#000000" fill-rule="nonzero" fill-opacity="1" /><path clip-path="url(#clip160)" d="M1446 1544.91 L1453.64 1544.91 L1453.64 1518.55 L1445.33 1520.21 L1445.33 1515.95 L1453.6 1514.29 L1458.27 1514.29 L1458.27 1544.91 L1465.91 1544.91 L1465.91 1548.85 L1446 1548.85 L1446 1544.91 Z" fill="#000000" fill-rule="nonzero" fill-opacity="1" /><path clip-path="url(#clip160)" d="M1475.5 1548.13 L1475.5 1543.87 Q1477.25 1544.7 1479.06 1545.14 Q1480.87 1545.58 1482.6 1545.58 Q1487.23 1545.58 1489.66 1542.48 Q1492.12 1539.36 1492.46 1533.01 Q1491.12 1535.01 1489.06 1536.07 Q1487 1537.13 1484.5 1537.13 Q1479.31 1537.13 1476.28 1534.01 Q1473.27 1530.86 1473.27 1525.42 Q1473.27 1520.1 1476.42 1516.88 Q1479.57 1513.66 1484.8 1513.66 Q1490.8 1513.66 1493.94 1518.27 Q1497.12 1522.85 1497.12 1531.6 Q1497.12 1539.77 1493.23 1544.66 Q1489.36 1549.52 1482.81 1549.52 Q1481.05 1549.52 1479.25 1549.17 Q1477.44 1548.82 1475.5 1548.13 M1484.8 1533.48 Q1487.95 1533.48 1489.78 1531.32 Q1491.63 1529.17 1491.63 1525.42 Q1491.63 1521.7 1489.78 1519.54 Q1487.95 1517.37 1484.8 1517.37 Q1481.65 1517.37 1479.8 1519.54 Q1477.97 1521.7 1477.97 1525.42 Q1477.97 1529.17 1479.8 1531.32 Q1481.65 1533.48 1484.8 1533.48 Z" fill="#000000" fill-rule="nonzero" fill-opacity="1" /><path clip-path="url(#clip160)" d="M1505.66 1548.13 L1505.66 1543.87 Q1507.42 1544.7 1509.22 1545.14 Q1511.03 1545.58 1512.76 1545.58 Q1517.39 1545.58 1519.82 1542.48 Q1522.28 1539.36 1522.62 1533.01 Q1521.28 1535.01 1519.22 1536.07 Q1517.16 1537.13 1514.66 1537.13 Q1509.48 1537.13 1506.44 1534.01 Q1503.44 1530.86 1503.44 1525.42 Q1503.44 1520.1 1506.58 1516.88 Q1509.73 1513.66 1514.96 1513.66 Q1520.96 1513.66 1524.11 1518.27 Q1527.28 1522.85 1527.28 1531.6 Q1527.28 1539.77 1523.39 1544.66 Q1519.52 1549.52 1512.97 1549.52 Q1511.21 1549.52 1509.41 1549.17 Q1507.6 1548.82 1505.66 1548.13 M1514.96 1533.48 Q1518.11 1533.48 1519.94 1531.32 Q1521.79 1529.17 1521.79 1525.42 Q1521.79 1521.7 1519.94 1519.54 Q1518.11 1517.37 1514.96 1517.37 Q1511.81 1517.37 1509.96 1519.54 Q1508.13 1521.7 1508.13 1525.42 Q1508.13 1529.17 1509.96 1531.32 Q1511.81 1533.48 1514.96 1533.48 Z" fill="#000000" fill-rule="nonzero" fill-opacity="1" /><path clip-path="url(#clip160)" d="M1545.68 1517.37 Q1542.07 1517.37 1540.24 1520.93 Q1538.44 1524.47 1538.44 1531.6 Q1538.44 1538.71 1540.24 1542.27 Q1542.07 1545.82 1545.68 1545.82 Q1549.31 1545.82 1551.12 1542.27 Q1552.95 1538.71 1552.95 1531.6 Q1552.95 1524.47 1551.12 1520.93 Q1549.31 1517.37 1545.68 1517.37 M1545.68 1513.66 Q1551.49 1513.66 1554.55 1518.27 Q1557.62 1522.85 1557.62 1531.6 Q1557.62 1540.33 1554.55 1544.94 Q1551.49 1549.52 1545.68 1549.52 Q1539.87 1549.52 1536.79 1544.94 Q1533.74 1540.33 1533.74 1531.6 Q1533.74 1522.85 1536.79 1518.27 Q1539.87 1513.66 1545.68 1513.66 Z" fill="#000000" fill-rule="nonzero" fill-opacity="1" /><path clip-path="url(#clip160)" d="M2058.58 1544.91 L2074.9 1544.91 L2074.9 1548.85 L2052.96 1548.85 L2052.96 1544.91 Q2055.62 1542.16 2060.2 1537.53 Q2064.81 1532.88 2065.99 1531.53 Q2068.23 1529.01 2069.11 1527.27 Q2070.02 1525.51 2070.02 1523.82 Q2070.02 1521.07 2068.07 1519.33 Q2066.15 1517.6 2063.05 1517.6 Q2060.85 1517.6 2058.39 1518.36 Q2055.96 1519.13 2053.19 1520.68 L2053.19 1515.95 Q2056.01 1514.82 2058.46 1514.24 Q2060.92 1513.66 2062.95 1513.66 Q2068.33 1513.66 2071.52 1516.35 Q2074.71 1519.03 2074.71 1523.52 Q2074.71 1525.65 2073.9 1527.57 Q2073.12 1529.47 2071.01 1532.07 Q2070.43 1532.74 2067.33 1535.95 Q2064.23 1539.15 2058.58 1544.91 Z" fill="#000000" fill-rule="nonzero" fill-opacity="1" /><path clip-path="url(#clip160)" d="M2094.71 1517.37 Q2091.1 1517.37 2089.27 1520.93 Q2087.47 1524.47 2087.47 1531.6 Q2087.47 1538.71 2089.27 1542.27 Q2091.1 1545.82 2094.71 1545.82 Q2098.35 1545.82 2100.15 1542.27 Q2101.98 1538.71 2101.98 1531.6 Q2101.98 1524.47 2100.15 1520.93 Q2098.35 1517.37 2094.71 1517.37 M2094.71 1513.66 Q2100.52 1513.66 2103.58 1518.27 Q2106.66 1522.85 2106.66 1531.6 Q2106.66 1540.33 2103.58 1544.94 Q2100.52 1549.52 2094.71 1549.52 Q2088.9 1549.52 2085.83 1544.94 Q2082.77 1540.33 2082.77 1531.6 Q2082.77 1522.85 2085.83 1518.27 Q2088.9 1513.66 2094.71 1513.66 Z" fill="#000000" fill-rule="nonzero" fill-opacity="1" /><path clip-path="url(#clip160)" d="M2124.88 1517.37 Q2121.26 1517.37 2119.44 1520.93 Q2117.63 1524.47 2117.63 1531.6 Q2117.63 1538.71 2119.44 1542.27 Q2121.26 1545.82 2124.88 1545.82 Q2128.51 1545.82 2130.32 1542.27 Q2132.14 1538.71 2132.14 1531.6 Q2132.14 1524.47 2130.32 1520.93 Q2128.51 1517.37 2124.88 1517.37 M2124.88 1513.66 Q2130.69 1513.66 2133.74 1518.27 Q2136.82 1522.85 2136.82 1531.6 Q2136.82 1540.33 2133.74 1544.94 Q2130.69 1549.52 2124.88 1549.52 Q2119.07 1549.52 2115.99 1544.94 Q2112.93 1540.33 2112.93 1531.6 Q2112.93 1522.85 2115.99 1518.27 Q2119.07 1513.66 2124.88 1513.66 Z" fill="#000000" fill-rule="nonzero" fill-opacity="1" /><path clip-path="url(#clip160)" d="M2155.04 1517.37 Q2151.43 1517.37 2149.6 1520.93 Q2147.79 1524.47 2147.79 1531.6 Q2147.79 1538.71 2149.6 1542.27 Q2151.43 1545.82 2155.04 1545.82 Q2158.67 1545.82 2160.48 1542.27 Q2162.31 1538.71 2162.31 1531.6 Q2162.31 1524.47 2160.48 1520.93 Q2158.67 1517.37 2155.04 1517.37 M2155.04 1513.66 Q2160.85 1513.66 2163.9 1518.27 Q2166.98 1522.85 2166.98 1531.6 Q2166.98 1540.33 2163.9 1544.94 Q2160.85 1549.52 2155.04 1549.52 Q2149.23 1549.52 2146.15 1544.94 Q2143.09 1540.33 2143.09 1531.6 Q2143.09 1522.85 2146.15 1518.27 Q2149.23 1513.66 2155.04 1513.66 Z" fill="#000000" fill-rule="nonzero" fill-opacity="1" /><polyline clip-path="url(#clip160)" style="stroke:#000000; stroke-linecap:round; stroke-linejoin:round; stroke-width:4; stroke-opacity:1; fill:none" points="224.26,1486.45 224.26,47.2441 "/>
<polyline clip-path="url(#clip160)" style="stroke:#000000; stroke-linecap:round; stroke-linejoin:round; stroke-width:4; stroke-opacity:1; fill:none" points="224.26,1329.74 243.158,1329.74 "/>
<polyline clip-path="url(#clip160)" style="stroke:#000000; stroke-linecap:round; stroke-linejoin:round; stroke-width:4; stroke-opacity:1; fill:none" points="224.26,1069.44 243.158,1069.44 "/>
<polyline clip-path="url(#clip160)" style="stroke:#000000; stroke-linecap:round; stroke-linejoin:round; stroke-width:4; stroke-opacity:1; fill:none" points="224.26,809.138 243.158,809.138 "/>
<polyline clip-path="url(#clip160)" style="stroke:#000000; stroke-linecap:round; stroke-linejoin:round; stroke-width:4; stroke-opacity:1; fill:none" points="224.26,548.838 243.158,548.838 "/>
<polyline clip-path="url(#clip160)" style="stroke:#000000; stroke-linecap:round; stroke-linejoin:round; stroke-width:4; stroke-opacity:1; fill:none" points="224.26,288.538 243.158,288.538 "/>
<path clip-path="url(#clip160)" d="M51.3393 1330.19 L81.0151 1330.19 L81.0151 1334.12 L51.3393 1334.12 L51.3393 1330.19 Z" fill="#000000" fill-rule="nonzero" fill-opacity="1" /><path clip-path="url(#clip160)" d="M101.108 1315.54 Q97.4965 1315.54 95.6678 1319.1 Q93.8623 1322.64 93.8623 1329.77 Q93.8623 1336.88 95.6678 1340.44 Q97.4965 1343.99 101.108 1343.99 Q104.742 1343.99 106.547 1340.44 Q108.376 1336.88 108.376 1329.77 Q108.376 1322.64 106.547 1319.1 Q104.742 1315.54 101.108 1315.54 M101.108 1311.83 Q106.918 1311.83 109.973 1316.44 Q113.052 1321.02 113.052 1329.77 Q113.052 1338.5 109.973 1343.11 Q106.918 1347.69 101.108 1347.69 Q95.2974 1347.69 92.2188 1343.11 Q89.1632 1338.5 89.1632 1329.77 Q89.1632 1321.02 92.2188 1316.44 Q95.2974 1311.83 101.108 1311.83 Z" fill="#000000" fill-rule="nonzero" fill-opacity="1" /><path clip-path="url(#clip160)" d="M121.27 1341.14 L126.154 1341.14 L126.154 1347.02 L121.27 1347.02 L121.27 1341.14 Z" fill="#000000" fill-rule="nonzero" fill-opacity="1" /><path clip-path="url(#clip160)" d="M146.339 1315.54 Q142.728 1315.54 140.899 1319.1 Q139.094 1322.64 139.094 1329.77 Q139.094 1336.88 140.899 1340.44 Q142.728 1343.99 146.339 1343.99 Q149.973 1343.99 151.779 1340.44 Q153.607 1336.88 153.607 1329.77 Q153.607 1322.64 151.779 1319.1 Q149.973 1315.54 146.339 1315.54 M146.339 1311.83 Q152.149 1311.83 155.205 1316.44 Q158.283 1321.02 158.283 1329.77 Q158.283 1338.5 155.205 1343.11 Q152.149 1347.69 146.339 1347.69 Q140.529 1347.69 137.45 1343.11 Q134.394 1338.5 134.394 1329.77 Q134.394 1321.02 137.45 1316.44 Q140.529 1311.83 146.339 1311.83 Z" fill="#000000" fill-rule="nonzero" fill-opacity="1" /><path clip-path="url(#clip160)" d="M166.64 1346.3 L166.64 1342.04 Q168.399 1342.87 170.204 1343.31 Q172.01 1343.75 173.746 1343.75 Q178.376 1343.75 180.806 1340.65 Q183.26 1337.53 183.607 1331.18 Q182.265 1333.18 180.204 1334.24 Q178.144 1335.3 175.644 1335.3 Q170.459 1335.3 167.427 1332.18 Q164.417 1329.03 164.417 1323.59 Q164.417 1318.27 167.566 1315.05 Q170.714 1311.83 175.945 1311.83 Q181.94 1311.83 185.089 1316.44 Q188.26 1321.02 188.26 1329.77 Q188.26 1337.94 184.371 1342.83 Q180.505 1347.69 173.954 1347.69 Q172.195 1347.69 170.39 1347.34 Q168.584 1346.99 166.64 1346.3 M175.945 1331.65 Q179.093 1331.65 180.922 1329.49 Q182.774 1327.34 182.774 1323.59 Q182.774 1319.87 180.922 1317.71 Q179.093 1315.54 175.945 1315.54 Q172.797 1315.54 170.945 1317.71 Q169.116 1319.87 169.116 1323.59 Q169.116 1327.34 170.945 1329.49 Q172.797 1331.65 175.945 1331.65 Z" fill="#000000" fill-rule="nonzero" fill-opacity="1" /><path clip-path="url(#clip160)" d="M50.9921 1069.89 L80.6679 1069.89 L80.6679 1073.82 L50.9921 1073.82 L50.9921 1069.89 Z" fill="#000000" fill-rule="nonzero" fill-opacity="1" /><path clip-path="url(#clip160)" d="M100.76 1055.24 Q97.1493 1055.24 95.3206 1058.8 Q93.515 1062.34 93.515 1069.47 Q93.515 1076.58 95.3206 1080.14 Q97.1493 1083.69 100.76 1083.69 Q104.395 1083.69 106.2 1080.14 Q108.029 1076.58 108.029 1069.47 Q108.029 1062.34 106.2 1058.8 Q104.395 1055.24 100.76 1055.24 M100.76 1051.53 Q106.571 1051.53 109.626 1056.14 Q112.705 1060.72 112.705 1069.47 Q112.705 1078.2 109.626 1082.81 Q106.571 1087.39 100.76 1087.39 Q94.9502 1087.39 91.8715 1082.81 Q88.816 1078.2 88.816 1069.47 Q88.816 1060.72 91.8715 1056.14 Q94.9502 1051.53 100.76 1051.53 Z" fill="#000000" fill-rule="nonzero" fill-opacity="1" /><path clip-path="url(#clip160)" d="M120.922 1080.84 L125.807 1080.84 L125.807 1086.72 L120.922 1086.72 L120.922 1080.84 Z" fill="#000000" fill-rule="nonzero" fill-opacity="1" /><path clip-path="url(#clip160)" d="M145.992 1055.24 Q142.381 1055.24 140.552 1058.8 Q138.746 1062.34 138.746 1069.47 Q138.746 1076.58 140.552 1080.14 Q142.381 1083.69 145.992 1083.69 Q149.626 1083.69 151.431 1080.14 Q153.26 1076.58 153.26 1069.47 Q153.26 1062.34 151.431 1058.8 Q149.626 1055.24 145.992 1055.24 M145.992 1051.53 Q151.802 1051.53 154.857 1056.14 Q157.936 1060.72 157.936 1069.47 Q157.936 1078.2 154.857 1082.81 Q151.802 1087.39 145.992 1087.39 Q140.181 1087.39 137.103 1082.81 Q134.047 1078.2 134.047 1069.47 Q134.047 1060.72 137.103 1056.14 Q140.181 1051.53 145.992 1051.53 Z" fill="#000000" fill-rule="nonzero" fill-opacity="1" /><path clip-path="url(#clip160)" d="M176.732 1067.57 Q173.584 1067.57 171.732 1069.73 Q169.904 1071.88 169.904 1075.63 Q169.904 1079.36 171.732 1081.53 Q173.584 1083.69 176.732 1083.69 Q179.88 1083.69 181.709 1081.53 Q183.561 1079.36 183.561 1075.63 Q183.561 1071.88 181.709 1069.73 Q179.88 1067.57 176.732 1067.57 M186.015 1052.92 L186.015 1057.18 Q184.255 1056.35 182.45 1055.91 Q180.667 1055.47 178.908 1055.47 Q174.279 1055.47 171.825 1058.59 Q169.394 1061.72 169.047 1068.04 Q170.413 1066.02 172.473 1064.96 Q174.533 1063.87 177.01 1063.87 Q182.218 1063.87 185.228 1067.04 Q188.26 1070.19 188.26 1075.63 Q188.26 1080.95 185.112 1084.17 Q181.964 1087.39 176.732 1087.39 Q170.737 1087.39 167.566 1082.81 Q164.394 1078.2 164.394 1069.47 Q164.394 1061.28 168.283 1056.42 Q172.172 1051.53 178.723 1051.53 Q180.482 1051.53 182.265 1051.88 Q184.07 1052.23 186.015 1052.92 Z" fill="#000000" fill-rule="nonzero" fill-opacity="1" /><path clip-path="url(#clip160)" d="M51.8023 809.589 L81.4781 809.589 L81.4781 813.524 L51.8023 813.524 L51.8023 809.589 Z" fill="#000000" fill-rule="nonzero" fill-opacity="1" /><path clip-path="url(#clip160)" d="M101.571 794.936 Q97.9595 794.936 96.1308 798.501 Q94.3252 802.043 94.3252 809.172 Q94.3252 816.279 96.1308 819.844 Q97.9595 823.385 101.571 823.385 Q105.205 823.385 107.01 819.844 Q108.839 816.279 108.839 809.172 Q108.839 802.043 107.01 798.501 Q105.205 794.936 101.571 794.936 M101.571 791.233 Q107.381 791.233 110.436 795.839 Q113.515 800.422 113.515 809.172 Q113.515 817.899 110.436 822.506 Q107.381 827.089 101.571 827.089 Q95.7604 827.089 92.6817 822.506 Q89.6262 817.899 89.6262 809.172 Q89.6262 800.422 92.6817 795.839 Q95.7604 791.233 101.571 791.233 Z" fill="#000000" fill-rule="nonzero" fill-opacity="1" /><path clip-path="url(#clip160)" d="M121.732 820.538 L126.617 820.538 L126.617 826.418 L121.732 826.418 L121.732 820.538 Z" fill="#000000" fill-rule="nonzero" fill-opacity="1" /><path clip-path="url(#clip160)" d="M146.802 794.936 Q143.191 794.936 141.362 798.501 Q139.556 802.043 139.556 809.172 Q139.556 816.279 141.362 819.844 Q143.191 823.385 146.802 823.385 Q150.436 823.385 152.242 819.844 Q154.07 816.279 154.07 809.172 Q154.07 802.043 152.242 798.501 Q150.436 794.936 146.802 794.936 M146.802 791.233 Q152.612 791.233 155.667 795.839 Q158.746 800.422 158.746 809.172 Q158.746 817.899 155.667 822.506 Q152.612 827.089 146.802 827.089 Q140.992 827.089 137.913 822.506 Q134.857 817.899 134.857 809.172 Q134.857 800.422 137.913 795.839 Q140.992 791.233 146.802 791.233 Z" fill="#000000" fill-rule="nonzero" fill-opacity="1" /><path clip-path="url(#clip160)" d="M181.13 807.784 Q184.487 808.501 186.362 810.77 Q188.26 813.038 188.26 816.371 Q188.26 821.487 184.741 824.288 Q181.223 827.089 174.741 827.089 Q172.566 827.089 170.251 826.649 Q167.959 826.233 165.505 825.376 L165.505 820.862 Q167.45 821.996 169.765 822.575 Q172.079 823.154 174.603 823.154 Q179.001 823.154 181.292 821.418 Q183.607 819.682 183.607 816.371 Q183.607 813.316 181.454 811.603 Q179.325 809.867 175.505 809.867 L171.478 809.867 L171.478 806.024 L175.691 806.024 Q179.14 806.024 180.968 804.659 Q182.797 803.27 182.797 800.677 Q182.797 798.015 180.899 796.603 Q179.024 795.168 175.505 795.168 Q173.584 795.168 171.385 795.585 Q169.186 796.001 166.547 796.881 L166.547 792.714 Q169.209 791.973 171.524 791.603 Q173.862 791.233 175.922 791.233 Q181.246 791.233 184.348 793.663 Q187.45 796.071 187.45 800.191 Q187.45 803.061 185.806 805.052 Q184.163 807.02 181.13 807.784 Z" fill="#000000" fill-rule="nonzero" fill-opacity="1" /><path clip-path="url(#clip160)" d="M100.922 534.636 Q97.3113 534.636 95.4826 538.201 Q93.6771 541.743 93.6771 548.872 Q93.6771 555.979 95.4826 559.544 Q97.3113 563.085 100.922 563.085 Q104.557 563.085 106.362 559.544 Q108.191 555.979 108.191 548.872 Q108.191 541.743 106.362 538.201 Q104.557 534.636 100.922 534.636 M100.922 530.933 Q106.733 530.933 109.788 535.539 Q112.867 540.122 112.867 548.872 Q112.867 557.599 109.788 562.206 Q106.733 566.789 100.922 566.789 Q95.1123 566.789 92.0336 562.206 Q88.978 557.599 88.978 548.872 Q88.978 540.122 92.0336 535.539 Q95.1123 530.933 100.922 530.933 Z" fill="#000000" fill-rule="nonzero" fill-opacity="1" /><path clip-path="url(#clip160)" d="M121.084 560.238 L125.969 560.238 L125.969 566.118 L121.084 566.118 L121.084 560.238 Z" fill="#000000" fill-rule="nonzero" fill-opacity="1" /><path clip-path="url(#clip160)" d="M146.154 534.636 Q142.543 534.636 140.714 538.201 Q138.908 541.743 138.908 548.872 Q138.908 555.979 140.714 559.544 Q142.543 563.085 146.154 563.085 Q149.788 563.085 151.593 559.544 Q153.422 555.979 153.422 548.872 Q153.422 541.743 151.593 538.201 Q149.788 534.636 146.154 534.636 M146.154 530.933 Q151.964 530.933 155.019 535.539 Q158.098 540.122 158.098 548.872 Q158.098 557.599 155.019 562.206 Q151.964 566.789 146.154 566.789 Q140.343 566.789 137.265 562.206 Q134.209 557.599 134.209 548.872 Q134.209 540.122 137.265 535.539 Q140.343 530.933 146.154 530.933 Z" fill="#000000" fill-rule="nonzero" fill-opacity="1" /><path clip-path="url(#clip160)" d="M176.316 534.636 Q172.704 534.636 170.876 538.201 Q169.07 541.743 169.07 548.872 Q169.07 555.979 170.876 559.544 Q172.704 563.085 176.316 563.085 Q179.95 563.085 181.755 559.544 Q183.584 555.979 183.584 548.872 Q183.584 541.743 181.755 538.201 Q179.95 534.636 176.316 534.636 M176.316 530.933 Q182.126 530.933 185.181 535.539 Q188.26 540.122 188.26 548.872 Q188.26 557.599 185.181 562.206 Q182.126 566.789 176.316 566.789 Q170.505 566.789 167.427 562.206 Q164.371 557.599 164.371 548.872 Q164.371 540.122 167.427 535.539 Q170.505 530.933 176.316 530.933 Z" fill="#000000" fill-rule="nonzero" fill-opacity="1" /><path clip-path="url(#clip160)" d="M101.571 274.336 Q97.9595 274.336 96.1308 277.901 Q94.3252 281.443 94.3252 288.572 Q94.3252 295.679 96.1308 299.244 Q97.9595 302.785 101.571 302.785 Q105.205 302.785 107.01 299.244 Q108.839 295.679 108.839 288.572 Q108.839 281.443 107.01 277.901 Q105.205 274.336 101.571 274.336 M101.571 270.633 Q107.381 270.633 110.436 275.239 Q113.515 279.822 113.515 288.572 Q113.515 297.299 110.436 301.906 Q107.381 306.489 101.571 306.489 Q95.7604 306.489 92.6817 301.906 Q89.6262 297.299 89.6262 288.572 Q89.6262 279.822 92.6817 275.239 Q95.7604 270.633 101.571 270.633 Z" fill="#000000" fill-rule="nonzero" fill-opacity="1" /><path clip-path="url(#clip160)" d="M121.732 299.938 L126.617 299.938 L126.617 305.818 L121.732 305.818 L121.732 299.938 Z" fill="#000000" fill-rule="nonzero" fill-opacity="1" /><path clip-path="url(#clip160)" d="M146.802 274.336 Q143.191 274.336 141.362 277.901 Q139.556 281.443 139.556 288.572 Q139.556 295.679 141.362 299.244 Q143.191 302.785 146.802 302.785 Q150.436 302.785 152.242 299.244 Q154.07 295.679 154.07 288.572 Q154.07 281.443 152.242 277.901 Q150.436 274.336 146.802 274.336 M146.802 270.633 Q152.612 270.633 155.667 275.239 Q158.746 279.822 158.746 288.572 Q158.746 297.299 155.667 301.906 Q152.612 306.489 146.802 306.489 Q140.992 306.489 137.913 301.906 Q134.857 297.299 134.857 288.572 Q134.857 279.822 137.913 275.239 Q140.992 270.633 146.802 270.633 Z" fill="#000000" fill-rule="nonzero" fill-opacity="1" /><path clip-path="url(#clip160)" d="M181.13 287.184 Q184.487 287.901 186.362 290.17 Q188.26 292.438 188.26 295.771 Q188.26 300.887 184.741 303.688 Q181.223 306.489 174.741 306.489 Q172.566 306.489 170.251 306.049 Q167.959 305.633 165.505 304.776 L165.505 300.262 Q167.45 301.396 169.765 301.975 Q172.079 302.554 174.603 302.554 Q179.001 302.554 181.292 300.818 Q183.607 299.082 183.607 295.771 Q183.607 292.716 181.454 291.003 Q179.325 289.267 175.505 289.267 L171.478 289.267 L171.478 285.424 L175.691 285.424 Q179.14 285.424 180.968 284.059 Q182.797 282.67 182.797 280.077 Q182.797 277.415 180.899 276.003 Q179.024 274.568 175.505 274.568 Q173.584 274.568 171.385 274.985 Q169.186 275.401 166.547 276.281 L166.547 272.114 Q169.209 271.373 171.524 271.003 Q173.862 270.633 175.922 270.633 Q181.246 270.633 184.348 273.063 Q187.45 275.471 187.45 279.591 Q187.45 282.461 185.806 284.452 Q184.163 286.42 181.13 287.184 Z" fill="#000000" fill-rule="nonzero" fill-opacity="1" /><polyline clip-path="url(#clip162)" style="stroke:#009af9; stroke-linecap:round; stroke-linejoin:round; stroke-width:4; stroke-opacity:1; fill:none" points="284.5,487.901 345.349,704.938 406.198,1050.38 467.047,1313.06 527.896,1301.3 588.745,1406.61 649.594,1445.72 710.443,1339.85 771.292,1103.81 832.141,1000.12 892.99,758.179 953.839,580.926 1014.69,540.136 1075.54,587.939 1136.39,431.022 1197.23,217.893 1258.08,153.842 1318.93,87.9763 1379.78,277.169 1440.63,711.853 1501.48,1024.39 1562.33,1283.29 1623.18,1438.83 1684.03,1297.65 1744.87,1142.87 1805.72,931.386 1866.57,688.185 1927.42,620.335 1988.27,529.82 2049.12,563.697 2109.97,566.032 2170.82,727.915 2231.67,858.604 2292.52,858.604 "/>
<path clip-path="url(#clip160)" d="M1947.92 198.898 L2281.81 198.898 L2281.81 95.2176 L1947.92 95.2176  Z" fill="#ffffff" fill-rule="evenodd" fill-opacity="1"/>
<polyline clip-path="url(#clip160)" style="stroke:#000000; stroke-linecap:round; stroke-linejoin:round; stroke-width:4; stroke-opacity:1; fill:none" points="1947.92,198.898 2281.81,198.898 2281.81,95.2176 1947.92,95.2176 1947.92,198.898 "/>
<polyline clip-path="url(#clip160)" style="stroke:#009af9; stroke-linecap:round; stroke-linejoin:round; stroke-width:4; stroke-opacity:1; fill:none" points="1971.57,147.058 2113.47,147.058 "/>
<path clip-path="url(#clip160)" d="M2155.54 139.176 L2155.54 143.203 Q2153.74 142.277 2151.79 141.815 Q2149.85 141.352 2147.76 141.352 Q2144.59 141.352 2142.99 142.324 Q2141.42 143.296 2141.42 145.24 Q2141.42 146.722 2142.55 147.578 Q2143.69 148.412 2147.12 149.176 L2148.57 149.5 Q2153.11 150.472 2155.01 152.254 Q2156.93 154.014 2156.93 157.185 Q2156.93 160.796 2154.06 162.902 Q2151.21 165.009 2146.21 165.009 Q2144.13 165.009 2141.86 164.592 Q2139.62 164.199 2137.12 163.388 L2137.12 158.99 Q2139.48 160.217 2141.77 160.842 Q2144.06 161.444 2146.3 161.444 Q2149.31 161.444 2150.93 160.426 Q2152.55 159.384 2152.55 157.509 Q2152.55 155.773 2151.37 154.847 Q2150.22 153.921 2146.26 153.064 L2144.78 152.717 Q2140.82 151.884 2139.06 150.171 Q2137.3 148.435 2137.3 145.426 Q2137.3 141.768 2139.89 139.778 Q2142.49 137.787 2147.25 137.787 Q2149.61 137.787 2151.7 138.134 Q2153.78 138.481 2155.54 139.176 Z" fill="#000000" fill-rule="nonzero" fill-opacity="1" /><path clip-path="url(#clip160)" d="M2163.71 128.319 L2167.97 128.319 L2167.97 164.338 L2163.71 164.338 L2163.71 128.319 Z" fill="#000000" fill-rule="nonzero" fill-opacity="1" /><path clip-path="url(#clip160)" d="M2186.93 141.398 Q2183.5 141.398 2181.51 144.083 Q2179.52 146.745 2179.52 151.398 Q2179.52 156.051 2181.49 158.736 Q2183.48 161.398 2186.93 161.398 Q2190.33 161.398 2192.32 158.713 Q2194.31 156.027 2194.31 151.398 Q2194.31 146.791 2192.32 144.106 Q2190.33 141.398 2186.93 141.398 M2186.93 137.787 Q2192.49 137.787 2195.66 141.398 Q2198.83 145.009 2198.83 151.398 Q2198.83 157.764 2195.66 161.398 Q2192.49 165.009 2186.93 165.009 Q2181.35 165.009 2178.18 161.398 Q2175.03 157.764 2175.03 151.398 Q2175.03 145.009 2178.18 141.398 Q2181.35 137.787 2186.93 137.787 Z" fill="#000000" fill-rule="nonzero" fill-opacity="1" /><path clip-path="url(#clip160)" d="M2210.01 160.449 L2210.01 174.199 L2205.73 174.199 L2205.73 138.412 L2210.01 138.412 L2210.01 142.347 Q2211.35 140.032 2213.39 138.921 Q2215.45 137.787 2218.3 137.787 Q2223.02 137.787 2225.96 141.537 Q2228.92 145.287 2228.92 151.398 Q2228.92 157.509 2225.96 161.259 Q2223.02 165.009 2218.3 165.009 Q2215.45 165.009 2213.39 163.898 Q2211.35 162.763 2210.01 160.449 M2224.5 151.398 Q2224.5 146.699 2222.55 144.037 Q2220.63 141.352 2217.25 141.352 Q2213.87 141.352 2211.93 144.037 Q2210.01 146.699 2210.01 151.398 Q2210.01 156.097 2211.93 158.782 Q2213.87 161.444 2217.25 161.444 Q2220.63 161.444 2222.55 158.782 Q2224.5 156.097 2224.5 151.398 Z" fill="#000000" fill-rule="nonzero" fill-opacity="1" /><path clip-path="url(#clip160)" d="M2258.16 150.31 L2258.16 152.393 L2238.57 152.393 Q2238.85 156.791 2241.21 159.106 Q2243.6 161.398 2247.83 161.398 Q2250.29 161.398 2252.58 160.796 Q2254.89 160.194 2257.16 158.99 L2257.16 163.018 Q2254.87 163.99 2252.46 164.5 Q2250.05 165.009 2247.58 165.009 Q2241.37 165.009 2237.74 161.398 Q2234.13 157.787 2234.13 151.629 Q2234.13 145.264 2237.55 141.537 Q2241 137.787 2246.84 137.787 Q2252.07 137.787 2255.1 141.166 Q2258.16 144.523 2258.16 150.31 M2253.9 149.06 Q2253.85 145.565 2251.93 143.481 Q2250.03 141.398 2246.88 141.398 Q2243.32 141.398 2241.17 143.412 Q2239.04 145.426 2238.71 149.083 L2253.9 149.06 Z" fill="#000000" fill-rule="nonzero" fill-opacity="1" /></svg>
