<?xml version="1.0" encoding="utf-8"?>
<svg xmlns="http://www.w3.org/2000/svg" xmlns:xlink="http://www.w3.org/1999/xlink" width="600" height="400" viewBox="0 0 2400 1600">
<defs>
  <clipPath id="clip980">
    <rect x="0" y="0" width="2400" height="1600"/>
  </clipPath>
</defs>
<path clip-path="url(#clip980)" d="M0 1600 L2400 1600 L2400 0 L0 0  Z" fill="#ffffff" fill-rule="evenodd" fill-opacity="1"/>
<defs>
  <clipPath id="clip981">
    <rect x="480" y="0" width="1681" height="1600"/>
  </clipPath>
</defs>
<path clip-path="url(#clip980)" d="M199.283 1486.45 L2352.76 1486.45 L2352.76 47.2441 L199.283 47.2441  Z" fill="#ffffff" fill-rule="evenodd" fill-opacity="1"/>
<defs>
  <clipPath id="clip982">
    <rect x="199" y="47" width="2154" height="1440"/>
  </clipPath>
</defs>
<polyline clip-path="url(#clip982)" style="stroke:#000000; stroke-linecap:round; stroke-linejoin:round; stroke-width:2; stroke-opacity:0.1; fill:none" points="219.216,1486.45 219.216,47.2441 "/>
<polyline clip-path="url(#clip982)" style="stroke:#000000; stroke-linecap:round; stroke-linejoin:round; stroke-width:2; stroke-opacity:0.1; fill:none" points="752.745,1486.45 752.745,47.2441 "/>
<polyline clip-path="url(#clip982)" style="stroke:#000000; stroke-linecap:round; stroke-linejoin:round; stroke-width:2; stroke-opacity:0.1; fill:none" points="1286.27,1486.45 1286.27,47.2441 "/>
<polyline clip-path="url(#clip982)" style="stroke:#000000; stroke-linecap:round; stroke-linejoin:round; stroke-width:2; stroke-opacity:0.1; fill:none" points="1819.8,1486.45 1819.8,47.2441 "/>
<polyline clip-path="url(#clip982)" style="stroke:#000000; stroke-linecap:round; stroke-linejoin:round; stroke-width:2; stroke-opacity:0.1; fill:none" points="199.283,1231.8 2352.76,1231.8 "/>
<polyline clip-path="url(#clip982)" style="stroke:#000000; stroke-linecap:round; stroke-linejoin:round; stroke-width:2; stroke-opacity:0.1; fill:none" points="199.283,934.707 2352.76,934.707 "/>
<polyline clip-path="url(#clip982)" style="stroke:#000000; stroke-linecap:round; stroke-linejoin:round; stroke-width:2; stroke-opacity:0.1; fill:none" points="199.283,637.608 2352.76,637.608 "/>
<polyline clip-path="url(#clip982)" style="stroke:#000000; stroke-linecap:round; stroke-linejoin:round; stroke-width:2; stroke-opacity:0.1; fill:none" points="199.283,340.51 2352.76,340.51 "/>
<polyline clip-path="url(#clip980)" style="stroke:#000000; stroke-linecap:round; stroke-linejoin:round; stroke-width:4; stroke-opacity:1; fill:none" points="199.283,1486.45 2352.76,1486.45 "/>
<polyline clip-path="url(#clip980)" style="stroke:#000000; stroke-linecap:round; stroke-linejoin:round; stroke-width:4; stroke-opacity:1; fill:none" points="219.216,1486.45 219.216,1467.55 "/>
<polyline clip-path="url(#clip980)" style="stroke:#000000; stroke-linecap:round; stroke-linejoin:round; stroke-width:4; stroke-opacity:1; fill:none" points="752.745,1486.45 752.745,1467.55 "/>
<polyline clip-path="url(#clip980)" style="stroke:#000000; stroke-linecap:round; stroke-linejoin:round; stroke-width:4; stroke-opacity:1; fill:none" points="1286.27,1486.45 1286.27,1467.55 "/>
<polyline clip-path="url(#clip980)" style="stroke:#000000; stroke-linecap:round; stroke-linejoin:round; stroke-width:4; stroke-opacity:1; fill:none" points="1819.8,1486.45 1819.8,1467.55 "/>
<path clip-path="url(#clip980)" d="M86.9248 1544.91 L94.5637 1544.91 L94.5637 1518.55 L86.2535 1520.21 L86.2535 1515.95 L94.5174 1514.29 L99.1933 1514.29 L99.1933 1544.91 L106.832 1544.91 L106.832 1548.85 L86.9248 1548.85 L86.9248 1544.91 Z" fill="#000000" fill-rule="nonzero" fill-opacity="1" /><path clip-path="url(#clip980)" d="M126.276 1532.44 Q122.943 1532.44 121.022 1534.22 Q119.124 1536 119.124 1539.13 Q119.124 1542.25 121.022 1544.03 Q122.943 1545.82 126.276 1545.82 Q129.61 1545.82 131.531 1544.03 Q133.452 1542.23 133.452 1539.13 Q133.452 1536 131.531 1534.22 Q129.633 1532.44 126.276 1532.44 M121.601 1530.45 Q118.591 1529.7 116.902 1527.64 Q115.235 1525.58 115.235 1522.62 Q115.235 1518.48 118.175 1516.07 Q121.138 1513.66 126.276 1513.66 Q131.438 1513.66 134.378 1516.07 Q137.318 1518.48 137.318 1522.62 Q137.318 1525.58 135.628 1527.64 Q133.962 1529.7 130.976 1530.45 Q134.355 1531.23 136.23 1533.52 Q138.128 1535.82 138.128 1539.13 Q138.128 1544.15 135.05 1546.83 Q131.994 1549.52 126.276 1549.52 Q120.559 1549.52 117.48 1546.83 Q114.425 1544.15 114.425 1539.13 Q114.425 1535.82 116.323 1533.52 Q118.221 1531.23 121.601 1530.45 M119.888 1523.06 Q119.888 1525.75 121.554 1527.25 Q123.244 1528.76 126.276 1528.76 Q129.286 1528.76 130.976 1527.25 Q132.688 1525.75 132.688 1523.06 Q132.688 1520.38 130.976 1518.87 Q129.286 1517.37 126.276 1517.37 Q123.244 1517.37 121.554 1518.87 Q119.888 1520.38 119.888 1523.06 Z" fill="#000000" fill-rule="nonzero" fill-opacity="1" /><path clip-path="url(#clip980)" d="M157.017 1529.7 Q153.869 1529.7 152.017 1531.86 Q150.188 1534.01 150.188 1537.76 Q150.188 1541.49 152.017 1543.66 Q153.869 1545.82 157.017 1545.82 Q160.165 1545.82 161.994 1543.66 Q163.846 1541.49 163.846 1537.76 Q163.846 1534.01 161.994 1531.86 Q160.165 1529.7 157.017 1529.7 M166.299 1515.05 L166.299 1519.31 Q164.54 1518.48 162.735 1518.04 Q160.952 1517.6 159.193 1517.6 Q154.563 1517.6 152.11 1520.72 Q149.679 1523.85 149.332 1530.17 Q150.698 1528.15 152.758 1527.09 Q154.818 1526 157.295 1526 Q162.503 1526 165.512 1529.17 Q168.545 1532.32 168.545 1537.76 Q168.545 1543.08 165.397 1546.3 Q162.249 1549.52 157.017 1549.52 Q151.022 1549.52 147.85 1544.94 Q144.679 1540.33 144.679 1531.6 Q144.679 1523.41 148.568 1518.55 Q152.457 1513.66 159.008 1513.66 Q160.767 1513.66 162.549 1514.01 Q164.355 1514.36 166.299 1515.05 Z" fill="#000000" fill-rule="nonzero" fill-opacity="1" /><path clip-path="url(#clip980)" d="M176.739 1548.13 L176.739 1543.87 Q178.498 1544.7 180.304 1545.14 Q182.11 1545.58 183.846 1545.58 Q188.475 1545.58 190.906 1542.48 Q193.359 1539.36 193.707 1533.01 Q192.364 1535.01 190.304 1536.07 Q188.244 1537.13 185.744 1537.13 Q180.559 1537.13 177.526 1534.01 Q174.517 1530.86 174.517 1525.42 Q174.517 1520.1 177.665 1516.88 Q180.813 1513.66 186.045 1513.66 Q192.04 1513.66 195.188 1518.27 Q198.359 1522.85 198.359 1531.6 Q198.359 1539.77 194.471 1544.66 Q190.605 1549.52 184.054 1549.52 Q182.295 1549.52 180.489 1549.17 Q178.684 1548.82 176.739 1548.13 M186.045 1533.48 Q189.193 1533.48 191.021 1531.32 Q192.873 1529.17 192.873 1525.42 Q192.873 1521.7 191.021 1519.54 Q189.193 1517.37 186.045 1517.37 Q182.897 1517.37 181.045 1519.54 Q179.216 1521.7 179.216 1525.42 Q179.216 1529.17 181.045 1531.32 Q182.897 1533.48 186.045 1533.48 Z" fill="#000000" fill-rule="nonzero" fill-opacity="1" /><path clip-path="url(#clip980)" d="M204.008 1533.96 L216.484 1533.96 L216.484 1537.76 L204.008 1537.76 L204.008 1533.96 Z" fill="#000000" fill-rule="nonzero" fill-opacity="1" /><path clip-path="url(#clip980)" d="M233.868 1517.37 Q230.257 1517.37 228.429 1520.93 Q226.623 1524.47 226.623 1531.6 Q226.623 1538.71 228.429 1542.27 Q230.257 1545.82 233.868 1545.82 Q237.503 1545.82 239.308 1542.27 Q241.137 1538.71 241.137 1531.6 Q241.137 1524.47 239.308 1520.93 Q237.503 1517.37 233.868 1517.37 M233.868 1513.66 Q239.679 1513.66 242.734 1518.27 Q245.813 1522.85 245.813 1531.6 Q245.813 1540.33 242.734 1544.94 Q239.679 1549.52 233.868 1549.52 Q228.058 1549.52 224.98 1544.94 Q221.924 1540.33 221.924 1531.6 Q221.924 1522.85 224.98 1518.27 Q228.058 1513.66 233.868 1513.66 Z" fill="#000000" fill-rule="nonzero" fill-opacity="1" /><path clip-path="url(#clip980)" d="M254.841 1544.91 L262.479 1544.91 L262.479 1518.55 L254.169 1520.21 L254.169 1515.95 L262.433 1514.29 L267.109 1514.29 L267.109 1544.91 L274.748 1544.91 L274.748 1548.85 L254.841 1548.85 L254.841 1544.91 Z" fill="#000000" fill-rule="nonzero" fill-opacity="1" /><path clip-path="url(#clip980)" d="M281.438 1533.96 L293.914 1533.96 L293.914 1537.76 L281.438 1537.76 L281.438 1533.96 Z" fill="#000000" fill-rule="nonzero" fill-opacity="1" /><path clip-path="url(#clip980)" d="M311.299 1517.37 Q307.688 1517.37 305.859 1520.93 Q304.053 1524.47 304.053 1531.6 Q304.053 1538.71 305.859 1542.27 Q307.688 1545.82 311.299 1545.82 Q314.933 1545.82 316.738 1542.27 Q318.567 1538.71 318.567 1531.6 Q318.567 1524.47 316.738 1520.93 Q314.933 1517.37 311.299 1517.37 M311.299 1513.66 Q317.109 1513.66 320.164 1518.27 Q323.243 1522.85 323.243 1531.6 Q323.243 1540.33 320.164 1544.94 Q317.109 1549.52 311.299 1549.52 Q305.488 1549.52 302.41 1544.94 Q299.354 1540.33 299.354 1531.6 Q299.354 1522.85 302.41 1518.27 Q305.488 1513.66 311.299 1513.66 Z" fill="#000000" fill-rule="nonzero" fill-opacity="1" /><path clip-path="url(#clip980)" d="M332.271 1544.91 L339.91 1544.91 L339.91 1518.55 L331.599 1520.21 L331.599 1515.95 L339.863 1514.29 L344.539 1514.29 L344.539 1544.91 L352.178 1544.91 L352.178 1548.85 L332.271 1548.85 L332.271 1544.91 Z" fill="#000000" fill-rule="nonzero" fill-opacity="1" /><path clip-path="url(#clip980)" d="M620.454 1544.91 L628.092 1544.91 L628.092 1518.55 L619.782 1520.21 L619.782 1515.95 L628.046 1514.29 L632.722 1514.29 L632.722 1544.91 L640.361 1544.91 L640.361 1548.85 L620.454 1548.85 L620.454 1544.91 Z" fill="#000000" fill-rule="nonzero" fill-opacity="1" /><path clip-path="url(#clip980)" d="M659.805 1532.44 Q656.472 1532.44 654.551 1534.22 Q652.652 1536 652.652 1539.13 Q652.652 1542.25 654.551 1544.03 Q656.472 1545.82 659.805 1545.82 Q663.139 1545.82 665.06 1544.03 Q666.981 1542.23 666.981 1539.13 Q666.981 1536 665.06 1534.22 Q663.162 1532.44 659.805 1532.44 M655.129 1530.45 Q652.12 1529.7 650.43 1527.64 Q648.764 1525.58 648.764 1522.62 Q648.764 1518.48 651.703 1516.07 Q654.666 1513.66 659.805 1513.66 Q664.967 1513.66 667.907 1516.07 Q670.847 1518.48 670.847 1522.62 Q670.847 1525.58 669.157 1527.64 Q667.49 1529.7 664.504 1530.45 Q667.884 1531.23 669.759 1533.52 Q671.657 1535.82 671.657 1539.13 Q671.657 1544.15 668.578 1546.83 Q665.523 1549.52 659.805 1549.52 Q654.088 1549.52 651.009 1546.83 Q647.953 1544.15 647.953 1539.13 Q647.953 1535.82 649.852 1533.52 Q651.75 1531.23 655.129 1530.45 M653.416 1523.06 Q653.416 1525.75 655.083 1527.25 Q656.773 1528.76 659.805 1528.76 Q662.814 1528.76 664.504 1527.25 Q666.217 1525.75 666.217 1523.06 Q666.217 1520.38 664.504 1518.87 Q662.814 1517.37 659.805 1517.37 Q656.773 1517.37 655.083 1518.87 Q653.416 1520.38 653.416 1523.06 Z" fill="#000000" fill-rule="nonzero" fill-opacity="1" /><path clip-path="url(#clip980)" d="M680.106 1548.13 L680.106 1543.87 Q681.865 1544.7 683.671 1545.14 Q685.476 1545.58 687.212 1545.58 Q691.842 1545.58 694.273 1542.48 Q696.726 1539.36 697.074 1533.01 Q695.731 1535.01 693.671 1536.07 Q691.611 1537.13 689.111 1537.13 Q683.925 1537.13 680.893 1534.01 Q677.884 1530.86 677.884 1525.42 Q677.884 1520.1 681.032 1516.88 Q684.18 1513.66 689.412 1513.66 Q695.407 1513.66 698.555 1518.27 Q701.726 1522.85 701.726 1531.6 Q701.726 1539.77 697.837 1544.66 Q693.972 1549.52 687.421 1549.52 Q685.662 1549.52 683.856 1549.17 Q682.05 1548.82 680.106 1548.13 M689.412 1533.48 Q692.56 1533.48 694.388 1531.32 Q696.24 1529.17 696.24 1525.42 Q696.24 1521.7 694.388 1519.54 Q692.56 1517.37 689.412 1517.37 Q686.263 1517.37 684.412 1519.54 Q682.583 1521.7 682.583 1525.42 Q682.583 1529.17 684.412 1531.32 Q686.263 1533.48 689.412 1533.48 Z" fill="#000000" fill-rule="nonzero" fill-opacity="1" /><path clip-path="url(#clip980)" d="M710.175 1514.29 L728.532 1514.29 L728.532 1518.22 L714.458 1518.22 L714.458 1526.7 Q715.476 1526.35 716.495 1526.19 Q717.513 1526 718.532 1526 Q724.319 1526 727.698 1529.17 Q731.078 1532.34 731.078 1537.76 Q731.078 1543.34 727.606 1546.44 Q724.134 1549.52 717.814 1549.52 Q715.638 1549.52 713.37 1549.15 Q711.124 1548.78 708.717 1548.04 L708.717 1543.34 Q710.8 1544.47 713.023 1545.03 Q715.245 1545.58 717.722 1545.58 Q721.726 1545.58 724.064 1543.48 Q726.402 1541.37 726.402 1537.76 Q726.402 1534.15 724.064 1532.04 Q721.726 1529.94 717.722 1529.94 Q715.847 1529.94 713.972 1530.35 Q712.12 1530.77 710.175 1531.65 L710.175 1514.29 Z" fill="#000000" fill-rule="nonzero" fill-opacity="1" /><path clip-path="url(#clip980)" d="M737.536 1533.96 L750.013 1533.96 L750.013 1537.76 L737.536 1537.76 L737.536 1533.96 Z" fill="#000000" fill-rule="nonzero" fill-opacity="1" /><path clip-path="url(#clip980)" d="M767.397 1517.37 Q763.786 1517.37 761.957 1520.93 Q760.152 1524.47 760.152 1531.6 Q760.152 1538.71 761.957 1542.27 Q763.786 1545.82 767.397 1545.82 Q771.031 1545.82 772.837 1542.27 Q774.666 1538.71 774.666 1531.6 Q774.666 1524.47 772.837 1520.93 Q771.031 1517.37 767.397 1517.37 M767.397 1513.66 Q773.207 1513.66 776.263 1518.27 Q779.342 1522.85 779.342 1531.6 Q779.342 1540.33 776.263 1544.94 Q773.207 1549.52 767.397 1549.52 Q761.587 1549.52 758.508 1544.94 Q755.453 1540.33 755.453 1531.6 Q755.453 1522.85 758.508 1518.27 Q761.587 1513.66 767.397 1513.66 Z" fill="#000000" fill-rule="nonzero" fill-opacity="1" /><path clip-path="url(#clip980)" d="M788.369 1544.91 L796.008 1544.91 L796.008 1518.55 L787.698 1520.21 L787.698 1515.95 L795.962 1514.29 L800.638 1514.29 L800.638 1544.91 L808.277 1544.91 L808.277 1548.85 L788.369 1548.85 L788.369 1544.91 Z" fill="#000000" fill-rule="nonzero" fill-opacity="1" /><path clip-path="url(#clip980)" d="M814.966 1533.96 L827.443 1533.96 L827.443 1537.76 L814.966 1537.76 L814.966 1533.96 Z" fill="#000000" fill-rule="nonzero" fill-opacity="1" /><path clip-path="url(#clip980)" d="M844.827 1517.37 Q841.216 1517.37 839.388 1520.93 Q837.582 1524.47 837.582 1531.6 Q837.582 1538.71 839.388 1542.27 Q841.216 1545.82 844.827 1545.82 Q848.462 1545.82 850.267 1542.27 Q852.096 1538.71 852.096 1531.6 Q852.096 1524.47 850.267 1520.93 Q848.462 1517.37 844.827 1517.37 M844.827 1513.66 Q850.638 1513.66 853.693 1518.27 Q856.772 1522.85 856.772 1531.6 Q856.772 1540.33 853.693 1544.94 Q850.638 1549.52 844.827 1549.52 Q839.017 1549.52 835.939 1544.94 Q832.883 1540.33 832.883 1531.6 Q832.883 1522.85 835.939 1518.27 Q839.017 1513.66 844.827 1513.66 Z" fill="#000000" fill-rule="nonzero" fill-opacity="1" /><path clip-path="url(#clip980)" d="M865.799 1544.91 L873.438 1544.91 L873.438 1518.55 L865.128 1520.21 L865.128 1515.95 L873.392 1514.29 L878.068 1514.29 L878.068 1544.91 L885.707 1544.91 L885.707 1548.85 L865.799 1548.85 L865.799 1544.91 Z" fill="#000000" fill-rule="nonzero" fill-opacity="1" /><path clip-path="url(#clip980)" d="M1153.98 1544.91 L1161.62 1544.91 L1161.62 1518.55 L1153.31 1520.21 L1153.31 1515.95 L1161.57 1514.29 L1166.25 1514.29 L1166.25 1544.91 L1173.89 1544.91 L1173.89 1548.85 L1153.98 1548.85 L1153.98 1544.91 Z" fill="#000000" fill-rule="nonzero" fill-opacity="1" /><path clip-path="url(#clip980)" d="M1183.47 1548.13 L1183.47 1543.87 Q1185.23 1544.7 1187.04 1545.14 Q1188.84 1545.58 1190.58 1545.58 Q1195.21 1545.58 1197.64 1542.48 Q1200.09 1539.36 1200.44 1533.01 Q1199.1 1535.01 1197.04 1536.07 Q1194.98 1537.13 1192.48 1537.13 Q1187.29 1537.13 1184.26 1534.01 Q1181.25 1530.86 1181.25 1525.42 Q1181.25 1520.1 1184.4 1516.88 Q1187.55 1513.66 1192.78 1513.66 Q1198.77 1513.66 1201.92 1518.27 Q1205.09 1522.85 1205.09 1531.6 Q1205.09 1539.77 1201.2 1544.66 Q1197.34 1549.52 1190.79 1549.52 Q1189.03 1549.52 1187.22 1549.17 Q1185.42 1548.82 1183.47 1548.13 M1192.78 1533.48 Q1195.93 1533.48 1197.76 1531.32 Q1199.61 1529.17 1199.61 1525.42 Q1199.61 1521.7 1197.76 1519.54 Q1195.93 1517.37 1192.78 1517.37 Q1189.63 1517.37 1187.78 1519.54 Q1185.95 1521.7 1185.95 1525.42 Q1185.95 1529.17 1187.78 1531.32 Q1189.63 1533.48 1192.78 1533.48 Z" fill="#000000" fill-rule="nonzero" fill-opacity="1" /><path clip-path="url(#clip980)" d="M1217.52 1544.91 L1233.84 1544.91 L1233.84 1548.85 L1211.9 1548.85 L1211.9 1544.91 Q1214.56 1542.16 1219.14 1537.53 Q1223.75 1532.88 1224.93 1531.53 Q1227.18 1529.01 1228.06 1527.27 Q1228.96 1525.51 1228.96 1523.82 Q1228.96 1521.07 1227.01 1519.33 Q1225.09 1517.6 1221.99 1517.6 Q1219.79 1517.6 1217.34 1518.36 Q1214.91 1519.13 1212.13 1520.68 L1212.13 1515.95 Q1214.95 1514.82 1217.41 1514.24 Q1219.86 1513.66 1221.9 1513.66 Q1227.27 1513.66 1230.46 1516.35 Q1233.66 1519.03 1233.66 1523.52 Q1233.66 1525.65 1232.85 1527.57 Q1232.06 1529.47 1229.95 1532.07 Q1229.38 1532.74 1226.27 1535.95 Q1223.17 1539.15 1217.52 1544.91 Z" fill="#000000" fill-rule="nonzero" fill-opacity="1" /><path clip-path="url(#clip980)" d="M1244.47 1544.91 L1252.11 1544.91 L1252.11 1518.55 L1243.8 1520.21 L1243.8 1515.95 L1252.06 1514.29 L1256.74 1514.29 L1256.74 1544.91 L1264.38 1544.91 L1264.38 1548.85 L1244.47 1548.85 L1244.47 1544.91 Z" fill="#000000" fill-rule="nonzero" fill-opacity="1" /><path clip-path="url(#clip980)" d="M1271.06 1533.96 L1283.54 1533.96 L1283.54 1537.76 L1271.06 1537.76 L1271.06 1533.96 Z" fill="#000000" fill-rule="nonzero" fill-opacity="1" /><path clip-path="url(#clip980)" d="M1300.93 1517.37 Q1297.31 1517.37 1295.49 1520.93 Q1293.68 1524.47 1293.68 1531.6 Q1293.68 1538.71 1295.49 1542.27 Q1297.31 1545.82 1300.93 1545.82 Q1304.56 1545.82 1306.37 1542.27 Q1308.19 1538.71 1308.19 1531.6 Q1308.19 1524.47 1306.37 1520.93 Q1304.56 1517.37 1300.93 1517.37 M1300.93 1513.66 Q1306.74 1513.66 1309.79 1518.27 Q1312.87 1522.85 1312.87 1531.6 Q1312.87 1540.33 1309.79 1544.94 Q1306.74 1549.52 1300.93 1549.52 Q1295.12 1549.52 1292.04 1544.94 Q1288.98 1540.33 1288.98 1531.6 Q1288.98 1522.85 1292.04 1518.27 Q1295.12 1513.66 1300.93 1513.66 Z" fill="#000000" fill-rule="nonzero" fill-opacity="1" /><path clip-path="url(#clip980)" d="M1321.9 1544.91 L1329.54 1544.91 L1329.54 1518.55 L1321.23 1520.21 L1321.23 1515.95 L1329.49 1514.29 L1334.17 1514.29 L1334.17 1544.91 L1341.81 1544.91 L1341.81 1548.85 L1321.9 1548.85 L1321.9 1544.91 Z" fill="#000000" fill-rule="nonzero" fill-opacity="1" /><path clip-path="url(#clip980)" d="M1348.5 1533.96 L1360.97 1533.96 L1360.97 1537.76 L1348.5 1537.76 L1348.5 1533.96 Z" fill="#000000" fill-rule="nonzero" fill-opacity="1" /><path clip-path="url(#clip980)" d="M1378.36 1517.37 Q1374.74 1517.37 1372.92 1520.93 Q1371.11 1524.47 1371.11 1531.6 Q1371.11 1538.71 1372.92 1542.27 Q1374.74 1545.82 1378.36 1545.82 Q1381.99 1545.82 1383.8 1542.27 Q1385.62 1538.71 1385.62 1531.6 Q1385.62 1524.47 1383.8 1520.93 Q1381.99 1517.37 1378.36 1517.37 M1378.36 1513.66 Q1384.17 1513.66 1387.22 1518.27 Q1390.3 1522.85 1390.3 1531.6 Q1390.3 1540.33 1387.22 1544.94 Q1384.17 1549.52 1378.36 1549.52 Q1372.55 1549.52 1369.47 1544.94 Q1366.41 1540.33 1366.41 1531.6 Q1366.41 1522.85 1369.47 1518.27 Q1372.55 1513.66 1378.36 1513.66 Z" fill="#000000" fill-rule="nonzero" fill-opacity="1" /><path clip-path="url(#clip980)" d="M1399.33 1544.91 L1406.97 1544.91 L1406.97 1518.55 L1398.66 1520.21 L1398.66 1515.95 L1406.92 1514.29 L1411.6 1514.29 L1411.6 1544.91 L1419.24 1544.91 L1419.24 1548.85 L1399.33 1548.85 L1399.33 1544.91 Z" fill="#000000" fill-rule="nonzero" fill-opacity="1" /><path clip-path="url(#clip980)" d="M1687.51 1544.91 L1695.15 1544.91 L1695.15 1518.55 L1686.84 1520.21 L1686.84 1515.95 L1695.1 1514.29 L1699.78 1514.29 L1699.78 1544.91 L1707.42 1544.91 L1707.42 1548.85 L1687.51 1548.85 L1687.51 1544.91 Z" fill="#000000" fill-rule="nonzero" fill-opacity="1" /><path clip-path="url(#clip980)" d="M1717 1548.13 L1717 1543.87 Q1718.76 1544.7 1720.57 1545.14 Q1722.37 1545.58 1724.11 1545.58 Q1728.74 1545.58 1731.17 1542.48 Q1733.62 1539.36 1733.97 1533.01 Q1732.63 1535.01 1730.57 1536.07 Q1728.51 1537.13 1726.01 1537.13 Q1720.82 1537.13 1717.79 1534.01 Q1714.78 1530.86 1714.78 1525.42 Q1714.78 1520.1 1717.93 1516.88 Q1721.08 1513.66 1726.31 1513.66 Q1732.3 1513.66 1735.45 1518.27 Q1738.62 1522.85 1738.62 1531.6 Q1738.62 1539.77 1734.73 1544.66 Q1730.87 1549.52 1724.32 1549.52 Q1722.56 1549.52 1720.75 1549.17 Q1718.95 1548.82 1717 1548.13 M1726.31 1533.48 Q1729.46 1533.48 1731.28 1531.32 Q1733.14 1529.17 1733.14 1525.42 Q1733.14 1521.7 1731.28 1519.54 Q1729.46 1517.37 1726.31 1517.37 Q1723.16 1517.37 1721.31 1519.54 Q1719.48 1521.7 1719.48 1525.42 Q1719.48 1529.17 1721.31 1531.32 Q1723.16 1533.48 1726.31 1533.48 Z" fill="#000000" fill-rule="nonzero" fill-opacity="1" /><path clip-path="url(#clip980)" d="M1759.87 1518.36 L1748.07 1536.81 L1759.87 1536.81 L1759.87 1518.36 M1758.64 1514.29 L1764.52 1514.29 L1764.52 1536.81 L1769.46 1536.81 L1769.46 1540.7 L1764.52 1540.7 L1764.52 1548.85 L1759.87 1548.85 L1759.87 1540.7 L1744.27 1540.7 L1744.27 1536.19 L1758.64 1514.29 Z" fill="#000000" fill-rule="nonzero" fill-opacity="1" /><path clip-path="url(#clip980)" d="M1776.01 1514.29 L1798.23 1514.29 L1798.23 1516.28 L1785.68 1548.85 L1780.8 1548.85 L1792.6 1518.22 L1776.01 1518.22 L1776.01 1514.29 Z" fill="#000000" fill-rule="nonzero" fill-opacity="1" /><path clip-path="url(#clip980)" d="M1804.59 1533.96 L1817.07 1533.96 L1817.07 1537.76 L1804.59 1537.76 L1804.59 1533.96 Z" fill="#000000" fill-rule="nonzero" fill-opacity="1" /><path clip-path="url(#clip980)" d="M1834.45 1517.37 Q1830.84 1517.37 1829.01 1520.93 Q1827.21 1524.47 1827.21 1531.6 Q1827.21 1538.71 1829.01 1542.27 Q1830.84 1545.82 1834.45 1545.82 Q1838.09 1545.82 1839.89 1542.27 Q1841.72 1538.71 1841.72 1531.6 Q1841.72 1524.47 1839.89 1520.93 Q1838.09 1517.37 1834.45 1517.37 M1834.45 1513.66 Q1840.26 1513.66 1843.32 1518.27 Q1846.4 1522.85 1846.4 1531.6 Q1846.4 1540.33 1843.32 1544.94 Q1840.26 1549.52 1834.45 1549.52 Q1828.64 1549.52 1825.57 1544.94 Q1822.51 1540.33 1822.51 1531.6 Q1822.51 1522.85 1825.57 1518.27 Q1828.64 1513.66 1834.45 1513.66 Z" fill="#000000" fill-rule="nonzero" fill-opacity="1" /><path clip-path="url(#clip980)" d="M1855.43 1544.91 L1863.07 1544.91 L1863.07 1518.55 L1854.76 1520.21 L1854.76 1515.95 L1863.02 1514.29 L1867.7 1514.29 L1867.7 1544.91 L1875.33 1544.91 L1875.33 1548.85 L1855.43 1548.85 L1855.43 1544.91 Z" fill="#000000" fill-rule="nonzero" fill-opacity="1" /><path clip-path="url(#clip980)" d="M1882.02 1533.96 L1894.5 1533.96 L1894.5 1537.76 L1882.02 1537.76 L1882.02 1533.96 Z" fill="#000000" fill-rule="nonzero" fill-opacity="1" /><path clip-path="url(#clip980)" d="M1911.88 1517.37 Q1908.27 1517.37 1906.45 1520.93 Q1904.64 1524.47 1904.64 1531.6 Q1904.64 1538.71 1906.45 1542.27 Q1908.27 1545.82 1911.88 1545.82 Q1915.52 1545.82 1917.32 1542.27 Q1919.15 1538.71 1919.15 1531.6 Q1919.15 1524.47 1917.32 1520.93 Q1915.52 1517.37 1911.88 1517.37 M1911.88 1513.66 Q1917.69 1513.66 1920.75 1518.27 Q1923.83 1522.85 1923.83 1531.6 Q1923.83 1540.33 1920.75 1544.94 Q1917.69 1549.52 1911.88 1549.52 Q1906.07 1549.52 1903 1544.94 Q1899.94 1540.33 1899.94 1531.6 Q1899.94 1522.85 1903 1518.27 Q1906.07 1513.66 1911.88 1513.66 Z" fill="#000000" fill-rule="nonzero" fill-opacity="1" /><path clip-path="url(#clip980)" d="M1932.86 1544.91 L1940.5 1544.91 L1940.5 1518.55 L1932.19 1520.21 L1932.19 1515.95 L1940.45 1514.29 L1945.13 1514.29 L1945.13 1544.91 L1952.76 1544.91 L1952.76 1548.85 L1932.86 1548.85 L1932.86 1544.91 Z" fill="#000000" fill-rule="nonzero" fill-opacity="1" /><polyline clip-path="url(#clip980)" style="stroke:#000000; stroke-linecap:round; stroke-linejoin:round; stroke-width:4; stroke-opacity:1; fill:none" points="199.283,1486.45 199.283,47.2441 "/>
<polyline clip-path="url(#clip980)" style="stroke:#000000; stroke-linecap:round; stroke-linejoin:round; stroke-width:4; stroke-opacity:1; fill:none" points="199.283,1231.8 218.181,1231.8 "/>
<polyline clip-path="url(#clip980)" style="stroke:#000000; stroke-linecap:round; stroke-linejoin:round; stroke-width:4; stroke-opacity:1; fill:none" points="199.283,934.707 218.181,934.707 "/>
<polyline clip-path="url(#clip980)" style="stroke:#000000; stroke-linecap:round; stroke-linejoin:round; stroke-width:4; stroke-opacity:1; fill:none" points="199.283,637.608 218.181,637.608 "/>
<polyline clip-path="url(#clip980)" style="stroke:#000000; stroke-linecap:round; stroke-linejoin:round; stroke-width:4; stroke-opacity:1; fill:none" points="199.283,340.51 218.181,340.51 "/>
<path clip-path="url(#clip980)" d="M91.5938 1229.94 Q88.4456 1229.94 86.5938 1232.09 Q84.7651 1234.25 84.7651 1238 Q84.7651 1241.72 86.5938 1243.9 Q88.4456 1246.05 91.5938 1246.05 Q94.7419 1246.05 96.5706 1243.9 Q98.4224 1241.72 98.4224 1238 Q98.4224 1234.25 96.5706 1232.09 Q94.7419 1229.94 91.5938 1229.94 M100.876 1215.29 L100.876 1219.55 Q99.1169 1218.71 97.3113 1218.27 Q95.5289 1217.84 93.7697 1217.84 Q89.1401 1217.84 86.6864 1220.96 Q84.2558 1224.09 83.9086 1230.4 Q85.2743 1228.39 87.3345 1227.33 Q89.3947 1226.24 91.8715 1226.24 Q97.0798 1226.24 100.089 1229.41 Q103.121 1232.56 103.121 1238 Q103.121 1243.32 99.9733 1246.54 Q96.8252 1249.76 91.5938 1249.76 Q85.5984 1249.76 82.4271 1245.17 Q79.2559 1240.57 79.2559 1231.84 Q79.2559 1223.65 83.1447 1218.78 Q87.0336 1213.9 93.5845 1213.9 Q95.3437 1213.9 97.1261 1214.25 Q98.9317 1214.59 100.876 1215.29 Z" fill="#000000" fill-rule="nonzero" fill-opacity="1" /><path clip-path="url(#clip980)" d="M121.177 1217.6 Q117.566 1217.6 115.737 1221.17 Q113.932 1224.71 113.932 1231.84 Q113.932 1238.95 115.737 1242.51 Q117.566 1246.05 121.177 1246.05 Q124.811 1246.05 126.617 1242.51 Q128.445 1238.95 128.445 1231.84 Q128.445 1224.71 126.617 1221.17 Q124.811 1217.6 121.177 1217.6 M121.177 1213.9 Q126.987 1213.9 130.043 1218.51 Q133.121 1223.09 133.121 1231.84 Q133.121 1240.57 130.043 1245.17 Q126.987 1249.76 121.177 1249.76 Q115.367 1249.76 112.288 1245.17 Q109.233 1240.57 109.233 1231.84 Q109.233 1223.09 112.288 1218.51 Q115.367 1213.9 121.177 1213.9 Z" fill="#000000" fill-rule="nonzero" fill-opacity="1" /><path clip-path="url(#clip980)" d="M151.339 1217.6 Q147.728 1217.6 145.899 1221.17 Q144.093 1224.71 144.093 1231.84 Q144.093 1238.95 145.899 1242.51 Q147.728 1246.05 151.339 1246.05 Q154.973 1246.05 156.779 1242.51 Q158.607 1238.95 158.607 1231.84 Q158.607 1224.71 156.779 1221.17 Q154.973 1217.6 151.339 1217.6 M151.339 1213.9 Q157.149 1213.9 160.205 1218.51 Q163.283 1223.09 163.283 1231.84 Q163.283 1240.57 160.205 1245.17 Q157.149 1249.76 151.339 1249.76 Q145.529 1249.76 142.45 1245.17 Q139.394 1240.57 139.394 1231.84 Q139.394 1223.09 142.45 1218.51 Q145.529 1213.9 151.339 1213.9 Z" fill="#000000" fill-rule="nonzero" fill-opacity="1" /><path clip-path="url(#clip980)" d="M91.0151 935.575 Q87.6817 935.575 85.7605 937.357 Q83.8623 939.139 83.8623 942.264 Q83.8623 945.389 85.7605 947.172 Q87.6817 948.954 91.0151 948.954 Q94.3484 948.954 96.2697 947.172 Q98.1909 945.366 98.1909 942.264 Q98.1909 939.139 96.2697 937.357 Q94.3715 935.575 91.0151 935.575 M86.3392 933.584 Q83.3299 932.843 81.6401 930.783 Q79.9735 928.723 79.9735 925.76 Q79.9735 921.616 82.9133 919.209 Q85.8762 916.802 91.0151 916.802 Q96.1771 916.802 99.1169 919.209 Q102.057 921.616 102.057 925.76 Q102.057 928.723 100.367 930.783 Q98.7002 932.843 95.7141 933.584 Q99.0937 934.371 100.969 936.663 Q102.867 938.954 102.867 942.264 Q102.867 947.287 99.7882 949.973 Q96.7326 952.658 91.0151 952.658 Q85.2975 952.658 82.2188 949.973 Q79.1633 947.287 79.1633 942.264 Q79.1633 938.954 81.0614 936.663 Q82.9595 934.371 86.3392 933.584 M84.6262 926.2 Q84.6262 928.885 86.2929 930.389 Q87.9827 931.894 91.0151 931.894 Q94.0243 931.894 95.7141 930.389 Q97.4271 928.885 97.4271 926.2 Q97.4271 923.514 95.7141 922.01 Q94.0243 920.505 91.0151 920.505 Q87.9827 920.505 86.2929 922.01 Q84.6262 923.514 84.6262 926.2 Z" fill="#000000" fill-rule="nonzero" fill-opacity="1" /><path clip-path="url(#clip980)" d="M121.177 920.505 Q117.566 920.505 115.737 924.07 Q113.932 927.612 113.932 934.741 Q113.932 941.848 115.737 945.413 Q117.566 948.954 121.177 948.954 Q124.811 948.954 126.617 945.413 Q128.445 941.848 128.445 934.741 Q128.445 927.612 126.617 924.07 Q124.811 920.505 121.177 920.505 M121.177 916.802 Q126.987 916.802 130.043 921.408 Q133.121 925.991 133.121 934.741 Q133.121 943.468 130.043 948.075 Q126.987 952.658 121.177 952.658 Q115.367 952.658 112.288 948.075 Q109.233 943.468 109.233 934.741 Q109.233 925.991 112.288 921.408 Q115.367 916.802 121.177 916.802 Z" fill="#000000" fill-rule="nonzero" fill-opacity="1" /><path clip-path="url(#clip980)" d="M151.339 920.505 Q147.728 920.505 145.899 924.07 Q144.093 927.612 144.093 934.741 Q144.093 941.848 145.899 945.413 Q147.728 948.954 151.339 948.954 Q154.973 948.954 156.779 945.413 Q158.607 941.848 158.607 934.741 Q158.607 927.612 156.779 924.07 Q154.973 920.505 151.339 920.505 M151.339 916.802 Q157.149 916.802 160.205 921.408 Q163.283 925.991 163.283 934.741 Q163.283 943.468 160.205 948.075 Q157.149 952.658 151.339 952.658 Q145.529 952.658 142.45 948.075 Q139.394 943.468 139.394 934.741 Q139.394 925.991 142.45 921.408 Q145.529 916.802 151.339 916.802 Z" fill="#000000" fill-rule="nonzero" fill-opacity="1" /><path clip-path="url(#clip980)" d="M51.6634 650.953 L59.3023 650.953 L59.3023 624.587 L50.9921 626.254 L50.9921 621.995 L59.256 620.328 L63.9319 620.328 L63.9319 650.953 L71.5707 650.953 L71.5707 654.888 L51.6634 654.888 L51.6634 650.953 Z" fill="#000000" fill-rule="nonzero" fill-opacity="1" /><path clip-path="url(#clip980)" d="M91.0151 623.407 Q87.404 623.407 85.5753 626.972 Q83.7697 630.513 83.7697 637.643 Q83.7697 644.749 85.5753 648.314 Q87.404 651.856 91.0151 651.856 Q94.6493 651.856 96.4548 648.314 Q98.2835 644.749 98.2835 637.643 Q98.2835 630.513 96.4548 626.972 Q94.6493 623.407 91.0151 623.407 M91.0151 619.703 Q96.8252 619.703 99.8808 624.31 Q102.959 628.893 102.959 637.643 Q102.959 646.37 99.8808 650.976 Q96.8252 655.559 91.0151 655.559 Q85.2049 655.559 82.1262 650.976 Q79.0707 646.37 79.0707 637.643 Q79.0707 628.893 82.1262 624.31 Q85.2049 619.703 91.0151 619.703 Z" fill="#000000" fill-rule="nonzero" fill-opacity="1" /><path clip-path="url(#clip980)" d="M121.177 623.407 Q117.566 623.407 115.737 626.972 Q113.932 630.513 113.932 637.643 Q113.932 644.749 115.737 648.314 Q117.566 651.856 121.177 651.856 Q124.811 651.856 126.617 648.314 Q128.445 644.749 128.445 637.643 Q128.445 630.513 126.617 626.972 Q124.811 623.407 121.177 623.407 M121.177 619.703 Q126.987 619.703 130.043 624.31 Q133.121 628.893 133.121 637.643 Q133.121 646.37 130.043 650.976 Q126.987 655.559 121.177 655.559 Q115.367 655.559 112.288 650.976 Q109.233 646.37 109.233 637.643 Q109.233 628.893 112.288 624.31 Q115.367 619.703 121.177 619.703 Z" fill="#000000" fill-rule="nonzero" fill-opacity="1" /><path clip-path="url(#clip980)" d="M151.339 623.407 Q147.728 623.407 145.899 626.972 Q144.093 630.513 144.093 637.643 Q144.093 644.749 145.899 648.314 Q147.728 651.856 151.339 651.856 Q154.973 651.856 156.779 648.314 Q158.607 644.749 158.607 637.643 Q158.607 630.513 156.779 626.972 Q154.973 623.407 151.339 623.407 M151.339 619.703 Q157.149 619.703 160.205 624.31 Q163.283 628.893 163.283 637.643 Q163.283 646.37 160.205 650.976 Q157.149 655.559 151.339 655.559 Q145.529 655.559 142.45 650.976 Q139.394 646.37 139.394 637.643 Q139.394 628.893 142.45 624.31 Q145.529 619.703 151.339 619.703 Z" fill="#000000" fill-rule="nonzero" fill-opacity="1" /><path clip-path="url(#clip980)" d="M51.6634 353.855 L59.3023 353.855 L59.3023 327.489 L50.9921 329.156 L50.9921 324.897 L59.256 323.23 L63.9319 323.23 L63.9319 353.855 L71.5707 353.855 L71.5707 357.79 L51.6634 357.79 L51.6634 353.855 Z" fill="#000000" fill-rule="nonzero" fill-opacity="1" /><path clip-path="url(#clip980)" d="M85.0429 353.855 L101.362 353.855 L101.362 357.79 L79.4179 357.79 L79.4179 353.855 Q82.0799 351.1 86.6632 346.47 Q91.2697 341.818 92.4502 340.475 Q94.6956 337.952 95.5752 336.216 Q96.478 334.457 96.478 332.767 Q96.478 330.012 94.5336 328.276 Q92.6123 326.54 89.5104 326.54 Q87.3114 326.54 84.8577 327.304 Q82.4271 328.068 79.6494 329.619 L79.6494 324.897 Q82.4734 323.762 84.9271 323.184 Q87.3808 322.605 89.4178 322.605 Q94.7882 322.605 97.9826 325.29 Q101.177 327.975 101.177 332.466 Q101.177 334.596 100.367 336.517 Q99.5798 338.415 97.4734 341.008 Q96.8947 341.679 93.7928 344.896 Q90.691 348.091 85.0429 353.855 Z" fill="#000000" fill-rule="nonzero" fill-opacity="1" /><path clip-path="url(#clip980)" d="M121.177 326.309 Q117.566 326.309 115.737 329.873 Q113.932 333.415 113.932 340.545 Q113.932 347.651 115.737 351.216 Q117.566 354.757 121.177 354.757 Q124.811 354.757 126.617 351.216 Q128.445 347.651 128.445 340.545 Q128.445 333.415 126.617 329.873 Q124.811 326.309 121.177 326.309 M121.177 322.605 Q126.987 322.605 130.043 327.211 Q133.121 331.795 133.121 340.545 Q133.121 349.271 130.043 353.878 Q126.987 358.461 121.177 358.461 Q115.367 358.461 112.288 353.878 Q109.233 349.271 109.233 340.545 Q109.233 331.795 112.288 327.211 Q115.367 322.605 121.177 322.605 Z" fill="#000000" fill-rule="nonzero" fill-opacity="1" /><path clip-path="url(#clip980)" d="M151.339 326.309 Q147.728 326.309 145.899 329.873 Q144.093 333.415 144.093 340.545 Q144.093 347.651 145.899 351.216 Q147.728 354.757 151.339 354.757 Q154.973 354.757 156.779 351.216 Q158.607 347.651 158.607 340.545 Q158.607 333.415 156.779 329.873 Q154.973 326.309 151.339 326.309 M151.339 322.605 Q157.149 322.605 160.205 327.211 Q163.283 331.795 163.283 340.545 Q163.283 349.271 160.205 353.878 Q157.149 358.461 151.339 358.461 Q145.529 358.461 142.45 353.878 Q139.394 349.271 139.394 340.545 Q139.394 331.795 142.45 327.211 Q145.529 322.605 151.339 322.605 Z" fill="#000000" fill-rule="nonzero" fill-opacity="1" /><polyline clip-path="url(#clip982)" style="stroke:#009af9; stroke-linecap:round; stroke-linejoin:round; stroke-width:4; stroke-opacity:1; fill:none" points="260.231,459.349 280.738,399.93 301.301,692.571 321.809,325.655 342.316,399.93 362.824,399.93 383.387,915.395 403.894,295.945 424.402,87.9763 444.909,429.639 465.473,645.036 485.98,734.165 506.488,474.204 526.995,646.521 547.558,607.898 568.066,697.028 588.573,370.22 609.081,936.192 629.644,699.999 650.151,429.639 "/>
<polyline clip-path="url(#clip982)" style="stroke:#009af9; stroke-linecap:round; stroke-linejoin:round; stroke-width:4; stroke-opacity:1; fill:none" points="1081.03,888.656 1101.54,1044.63 1122.1,1445.72 1142.61,899.055 1163.12,1080.28 1183.62,459.349 1204.19,489.059 1224.69,887.171 1245.2,988.184 1265.71,903.511 1286.27,982.242 1306.78,867.859 1327.29,839.635 1347.8,842.606 1368.36,1086.23 1388.87,867.859 1409.37,1017.89 1429.88,940.649 1450.44,578.189 1470.95,995.612 "/>
<polyline clip-path="url(#clip982)" style="stroke:#009af9; stroke-linecap:round; stroke-linejoin:round; stroke-width:4; stroke-opacity:1; fill:none" points="1901.89,1017.89 1922.39,1010.47 1942.96,878.258 1963.47,563.334 1983.97,759.419 2004.48,658.405 2025.04,939.163 2045.55,751.991 2066.06,674.745 2086.57,912.424 2107.13,607.898 2127.64,777.244 2148.14,784.672 2168.65,385.075 2189.22,768.331 2209.72,1014.92 2230.23,757.933 2250.74,1056.52 2271.3,1062.46 2291.81,1023.84 "/>
<polyline clip-path="url(#clip982)" style="stroke:#e26f46; stroke-linecap:round; stroke-linejoin:round; stroke-width:4; stroke-opacity:1; fill:none" points="260.231,488.642 280.738,443.842 301.301,531.355 321.809,473.676 342.316,455.873 362.824,443.662 383.387,539.842 403.894,492.365 424.402,416.086 444.909,418.588 465.473,459.797 485.98,509.237 506.488,502.966 526.995,528.546 547.558,542.642 568.066,570.009 588.573,534.643 609.081,605.655 629.644,622.329 650.151,588.29 670.659,588.29 691.166,588.29 711.73,588.29 732.237,588.29 752.745,588.29 773.252,588.29 793.815,588.29 814.323,588.29 834.83,588.29 855.338,588.29 875.845,588.29 896.352,588.29 916.86,588.29 937.367,588.29 957.931,588.29 978.438,588.29 998.945,588.29 1019.45,588.29 1040.02,588.29 1060.52,588.29 1081.03,736.259 1101.54,843.141 1122.1,1010.46 1142.61,983.743 1163.12,1004.72 1183.62,893.861 1204.19,815.223 1224.69,828.776 1245.2,858.182 1265.71,866.425 1286.27,887.286 1306.78,883.81 1327.29,875.94 1347.8,870.02 1368.36,908.342 1388.87,901.177 1409.37,921.817 1429.88,925.145 1450.44,863.855 1470.95,887.123 1491.46,887.123 1511.97,887.123 1532.53,887.123 1553.04,887.123 1573.54,887.123 1594.05,887.123 1614.62,887.123 1635.12,887.123 1655.63,887.123 1676.14,887.123 1696.7,887.123 1717.21,887.123 1737.72,887.123 1758.22,887.123 1778.79,887.123 1799.29,887.123 1819.8,887.123 1840.31,887.123 1860.87,887.123 1881.38,887.123 1901.89,951.543 1922.39,971.965 1942.96,945.945 1963.47,854.183 1983.97,833.589 2004.48,797.979 2025.04,825.405 2045.55,811.577 2066.06,786.336 2086.57,809.267 2107.13,772.997 2127.64,773.757 2148.14,775.701 2168.65,706.321 2189.22,717.312 2209.72,769.991 2230.23,767.859 2250.74,818.872 2271.3,861.901 2291.81,890.498 "/>
<polyline clip-path="url(#clip982)" style="stroke:#3da44d; stroke-linecap:round; stroke-linejoin:round; stroke-width:4; stroke-opacity:1; fill:none" points="260.231,490.824 280.738,490.909 301.301,494.434 321.809,490.465 342.316,492.729 362.824,498.504 383.387,508.007 403.894,502.101 424.402,503.993 444.909,521.62 465.473,542.726 485.98,559.962 506.488,570.609 526.995,584.903 547.558,596.866 568.066,608.411 588.573,616.605 609.081,634.118 629.644,640.206 650.151,644.032 670.659,655.967 691.166,667.902 711.73,679.837 732.237,691.772 752.745,703.707 773.252,715.642 793.815,727.577 814.323,739.512 834.83,751.447 855.338,763.382 875.845,775.317 896.352,787.252 916.86,799.187 937.367,811.122 957.931,823.057 978.438,834.992 998.945,846.927 1019.45,858.862 1040.02,870.797 1060.52,882.732 1081.03,894.667 1101.54,906.83 1122.1,913.78 1142.61,900.61 1163.12,887.5 1183.62,867.097 1204.19,862.118 1224.69,871.248 1245.2,879.776 1265.71,884.204 1286.27,887.901 1306.78,888.031 1327.29,888.923 1347.8,891.679 1368.36,896.292 1388.87,893.72 1409.37,892.127 1429.88,885.777 1450.44,877.351 1470.95,880.24 1491.46,878.766 1511.97,877.292 1532.53,875.818 1553.04,874.344 1573.54,872.87 1594.05,871.396 1614.62,869.922 1635.12,868.447 1655.63,866.973 1676.14,865.499 1696.7,864.025 1717.21,862.551 1737.72,861.077 1758.22,859.603 1778.79,858.128 1799.29,856.654 1819.8,855.18 1840.31,853.706 1860.87,852.232 1881.38,850.758 1901.89,849.284 1922.39,841.432 1942.96,827.187 1963.47,811.01 1983.97,804.202 2004.48,799.087 2025.04,799.293 2045.55,794.209 2066.06,790.722 2086.57,791.621 2107.13,787.951 2127.64,791.091 2148.14,794.755 2168.65,798.801 2189.22,818.495 2209.72,840.086 2230.23,855.065 2250.74,873.717 2271.3,885.455 2291.81,890.498 "/>
<path clip-path="url(#clip980)" d="M1565.42 1438.47 L2280.97 1438.47 L2280.97 1231.11 L1565.42 1231.11  Z" fill="#ffffff" fill-rule="evenodd" fill-opacity="1"/>
<polyline clip-path="url(#clip980)" style="stroke:#000000; stroke-linecap:round; stroke-linejoin:round; stroke-width:4; stroke-opacity:1; fill:none" points="1565.42,1438.47 2280.97,1438.47 2280.97,1231.11 1565.42,1231.11 1565.42,1438.47 "/>
<polyline clip-path="url(#clip980)" style="stroke:#009af9; stroke-linecap:round; stroke-linejoin:round; stroke-width:4; stroke-opacity:1; fill:none" points="1589.35,1282.95 1732.91,1282.95 "/>
<path clip-path="url(#clip980)" d="M1772.67 1270.28 L1766.33 1287.48 L1779.04 1287.48 L1772.67 1270.28 M1770.03 1265.67 L1775.34 1265.67 L1788.51 1300.23 L1783.65 1300.23 L1780.5 1291.37 L1764.92 1291.37 L1761.77 1300.23 L1756.84 1300.23 L1770.03 1265.67 Z" fill="#000000" fill-rule="nonzero" fill-opacity="1" /><path clip-path="url(#clip980)" d="M1814.92 1284.59 L1814.92 1300.23 L1810.66 1300.23 L1810.66 1284.73 Q1810.66 1281.04 1809.22 1279.22 Q1807.79 1277.39 1804.92 1277.39 Q1801.47 1277.39 1799.48 1279.59 Q1797.49 1281.79 1797.49 1285.58 L1797.49 1300.23 L1793.21 1300.23 L1793.21 1274.31 L1797.49 1274.31 L1797.49 1278.34 Q1799.02 1276 1801.08 1274.84 Q1803.16 1273.68 1805.87 1273.68 Q1810.34 1273.68 1812.63 1276.46 Q1814.92 1279.22 1814.92 1284.59 Z" fill="#000000" fill-rule="nonzero" fill-opacity="1" /><path clip-path="url(#clip980)" d="M1844.96 1284.59 L1844.96 1300.23 L1840.71 1300.23 L1840.71 1284.73 Q1840.71 1281.04 1839.27 1279.22 Q1837.84 1277.39 1834.96 1277.39 Q1831.52 1277.39 1829.53 1279.59 Q1827.53 1281.79 1827.53 1285.58 L1827.53 1300.23 L1823.25 1300.23 L1823.25 1274.31 L1827.53 1274.31 L1827.53 1278.34 Q1829.06 1276 1831.12 1274.84 Q1833.21 1273.68 1835.91 1273.68 Q1840.38 1273.68 1842.67 1276.46 Q1844.96 1279.22 1844.96 1284.59 Z" fill="#000000" fill-rule="nonzero" fill-opacity="1" /><path clip-path="url(#clip980)" d="M1853.02 1290 L1853.02 1274.31 L1857.28 1274.31 L1857.28 1289.84 Q1857.28 1293.52 1858.71 1295.37 Q1860.15 1297.2 1863.02 1297.2 Q1866.47 1297.2 1868.46 1295 Q1870.47 1292.8 1870.47 1289.01 L1870.47 1274.31 L1874.73 1274.31 L1874.73 1300.23 L1870.47 1300.23 L1870.47 1296.25 Q1868.92 1298.61 1866.86 1299.77 Q1864.83 1300.91 1862.12 1300.91 Q1857.65 1300.91 1855.34 1298.13 Q1853.02 1295.35 1853.02 1290 M1863.74 1273.68 L1863.74 1273.68 Z" fill="#000000" fill-rule="nonzero" fill-opacity="1" /><path clip-path="url(#clip980)" d="M1895.29 1287.2 Q1890.13 1287.2 1888.14 1288.38 Q1886.15 1289.56 1886.15 1292.41 Q1886.15 1294.68 1887.63 1296.02 Q1889.13 1297.34 1891.7 1297.34 Q1895.24 1297.34 1897.37 1294.84 Q1899.52 1292.32 1899.52 1288.15 L1899.52 1287.2 L1895.29 1287.2 M1903.78 1285.44 L1903.78 1300.23 L1899.52 1300.23 L1899.52 1296.3 Q1898.07 1298.66 1895.89 1299.79 Q1893.71 1300.91 1890.57 1300.91 Q1886.59 1300.91 1884.22 1298.68 Q1881.89 1296.44 1881.89 1292.69 Q1881.89 1288.31 1884.8 1286.09 Q1887.74 1283.87 1893.55 1283.87 L1899.52 1283.87 L1899.52 1283.45 Q1899.52 1280.51 1897.58 1278.92 Q1895.66 1277.29 1892.16 1277.29 Q1889.94 1277.29 1887.84 1277.83 Q1885.73 1278.36 1883.78 1279.42 L1883.78 1275.49 Q1886.12 1274.59 1888.32 1274.15 Q1890.52 1273.68 1892.6 1273.68 Q1898.23 1273.68 1901.01 1276.6 Q1903.78 1279.52 1903.78 1285.44 Z" fill="#000000" fill-rule="nonzero" fill-opacity="1" /><path clip-path="url(#clip980)" d="M1912.56 1264.22 L1916.82 1264.22 L1916.82 1300.23 L1912.56 1300.23 L1912.56 1264.22 Z" fill="#000000" fill-rule="nonzero" fill-opacity="1" /><path clip-path="url(#clip980)" d="M1962.35 1284.59 L1962.35 1300.23 L1958.09 1300.23 L1958.09 1284.73 Q1958.09 1281.04 1956.65 1279.22 Q1955.22 1277.39 1952.35 1277.39 Q1948.9 1277.39 1946.91 1279.59 Q1944.92 1281.79 1944.92 1285.58 L1944.92 1300.23 L1940.64 1300.23 L1940.64 1274.31 L1944.92 1274.31 L1944.92 1278.34 Q1946.45 1276 1948.51 1274.84 Q1950.59 1273.68 1953.3 1273.68 Q1957.77 1273.68 1960.06 1276.46 Q1962.35 1279.22 1962.35 1284.59 Z" fill="#000000" fill-rule="nonzero" fill-opacity="1" /><path clip-path="url(#clip980)" d="M1970.84 1274.31 L1975.1 1274.31 L1975.1 1300.23 L1970.84 1300.23 L1970.84 1274.31 M1970.84 1264.22 L1975.1 1264.22 L1975.1 1269.61 L1970.84 1269.61 L1970.84 1264.22 Z" fill="#000000" fill-rule="nonzero" fill-opacity="1" /><path clip-path="url(#clip980)" d="M1984.02 1264.22 L1988.27 1264.22 L1988.27 1300.23 L1984.02 1300.23 L1984.02 1264.22 Z" fill="#000000" fill-rule="nonzero" fill-opacity="1" /><path clip-path="url(#clip980)" d="M2019.36 1286.21 L2019.36 1288.29 L1999.78 1288.29 Q2000.06 1292.69 2002.42 1295 Q2004.8 1297.29 2009.04 1297.29 Q2011.49 1297.29 2013.78 1296.69 Q2016.1 1296.09 2018.37 1294.89 L2018.37 1298.91 Q2016.08 1299.89 2013.67 1300.4 Q2011.26 1300.91 2008.78 1300.91 Q2002.58 1300.91 1998.95 1297.29 Q1995.33 1293.68 1995.33 1287.53 Q1995.33 1281.16 1998.76 1277.43 Q2002.21 1273.68 2008.04 1273.68 Q2013.27 1273.68 2016.31 1277.06 Q2019.36 1280.42 2019.36 1286.21 M2015.1 1284.96 Q2015.06 1281.46 2013.14 1279.38 Q2011.24 1277.29 2008.09 1277.29 Q2004.52 1277.29 2002.37 1279.31 Q2000.24 1281.32 1999.92 1284.98 L2015.1 1284.96 Z" fill="#000000" fill-rule="nonzero" fill-opacity="1" /><path clip-path="url(#clip980)" d="M2056.45 1278.29 Q2055.73 1277.87 2054.87 1277.69 Q2054.04 1277.48 2053.02 1277.48 Q2049.41 1277.48 2047.46 1279.84 Q2045.54 1282.18 2045.54 1286.58 L2045.54 1300.23 L2041.26 1300.23 L2041.26 1274.31 L2045.54 1274.31 L2045.54 1278.34 Q2046.89 1275.98 2049.04 1274.84 Q2051.19 1273.68 2054.27 1273.68 Q2054.71 1273.68 2055.24 1273.75 Q2055.77 1273.8 2056.42 1273.92 L2056.45 1278.29 Z" fill="#000000" fill-rule="nonzero" fill-opacity="1" /><path clip-path="url(#clip980)" d="M2060.91 1274.31 L2065.17 1274.31 L2065.17 1300.23 L2060.91 1300.23 L2060.91 1274.31 M2060.91 1264.22 L2065.17 1264.22 L2065.17 1269.61 L2060.91 1269.61 L2060.91 1264.22 Z" fill="#000000" fill-rule="nonzero" fill-opacity="1" /><path clip-path="url(#clip980)" d="M2071.03 1274.31 L2075.54 1274.31 L2083.64 1296.07 L2091.75 1274.31 L2096.26 1274.31 L2086.54 1300.23 L2080.75 1300.23 L2071.03 1274.31 Z" fill="#000000" fill-rule="nonzero" fill-opacity="1" /><path clip-path="url(#clip980)" d="M2124.32 1286.21 L2124.32 1288.29 L2104.73 1288.29 Q2105.01 1292.69 2107.37 1295 Q2109.76 1297.29 2113.99 1297.29 Q2116.44 1297.29 2118.74 1296.69 Q2121.05 1296.09 2123.32 1294.89 L2123.32 1298.91 Q2121.03 1299.89 2118.62 1300.4 Q2116.21 1300.91 2113.74 1300.91 Q2107.53 1300.91 2103.9 1297.29 Q2100.29 1293.68 2100.29 1287.53 Q2100.29 1281.16 2103.71 1277.43 Q2107.16 1273.68 2113 1273.68 Q2118.23 1273.68 2121.26 1277.06 Q2124.32 1280.42 2124.32 1286.21 M2120.06 1284.96 Q2120.01 1281.46 2118.09 1279.38 Q2116.19 1277.29 2113.04 1277.29 Q2109.48 1277.29 2107.32 1279.31 Q2105.19 1281.32 2104.87 1284.98 L2120.06 1284.96 Z" fill="#000000" fill-rule="nonzero" fill-opacity="1" /><path clip-path="url(#clip980)" d="M2146.33 1278.29 Q2145.61 1277.87 2144.75 1277.69 Q2143.92 1277.48 2142.9 1277.48 Q2139.29 1277.48 2137.35 1279.84 Q2135.43 1282.18 2135.43 1286.58 L2135.43 1300.23 L2131.14 1300.23 L2131.14 1274.31 L2135.43 1274.31 L2135.43 1278.34 Q2136.77 1275.98 2138.92 1274.84 Q2141.07 1273.68 2144.15 1273.68 Q2144.59 1273.68 2145.13 1273.75 Q2145.66 1273.8 2146.31 1273.92 L2146.33 1278.29 Z" fill="#000000" fill-rule="nonzero" fill-opacity="1" /><path clip-path="url(#clip980)" d="M2178.99 1264.22 L2178.99 1267.76 L2174.92 1267.76 Q2172.63 1267.76 2171.72 1268.68 Q2170.84 1269.61 2170.84 1272.02 L2170.84 1274.31 L2177.86 1274.31 L2177.86 1277.62 L2170.84 1277.62 L2170.84 1300.23 L2166.56 1300.23 L2166.56 1277.62 L2162.49 1277.62 L2162.49 1274.31 L2166.56 1274.31 L2166.56 1272.5 Q2166.56 1268.17 2168.57 1266.21 Q2170.59 1264.22 2174.96 1264.22 L2178.99 1264.22 Z" fill="#000000" fill-rule="nonzero" fill-opacity="1" /><path clip-path="url(#clip980)" d="M2182.56 1264.22 L2186.81 1264.22 L2186.81 1300.23 L2182.56 1300.23 L2182.56 1264.22 Z" fill="#000000" fill-rule="nonzero" fill-opacity="1" /><path clip-path="url(#clip980)" d="M2205.77 1277.29 Q2202.35 1277.29 2200.36 1279.98 Q2198.37 1282.64 2198.37 1287.29 Q2198.37 1291.95 2200.33 1294.63 Q2202.32 1297.29 2205.77 1297.29 Q2209.18 1297.29 2211.17 1294.61 Q2213.16 1291.92 2213.16 1287.29 Q2213.16 1282.69 2211.17 1280 Q2209.18 1277.29 2205.77 1277.29 M2205.77 1273.68 Q2211.33 1273.68 2214.5 1277.29 Q2217.67 1280.91 2217.67 1287.29 Q2217.67 1293.66 2214.5 1297.29 Q2211.33 1300.91 2205.77 1300.91 Q2200.19 1300.91 2197.02 1297.29 Q2193.88 1293.66 2193.88 1287.29 Q2193.88 1280.91 2197.02 1277.29 Q2200.19 1273.68 2205.77 1273.68 Z" fill="#000000" fill-rule="nonzero" fill-opacity="1" /><path clip-path="url(#clip980)" d="M2222.25 1274.31 L2226.51 1274.31 L2231.84 1294.54 L2237.14 1274.31 L2242.16 1274.31 L2247.49 1294.54 L2252.79 1274.31 L2257.05 1274.31 L2250.26 1300.23 L2245.24 1300.23 L2239.66 1278.98 L2234.06 1300.23 L2229.04 1300.23 L2222.25 1274.31 Z" fill="#000000" fill-rule="nonzero" fill-opacity="1" /><polyline clip-path="url(#clip980)" style="stroke:#e26f46; stroke-linecap:round; stroke-linejoin:round; stroke-width:4; stroke-opacity:1; fill:none" points="1589.35,1334.79 1732.91,1334.79 "/>
<path clip-path="url(#clip980)" d="M1756.84 1317.51 L1776.7 1317.51 L1776.7 1321.45 L1761.52 1321.45 L1761.52 1331.63 L1775.22 1331.63 L1775.22 1335.57 L1761.52 1335.57 L1761.52 1352.07 L1756.84 1352.07 L1756.84 1317.51 Z" fill="#000000" fill-rule="nonzero" fill-opacity="1" /><path clip-path="url(#clip980)" d="M1780.47 1326.15 L1784.73 1326.15 L1784.73 1352.07 L1780.47 1352.07 L1780.47 1326.15 M1780.47 1316.06 L1784.73 1316.06 L1784.73 1321.45 L1780.47 1321.45 L1780.47 1316.06 Z" fill="#000000" fill-rule="nonzero" fill-opacity="1" /><path clip-path="url(#clip980)" d="M1793.65 1316.06 L1797.9 1316.06 L1797.9 1352.07 L1793.65 1352.07 L1793.65 1316.06 Z" fill="#000000" fill-rule="nonzero" fill-opacity="1" /><path clip-path="url(#clip980)" d="M1811.03 1318.79 L1811.03 1326.15 L1819.8 1326.15 L1819.8 1329.46 L1811.03 1329.46 L1811.03 1343.53 Q1811.03 1346.7 1811.89 1347.61 Q1812.77 1348.51 1815.43 1348.51 L1819.8 1348.51 L1819.8 1352.07 L1815.43 1352.07 Q1810.5 1352.07 1808.62 1350.25 Q1806.75 1348.39 1806.75 1343.53 L1806.75 1329.46 L1803.62 1329.46 L1803.62 1326.15 L1806.75 1326.15 L1806.75 1318.79 L1811.03 1318.79 Z" fill="#000000" fill-rule="nonzero" fill-opacity="1" /><path clip-path="url(#clip980)" d="M1847.58 1338.05 L1847.58 1340.13 L1828 1340.13 Q1828.28 1344.53 1830.64 1346.84 Q1833.02 1349.13 1837.26 1349.13 Q1839.71 1349.13 1842 1348.53 Q1844.32 1347.93 1846.59 1346.73 L1846.59 1350.75 Q1844.29 1351.73 1841.89 1352.24 Q1839.48 1352.75 1837 1352.75 Q1830.8 1352.75 1827.16 1349.13 Q1823.55 1345.52 1823.55 1339.37 Q1823.55 1333 1826.98 1329.27 Q1830.43 1325.52 1836.26 1325.52 Q1841.49 1325.52 1844.53 1328.9 Q1847.58 1332.26 1847.58 1338.05 M1843.32 1336.8 Q1843.28 1333.3 1841.35 1331.22 Q1839.46 1329.13 1836.31 1329.13 Q1832.74 1329.13 1830.59 1331.15 Q1828.46 1333.16 1828.14 1336.82 L1843.32 1336.8 Z" fill="#000000" fill-rule="nonzero" fill-opacity="1" /><path clip-path="url(#clip980)" d="M1869.59 1330.13 Q1868.88 1329.71 1868.02 1329.53 Q1867.19 1329.32 1866.17 1329.32 Q1862.56 1329.32 1860.61 1331.68 Q1858.69 1334.02 1858.69 1338.42 L1858.69 1352.07 L1854.41 1352.07 L1854.41 1326.15 L1858.69 1326.15 L1858.69 1330.18 Q1860.03 1327.82 1862.19 1326.68 Q1864.34 1325.52 1867.42 1325.52 Q1867.86 1325.52 1868.39 1325.59 Q1868.92 1325.64 1869.57 1325.76 L1869.59 1330.13 Z" fill="#000000" fill-rule="nonzero" fill-opacity="1" /><path clip-path="url(#clip980)" d="M1895.2 1338.05 L1895.2 1340.13 L1875.61 1340.13 Q1875.89 1344.53 1878.25 1346.84 Q1880.64 1349.13 1884.87 1349.13 Q1887.33 1349.13 1889.62 1348.53 Q1891.93 1347.93 1894.2 1346.73 L1894.2 1350.75 Q1891.91 1351.73 1889.5 1352.24 Q1887.09 1352.75 1884.62 1352.75 Q1878.41 1352.75 1874.78 1349.13 Q1871.17 1345.52 1871.17 1339.37 Q1871.17 1333 1874.59 1329.27 Q1878.04 1325.52 1883.88 1325.52 Q1889.11 1325.52 1892.14 1328.9 Q1895.2 1332.26 1895.2 1338.05 M1890.94 1336.8 Q1890.89 1333.3 1888.97 1331.22 Q1887.07 1329.13 1883.92 1329.13 Q1880.36 1329.13 1878.21 1331.15 Q1876.08 1333.16 1875.75 1336.82 L1890.94 1336.8 Z" fill="#000000" fill-rule="nonzero" fill-opacity="1" /><path clip-path="url(#clip980)" d="M1919.25 1330.08 L1919.25 1316.06 L1923.51 1316.06 L1923.51 1352.07 L1919.25 1352.07 L1919.25 1348.19 Q1917.9 1350.5 1915.84 1351.63 Q1913.81 1352.75 1910.94 1352.75 Q1906.24 1352.75 1903.27 1349 Q1900.33 1345.25 1900.33 1339.13 Q1900.33 1333.02 1903.27 1329.27 Q1906.24 1325.52 1910.94 1325.52 Q1913.81 1325.52 1915.84 1326.66 Q1917.9 1327.77 1919.25 1330.08 M1904.73 1339.13 Q1904.73 1343.83 1906.65 1346.52 Q1908.6 1349.18 1911.98 1349.18 Q1915.36 1349.18 1917.3 1346.52 Q1919.25 1343.83 1919.25 1339.13 Q1919.25 1334.44 1917.3 1331.77 Q1915.36 1329.09 1911.98 1329.09 Q1908.6 1329.09 1906.65 1331.77 Q1904.73 1334.44 1904.73 1339.13 Z" fill="#000000" fill-rule="nonzero" fill-opacity="1" /><path clip-path="url(#clip980)" d="M1947.35 1316.06 L1951.61 1316.06 L1951.61 1352.07 L1947.35 1352.07 L1947.35 1316.06 Z" fill="#000000" fill-rule="nonzero" fill-opacity="1" /><path clip-path="url(#clip980)" d="M1982.7 1338.05 L1982.7 1340.13 L1963.11 1340.13 Q1963.39 1344.53 1965.75 1346.84 Q1968.14 1349.13 1972.37 1349.13 Q1974.83 1349.13 1977.12 1348.53 Q1979.43 1347.93 1981.7 1346.73 L1981.7 1350.75 Q1979.41 1351.73 1977 1352.24 Q1974.59 1352.75 1972.12 1352.75 Q1965.91 1352.75 1962.28 1349.13 Q1958.67 1345.52 1958.67 1339.37 Q1958.67 1333 1962.09 1329.27 Q1965.54 1325.52 1971.38 1325.52 Q1976.61 1325.52 1979.64 1328.9 Q1982.7 1332.26 1982.7 1338.05 M1978.44 1336.8 Q1978.39 1333.3 1976.47 1331.22 Q1974.57 1329.13 1971.42 1329.13 Q1967.86 1329.13 1965.7 1331.15 Q1963.58 1333.16 1963.25 1336.82 L1978.44 1336.8 Z" fill="#000000" fill-rule="nonzero" fill-opacity="1" /><path clip-path="url(#clip980)" d="M1986.63 1326.15 L1991.14 1326.15 L1999.25 1347.91 L2007.35 1326.15 L2011.86 1326.15 L2002.14 1352.07 L1996.35 1352.07 L1986.63 1326.15 Z" fill="#000000" fill-rule="nonzero" fill-opacity="1" /><path clip-path="url(#clip980)" d="M2039.92 1338.05 L2039.92 1340.13 L2020.33 1340.13 Q2020.61 1344.53 2022.97 1346.84 Q2025.36 1349.13 2029.59 1349.13 Q2032.05 1349.13 2034.34 1348.53 Q2036.65 1347.93 2038.92 1346.73 L2038.92 1350.75 Q2036.63 1351.73 2034.22 1352.24 Q2031.82 1352.75 2029.34 1352.75 Q2023.14 1352.75 2019.5 1349.13 Q2015.89 1345.52 2015.89 1339.37 Q2015.89 1333 2019.32 1329.27 Q2022.76 1325.52 2028.6 1325.52 Q2033.83 1325.52 2036.86 1328.9 Q2039.92 1332.26 2039.92 1338.05 M2035.66 1336.8 Q2035.61 1333.3 2033.69 1331.22 Q2031.79 1329.13 2028.64 1329.13 Q2025.08 1329.13 2022.93 1331.15 Q2020.8 1333.16 2020.47 1336.82 L2035.66 1336.8 Z" fill="#000000" fill-rule="nonzero" fill-opacity="1" /><path clip-path="url(#clip980)" d="M2046.91 1316.06 L2051.17 1316.06 L2051.17 1352.07 L2046.91 1352.07 L2046.91 1316.06 Z" fill="#000000" fill-rule="nonzero" fill-opacity="1" /><polyline clip-path="url(#clip980)" style="stroke:#3da44d; stroke-linecap:round; stroke-linejoin:round; stroke-width:4; stroke-opacity:1; fill:none" points="1589.35,1386.63 1732.91,1386.63 "/>
<path clip-path="url(#clip980)" d="M1779.09 1370.49 L1779.09 1375.05 Q1776.42 1373.78 1774.06 1373.15 Q1771.7 1372.53 1769.5 1372.53 Q1765.68 1372.53 1763.6 1374.01 Q1761.54 1375.49 1761.54 1378.22 Q1761.54 1380.51 1762.91 1381.69 Q1764.29 1382.85 1768.14 1383.57 L1770.96 1384.15 Q1776.19 1385.14 1778.67 1387.66 Q1781.17 1390.16 1781.17 1394.38 Q1781.17 1399.4 1777.79 1401.99 Q1774.43 1404.59 1767.93 1404.59 Q1765.47 1404.59 1762.7 1404.03 Q1759.94 1403.47 1756.98 1402.39 L1756.98 1397.57 Q1759.83 1399.17 1762.56 1399.98 Q1765.29 1400.79 1767.93 1400.79 Q1771.93 1400.79 1774.11 1399.22 Q1776.28 1397.64 1776.28 1394.72 Q1776.28 1392.18 1774.71 1390.74 Q1773.16 1389.31 1769.59 1388.59 L1766.75 1388.03 Q1761.52 1386.99 1759.18 1384.77 Q1756.84 1382.55 1756.84 1378.59 Q1756.84 1374.01 1760.06 1371.37 Q1763.3 1368.73 1768.97 1368.73 Q1771.4 1368.73 1773.92 1369.17 Q1776.45 1369.61 1779.09 1370.49 Z" fill="#000000" fill-rule="nonzero" fill-opacity="1" /><path clip-path="url(#clip980)" d="M1808.46 1382.97 Q1810.06 1380.1 1812.28 1378.73 Q1814.5 1377.36 1817.51 1377.36 Q1821.56 1377.36 1823.76 1380.21 Q1825.96 1383.03 1825.96 1388.27 L1825.96 1403.91 L1821.68 1403.91 L1821.68 1388.41 Q1821.68 1384.68 1820.36 1382.87 Q1819.04 1381.07 1816.33 1381.07 Q1813.02 1381.07 1811.1 1383.27 Q1809.18 1385.47 1809.18 1389.26 L1809.18 1403.91 L1804.9 1403.91 L1804.9 1388.41 Q1804.9 1384.66 1803.58 1382.87 Q1802.26 1381.07 1799.5 1381.07 Q1796.24 1381.07 1794.32 1383.29 Q1792.4 1385.49 1792.4 1389.26 L1792.4 1403.91 L1788.11 1403.91 L1788.11 1377.99 L1792.4 1377.99 L1792.4 1382.02 Q1793.85 1379.63 1795.89 1378.5 Q1797.93 1377.36 1800.73 1377.36 Q1803.55 1377.36 1805.52 1378.8 Q1807.51 1380.23 1808.46 1382.97 Z" fill="#000000" fill-rule="nonzero" fill-opacity="1" /><path clip-path="url(#clip980)" d="M1844.5 1380.97 Q1841.08 1380.97 1839.09 1383.66 Q1837.09 1386.32 1837.09 1390.97 Q1837.09 1395.63 1839.06 1398.31 Q1841.05 1400.97 1844.5 1400.97 Q1847.9 1400.97 1849.9 1398.29 Q1851.89 1395.6 1851.89 1390.97 Q1851.89 1386.37 1849.9 1383.68 Q1847.9 1380.97 1844.5 1380.97 M1844.5 1377.36 Q1850.06 1377.36 1853.23 1380.97 Q1856.4 1384.59 1856.4 1390.97 Q1856.4 1397.34 1853.23 1400.97 Q1850.06 1404.59 1844.5 1404.59 Q1838.92 1404.59 1835.75 1400.97 Q1832.6 1397.34 1832.6 1390.97 Q1832.6 1384.59 1835.75 1380.97 Q1838.92 1377.36 1844.5 1377.36 Z" fill="#000000" fill-rule="nonzero" fill-opacity="1" /><path clip-path="url(#clip980)" d="M1873.51 1380.97 Q1870.08 1380.97 1868.09 1383.66 Q1866.1 1386.32 1866.1 1390.97 Q1866.1 1395.63 1868.07 1398.31 Q1870.06 1400.97 1873.51 1400.97 Q1876.91 1400.97 1878.9 1398.29 Q1880.89 1395.6 1880.89 1390.97 Q1880.89 1386.37 1878.9 1383.68 Q1876.91 1380.97 1873.51 1380.97 M1873.51 1377.36 Q1879.06 1377.36 1882.23 1380.97 Q1885.4 1384.59 1885.4 1390.97 Q1885.4 1397.34 1882.23 1400.97 Q1879.06 1404.59 1873.51 1404.59 Q1867.93 1404.59 1864.76 1400.97 Q1861.61 1397.34 1861.61 1390.97 Q1861.61 1384.59 1864.76 1380.97 Q1867.93 1377.36 1873.51 1377.36 Z" fill="#000000" fill-rule="nonzero" fill-opacity="1" /><path clip-path="url(#clip980)" d="M1896.68 1370.63 L1896.68 1377.99 L1905.45 1377.99 L1905.45 1381.3 L1896.68 1381.3 L1896.68 1395.37 Q1896.68 1398.54 1897.53 1399.45 Q1898.41 1400.35 1901.08 1400.35 L1905.45 1400.35 L1905.45 1403.91 L1901.08 1403.91 Q1896.15 1403.91 1894.27 1402.09 Q1892.4 1400.23 1892.4 1395.37 L1892.4 1381.3 L1889.27 1381.3 L1889.27 1377.99 L1892.4 1377.99 L1892.4 1370.63 L1896.68 1370.63 Z" fill="#000000" fill-rule="nonzero" fill-opacity="1" /><path clip-path="url(#clip980)" d="M1932.6 1388.27 L1932.6 1403.91 L1928.34 1403.91 L1928.34 1388.41 Q1928.34 1384.72 1926.91 1382.9 Q1925.47 1381.07 1922.6 1381.07 Q1919.15 1381.07 1917.16 1383.27 Q1915.17 1385.47 1915.17 1389.26 L1915.17 1403.91 L1910.89 1403.91 L1910.89 1367.9 L1915.17 1367.9 L1915.17 1382.02 Q1916.7 1379.68 1918.76 1378.52 Q1920.84 1377.36 1923.55 1377.36 Q1928.02 1377.36 1930.31 1380.14 Q1932.6 1382.9 1932.6 1388.27 Z" fill="#000000" fill-rule="nonzero" fill-opacity="1" /><path clip-path="url(#clip980)" d="M1963.27 1389.89 L1963.27 1391.97 L1943.69 1391.97 Q1943.97 1396.37 1946.33 1398.68 Q1948.71 1400.97 1952.95 1400.97 Q1955.4 1400.97 1957.7 1400.37 Q1960.01 1399.77 1962.28 1398.57 L1962.28 1402.59 Q1959.99 1403.57 1957.58 1404.08 Q1955.17 1404.59 1952.7 1404.59 Q1946.49 1404.59 1942.86 1400.97 Q1939.25 1397.36 1939.25 1391.21 Q1939.25 1384.84 1942.67 1381.11 Q1946.12 1377.36 1951.96 1377.36 Q1957.19 1377.36 1960.22 1380.74 Q1963.27 1384.1 1963.27 1389.89 M1959.02 1388.64 Q1958.97 1385.14 1957.05 1383.06 Q1955.15 1380.97 1952 1380.97 Q1948.44 1380.97 1946.28 1382.99 Q1944.15 1385 1943.83 1388.66 L1959.02 1388.64 Z" fill="#000000" fill-rule="nonzero" fill-opacity="1" /><path clip-path="url(#clip980)" d="M1987.33 1381.92 L1987.33 1367.9 L1991.58 1367.9 L1991.58 1403.91 L1987.33 1403.91 L1987.33 1400.03 Q1985.98 1402.34 1983.92 1403.47 Q1981.89 1404.59 1979.02 1404.59 Q1974.32 1404.59 1971.35 1400.84 Q1968.41 1397.09 1968.41 1390.97 Q1968.41 1384.86 1971.35 1381.11 Q1974.32 1377.36 1979.02 1377.36 Q1981.89 1377.36 1983.92 1378.5 Q1985.98 1379.61 1987.33 1381.92 M1972.81 1390.97 Q1972.81 1395.67 1974.73 1398.36 Q1976.68 1401.02 1980.06 1401.02 Q1983.44 1401.02 1985.38 1398.36 Q1987.33 1395.67 1987.33 1390.97 Q1987.33 1386.28 1985.38 1383.61 Q1983.44 1380.93 1980.06 1380.93 Q1976.68 1380.93 1974.73 1383.61 Q1972.81 1386.28 1972.81 1390.97 Z" fill="#000000" fill-rule="nonzero" fill-opacity="1" /><path clip-path="url(#clip980)" d="M2015.43 1367.9 L2019.69 1367.9 L2019.69 1403.91 L2015.43 1403.91 L2015.43 1367.9 Z" fill="#000000" fill-rule="nonzero" fill-opacity="1" /><path clip-path="url(#clip980)" d="M2050.77 1389.89 L2050.77 1391.97 L2031.19 1391.97 Q2031.47 1396.37 2033.83 1398.68 Q2036.21 1400.97 2040.45 1400.97 Q2042.9 1400.97 2045.2 1400.37 Q2047.51 1399.77 2049.78 1398.57 L2049.78 1402.59 Q2047.49 1403.57 2045.08 1404.08 Q2042.67 1404.59 2040.2 1404.59 Q2033.99 1404.59 2030.36 1400.97 Q2026.75 1397.36 2026.75 1391.21 Q2026.75 1384.84 2030.17 1381.11 Q2033.62 1377.36 2039.45 1377.36 Q2044.69 1377.36 2047.72 1380.74 Q2050.77 1384.1 2050.77 1389.89 M2046.51 1388.64 Q2046.47 1385.14 2044.55 1383.06 Q2042.65 1380.97 2039.5 1380.97 Q2035.94 1380.97 2033.78 1382.99 Q2031.65 1385 2031.33 1388.66 L2046.51 1388.64 Z" fill="#000000" fill-rule="nonzero" fill-opacity="1" /><path clip-path="url(#clip980)" d="M2054.71 1377.99 L2059.22 1377.99 L2067.32 1399.75 L2075.43 1377.99 L2079.94 1377.99 L2070.22 1403.91 L2064.43 1403.91 L2054.71 1377.99 Z" fill="#000000" fill-rule="nonzero" fill-opacity="1" /><path clip-path="url(#clip980)" d="M2108 1389.89 L2108 1391.97 L2088.41 1391.97 Q2088.69 1396.37 2091.05 1398.68 Q2093.44 1400.97 2097.67 1400.97 Q2100.13 1400.97 2102.42 1400.37 Q2104.73 1399.77 2107 1398.57 L2107 1402.59 Q2104.71 1403.57 2102.3 1404.08 Q2099.89 1404.59 2097.42 1404.59 Q2091.21 1404.59 2087.58 1400.97 Q2083.97 1397.36 2083.97 1391.21 Q2083.97 1384.84 2087.39 1381.11 Q2090.84 1377.36 2096.68 1377.36 Q2101.91 1377.36 2104.94 1380.74 Q2108 1384.1 2108 1389.89 M2103.74 1388.64 Q2103.69 1385.14 2101.77 1383.06 Q2099.87 1380.97 2096.72 1380.97 Q2093.16 1380.97 2091.01 1382.99 Q2088.88 1385 2088.55 1388.66 L2103.74 1388.64 Z" fill="#000000" fill-rule="nonzero" fill-opacity="1" /><path clip-path="url(#clip980)" d="M2114.99 1367.9 L2119.25 1367.9 L2119.25 1403.91 L2114.99 1403.91 L2114.99 1367.9 Z" fill="#000000" fill-rule="nonzero" fill-opacity="1" /></svg>
