<?xml version="1.0" encoding="utf-8"?>
<svg xmlns="http://www.w3.org/2000/svg" xmlns:xlink="http://www.w3.org/1999/xlink" width="600" height="400" viewBox="0 0 2400 1600">
<defs>
  <clipPath id="clip800">
    <rect x="0" y="0" width="2400" height="1600"/>
  </clipPath>
</defs>
<path clip-path="url(#clip800)" d="M0 1600 L2400 1600 L2400 0 L0 0  Z" fill="#ffffff" fill-rule="evenodd" fill-opacity="1"/>
<defs>
  <clipPath id="clip801">
    <rect x="480" y="0" width="1681" height="1600"/>
  </clipPath>
</defs>
<path clip-path="url(#clip800)" d="M199.283 1486.45 L2352.76 1486.45 L2352.76 47.2441 L199.283 47.2441  Z" fill="#ffffff" fill-rule="evenodd" fill-opacity="1"/>
<defs>
  <clipPath id="clip802">
    <rect x="199" y="47" width="2154" height="1440"/>
  </clipPath>
</defs>
<polyline clip-path="url(#clip802)" style="stroke:#000000; stroke-linecap:round; stroke-linejoin:round; stroke-width:2; stroke-opacity:0.1; fill:none" points="204.301,1486.45 204.301,47.2441 "/>
<polyline clip-path="url(#clip802)" style="stroke:#000000; stroke-linecap:round; stroke-linejoin:round; stroke-width:2; stroke-opacity:0.1; fill:none" points="744.868,1486.45 744.868,47.2441 "/>
<polyline clip-path="url(#clip802)" style="stroke:#000000; stroke-linecap:round; stroke-linejoin:round; stroke-width:2; stroke-opacity:0.1; fill:none" points="1285.33,1486.45 1285.33,47.2441 "/>
<polyline clip-path="url(#clip802)" style="stroke:#000000; stroke-linecap:round; stroke-linejoin:round; stroke-width:2; stroke-opacity:0.1; fill:none" points="1825.85,1486.45 1825.85,47.2441 "/>
<polyline clip-path="url(#clip802)" style="stroke:#000000; stroke-linecap:round; stroke-linejoin:round; stroke-width:2; stroke-opacity:0.1; fill:none" points="199.283,1231.8 2352.76,1231.8 "/>
<polyline clip-path="url(#clip802)" style="stroke:#000000; stroke-linecap:round; stroke-linejoin:round; stroke-width:2; stroke-opacity:0.1; fill:none" points="199.283,934.707 2352.76,934.707 "/>
<polyline clip-path="url(#clip802)" style="stroke:#000000; stroke-linecap:round; stroke-linejoin:round; stroke-width:2; stroke-opacity:0.1; fill:none" points="199.283,637.608 2352.76,637.608 "/>
<polyline clip-path="url(#clip802)" style="stroke:#000000; stroke-linecap:round; stroke-linejoin:round; stroke-width:2; stroke-opacity:0.1; fill:none" points="199.283,340.51 2352.76,340.51 "/>
<polyline clip-path="url(#clip800)" style="stroke:#000000; stroke-linecap:round; stroke-linejoin:round; stroke-width:4; stroke-opacity:1; fill:none" points="199.283,1486.45 2352.76,1486.45 "/>
<polyline clip-path="url(#clip800)" style="stroke:#000000; stroke-linecap:round; stroke-linejoin:round; stroke-width:4; stroke-opacity:1; fill:none" points="204.301,1486.45 204.301,1467.55 "/>
<polyline clip-path="url(#clip800)" style="stroke:#000000; stroke-linecap:round; stroke-linejoin:round; stroke-width:4; stroke-opacity:1; fill:none" points="744.868,1486.45 744.868,1467.55 "/>
<polyline clip-path="url(#clip800)" style="stroke:#000000; stroke-linecap:round; stroke-linejoin:round; stroke-width:4; stroke-opacity:1; fill:none" points="1285.33,1486.45 1285.33,1467.55 "/>
<polyline clip-path="url(#clip800)" style="stroke:#000000; stroke-linecap:round; stroke-linejoin:round; stroke-width:4; stroke-opacity:1; fill:none" points="1825.85,1486.45 1825.85,1467.55 "/>
<path clip-path="url(#clip800)" d="M72.0101 1544.91 L79.6489 1544.91 L79.6489 1518.55 L71.3388 1520.21 L71.3388 1515.95 L79.6026 1514.29 L84.2785 1514.29 L84.2785 1544.91 L91.9174 1544.91 L91.9174 1548.85 L72.0101 1548.85 L72.0101 1544.91 Z" fill="#000000" fill-rule="nonzero" fill-opacity="1" /><path clip-path="url(#clip800)" d="M111.362 1532.44 Q108.028 1532.44 106.107 1534.22 Q104.209 1536 104.209 1539.13 Q104.209 1542.25 106.107 1544.03 Q108.028 1545.82 111.362 1545.82 Q114.695 1545.82 116.616 1544.03 Q118.538 1542.23 118.538 1539.13 Q118.538 1536 116.616 1534.22 Q114.718 1532.44 111.362 1532.44 M106.686 1530.45 Q103.677 1529.7 101.987 1527.64 Q100.32 1525.58 100.32 1522.62 Q100.32 1518.48 103.26 1516.07 Q106.223 1513.66 111.362 1513.66 Q116.524 1513.66 119.464 1516.07 Q122.403 1518.48 122.403 1522.62 Q122.403 1525.58 120.714 1527.64 Q119.047 1529.7 116.061 1530.45 Q119.44 1531.23 121.315 1533.52 Q123.213 1535.82 123.213 1539.13 Q123.213 1544.15 120.135 1546.83 Q117.079 1549.52 111.362 1549.52 Q105.644 1549.52 102.565 1546.83 Q99.5099 1544.15 99.5099 1539.13 Q99.5099 1535.82 101.408 1533.52 Q103.306 1531.23 106.686 1530.45 M104.973 1523.06 Q104.973 1525.75 106.64 1527.25 Q108.329 1528.76 111.362 1528.76 Q114.371 1528.76 116.061 1527.25 Q117.774 1525.75 117.774 1523.06 Q117.774 1520.38 116.061 1518.87 Q114.371 1517.37 111.362 1517.37 Q108.329 1517.37 106.64 1518.87 Q104.973 1520.38 104.973 1523.06 Z" fill="#000000" fill-rule="nonzero" fill-opacity="1" /><path clip-path="url(#clip800)" d="M142.102 1529.7 Q138.954 1529.7 137.102 1531.86 Q135.274 1534.01 135.274 1537.76 Q135.274 1541.49 137.102 1543.66 Q138.954 1545.82 142.102 1545.82 Q145.25 1545.82 147.079 1543.66 Q148.931 1541.49 148.931 1537.76 Q148.931 1534.01 147.079 1531.86 Q145.25 1529.7 142.102 1529.7 M151.385 1515.05 L151.385 1519.31 Q149.625 1518.48 147.82 1518.04 Q146.037 1517.6 144.278 1517.6 Q139.649 1517.6 137.195 1520.72 Q134.764 1523.85 134.417 1530.17 Q135.783 1528.15 137.843 1527.09 Q139.903 1526 142.38 1526 Q147.588 1526 150.598 1529.17 Q153.63 1532.32 153.63 1537.76 Q153.63 1543.08 150.482 1546.3 Q147.334 1549.52 142.102 1549.52 Q136.107 1549.52 132.936 1544.94 Q129.764 1540.33 129.764 1531.6 Q129.764 1523.41 133.653 1518.55 Q137.542 1513.66 144.093 1513.66 Q145.852 1513.66 147.635 1514.01 Q149.44 1514.36 151.385 1515.05 Z" fill="#000000" fill-rule="nonzero" fill-opacity="1" /><path clip-path="url(#clip800)" d="M171.685 1532.44 Q168.352 1532.44 166.431 1534.22 Q164.533 1536 164.533 1539.13 Q164.533 1542.25 166.431 1544.03 Q168.352 1545.82 171.685 1545.82 Q175.019 1545.82 176.94 1544.03 Q178.861 1542.23 178.861 1539.13 Q178.861 1536 176.94 1534.22 Q175.042 1532.44 171.685 1532.44 M167.01 1530.45 Q164 1529.7 162.311 1527.64 Q160.644 1525.58 160.644 1522.62 Q160.644 1518.48 163.584 1516.07 Q166.547 1513.66 171.685 1513.66 Q176.847 1513.66 179.787 1516.07 Q182.727 1518.48 182.727 1522.62 Q182.727 1525.58 181.037 1527.64 Q179.371 1529.7 176.385 1530.45 Q179.764 1531.23 181.639 1533.52 Q183.537 1535.82 183.537 1539.13 Q183.537 1544.15 180.459 1546.83 Q177.403 1549.52 171.685 1549.52 Q165.968 1549.52 162.889 1546.83 Q159.834 1544.15 159.834 1539.13 Q159.834 1535.82 161.732 1533.52 Q163.63 1531.23 167.01 1530.45 M165.297 1523.06 Q165.297 1525.75 166.963 1527.25 Q168.653 1528.76 171.685 1528.76 Q174.695 1528.76 176.385 1527.25 Q178.097 1525.75 178.097 1523.06 Q178.097 1520.38 176.385 1518.87 Q174.695 1517.37 171.685 1517.37 Q168.653 1517.37 166.963 1518.87 Q165.297 1520.38 165.297 1523.06 Z" fill="#000000" fill-rule="nonzero" fill-opacity="1" /><path clip-path="url(#clip800)" d="M189.093 1533.96 L201.57 1533.96 L201.57 1537.76 L189.093 1537.76 L189.093 1533.96 Z" fill="#000000" fill-rule="nonzero" fill-opacity="1" /><path clip-path="url(#clip800)" d="M218.954 1517.37 Q215.343 1517.37 213.514 1520.93 Q211.708 1524.47 211.708 1531.6 Q211.708 1538.71 213.514 1542.27 Q215.343 1545.82 218.954 1545.82 Q222.588 1545.82 224.394 1542.27 Q226.222 1538.71 226.222 1531.6 Q226.222 1524.47 224.394 1520.93 Q222.588 1517.37 218.954 1517.37 M218.954 1513.66 Q224.764 1513.66 227.819 1518.27 Q230.898 1522.85 230.898 1531.6 Q230.898 1540.33 227.819 1544.94 Q224.764 1549.52 218.954 1549.52 Q213.144 1549.52 210.065 1544.94 Q207.009 1540.33 207.009 1531.6 Q207.009 1522.85 210.065 1518.27 Q213.144 1513.66 218.954 1513.66 Z" fill="#000000" fill-rule="nonzero" fill-opacity="1" /><path clip-path="url(#clip800)" d="M239.926 1544.91 L247.565 1544.91 L247.565 1518.55 L239.255 1520.21 L239.255 1515.95 L247.518 1514.29 L252.194 1514.29 L252.194 1544.91 L259.833 1544.91 L259.833 1548.85 L239.926 1548.85 L239.926 1544.91 Z" fill="#000000" fill-rule="nonzero" fill-opacity="1" /><path clip-path="url(#clip800)" d="M266.523 1533.96 L279 1533.96 L279 1537.76 L266.523 1537.76 L266.523 1533.96 Z" fill="#000000" fill-rule="nonzero" fill-opacity="1" /><path clip-path="url(#clip800)" d="M296.384 1517.37 Q292.773 1517.37 290.944 1520.93 Q289.139 1524.47 289.139 1531.6 Q289.139 1538.71 290.944 1542.27 Q292.773 1545.82 296.384 1545.82 Q300.018 1545.82 301.824 1542.27 Q303.652 1538.71 303.652 1531.6 Q303.652 1524.47 301.824 1520.93 Q300.018 1517.37 296.384 1517.37 M296.384 1513.66 Q302.194 1513.66 305.25 1518.27 Q308.328 1522.85 308.328 1531.6 Q308.328 1540.33 305.25 1544.94 Q302.194 1549.52 296.384 1549.52 Q290.574 1549.52 287.495 1544.94 Q284.439 1540.33 284.439 1531.6 Q284.439 1522.85 287.495 1518.27 Q290.574 1513.66 296.384 1513.66 Z" fill="#000000" fill-rule="nonzero" fill-opacity="1" /><path clip-path="url(#clip800)" d="M317.356 1544.91 L324.995 1544.91 L324.995 1518.55 L316.685 1520.21 L316.685 1515.95 L324.949 1514.29 L329.624 1514.29 L329.624 1544.91 L337.263 1544.91 L337.263 1548.85 L317.356 1548.85 L317.356 1544.91 Z" fill="#000000" fill-rule="nonzero" fill-opacity="1" /><path clip-path="url(#clip800)" d="M612.577 1544.91 L620.216 1544.91 L620.216 1518.55 L611.906 1520.21 L611.906 1515.95 L620.169 1514.29 L624.845 1514.29 L624.845 1544.91 L632.484 1544.91 L632.484 1548.85 L612.577 1548.85 L612.577 1544.91 Z" fill="#000000" fill-rule="nonzero" fill-opacity="1" /><path clip-path="url(#clip800)" d="M651.929 1532.44 Q648.595 1532.44 646.674 1534.22 Q644.776 1536 644.776 1539.13 Q644.776 1542.25 646.674 1544.03 Q648.595 1545.82 651.929 1545.82 Q655.262 1545.82 657.183 1544.03 Q659.104 1542.23 659.104 1539.13 Q659.104 1536 657.183 1534.22 Q655.285 1532.44 651.929 1532.44 M647.253 1530.45 Q644.243 1529.7 642.554 1527.64 Q640.887 1525.58 640.887 1522.62 Q640.887 1518.48 643.827 1516.07 Q646.79 1513.66 651.929 1513.66 Q657.091 1513.66 660.03 1516.07 Q662.97 1518.48 662.97 1522.62 Q662.97 1525.58 661.28 1527.64 Q659.614 1529.7 656.628 1530.45 Q660.007 1531.23 661.882 1533.52 Q663.78 1535.82 663.78 1539.13 Q663.78 1544.15 660.702 1546.83 Q657.646 1549.52 651.929 1549.52 Q646.211 1549.52 643.132 1546.83 Q640.077 1544.15 640.077 1539.13 Q640.077 1535.82 641.975 1533.52 Q643.873 1531.23 647.253 1530.45 M645.54 1523.06 Q645.54 1525.75 647.206 1527.25 Q648.896 1528.76 651.929 1528.76 Q654.938 1528.76 656.628 1527.25 Q658.341 1525.75 658.341 1523.06 Q658.341 1520.38 656.628 1518.87 Q654.938 1517.37 651.929 1517.37 Q648.896 1517.37 647.206 1518.87 Q645.54 1520.38 645.54 1523.06 Z" fill="#000000" fill-rule="nonzero" fill-opacity="1" /><path clip-path="url(#clip800)" d="M672.229 1548.13 L672.229 1543.87 Q673.989 1544.7 675.794 1545.14 Q677.6 1545.58 679.336 1545.58 Q683.965 1545.58 686.396 1542.48 Q688.85 1539.36 689.197 1533.01 Q687.854 1535.01 685.794 1536.07 Q683.734 1537.13 681.234 1537.13 Q676.049 1537.13 673.016 1534.01 Q670.007 1530.86 670.007 1525.42 Q670.007 1520.1 673.155 1516.88 Q676.303 1513.66 681.535 1513.66 Q687.53 1513.66 690.678 1518.27 Q693.85 1522.85 693.85 1531.6 Q693.85 1539.77 689.961 1544.66 Q686.095 1549.52 679.544 1549.52 Q677.785 1549.52 675.979 1549.17 Q674.174 1548.82 672.229 1548.13 M681.535 1533.48 Q684.683 1533.48 686.512 1531.32 Q688.364 1529.17 688.364 1525.42 Q688.364 1521.7 686.512 1519.54 Q684.683 1517.37 681.535 1517.37 Q678.387 1517.37 676.535 1519.54 Q674.706 1521.7 674.706 1525.42 Q674.706 1529.17 676.535 1531.32 Q678.387 1533.48 681.535 1533.48 Z" fill="#000000" fill-rule="nonzero" fill-opacity="1" /><path clip-path="url(#clip800)" d="M701.072 1514.29 L723.294 1514.29 L723.294 1516.28 L710.748 1548.85 L705.863 1548.85 L717.669 1518.22 L701.072 1518.22 L701.072 1514.29 Z" fill="#000000" fill-rule="nonzero" fill-opacity="1" /><path clip-path="url(#clip800)" d="M729.66 1533.96 L742.136 1533.96 L742.136 1537.76 L729.66 1537.76 L729.66 1533.96 Z" fill="#000000" fill-rule="nonzero" fill-opacity="1" /><path clip-path="url(#clip800)" d="M759.521 1517.37 Q755.909 1517.37 754.081 1520.93 Q752.275 1524.47 752.275 1531.6 Q752.275 1538.71 754.081 1542.27 Q755.909 1545.82 759.521 1545.82 Q763.155 1545.82 764.96 1542.27 Q766.789 1538.71 766.789 1531.6 Q766.789 1524.47 764.96 1520.93 Q763.155 1517.37 759.521 1517.37 M759.521 1513.66 Q765.331 1513.66 768.386 1518.27 Q771.465 1522.85 771.465 1531.6 Q771.465 1540.33 768.386 1544.94 Q765.331 1549.52 759.521 1549.52 Q753.71 1549.52 750.632 1544.94 Q747.576 1540.33 747.576 1531.6 Q747.576 1522.85 750.632 1518.27 Q753.71 1513.66 759.521 1513.66 Z" fill="#000000" fill-rule="nonzero" fill-opacity="1" /><path clip-path="url(#clip800)" d="M780.493 1544.91 L788.132 1544.91 L788.132 1518.55 L779.821 1520.21 L779.821 1515.95 L788.085 1514.29 L792.761 1514.29 L792.761 1544.91 L800.4 1544.91 L800.4 1548.85 L780.493 1548.85 L780.493 1544.91 Z" fill="#000000" fill-rule="nonzero" fill-opacity="1" /><path clip-path="url(#clip800)" d="M807.09 1533.96 L819.567 1533.96 L819.567 1537.76 L807.09 1537.76 L807.09 1533.96 Z" fill="#000000" fill-rule="nonzero" fill-opacity="1" /><path clip-path="url(#clip800)" d="M836.951 1517.37 Q833.34 1517.37 831.511 1520.93 Q829.705 1524.47 829.705 1531.6 Q829.705 1538.71 831.511 1542.27 Q833.34 1545.82 836.951 1545.82 Q840.585 1545.82 842.39 1542.27 Q844.219 1538.71 844.219 1531.6 Q844.219 1524.47 842.39 1520.93 Q840.585 1517.37 836.951 1517.37 M836.951 1513.66 Q842.761 1513.66 845.816 1518.27 Q848.895 1522.85 848.895 1531.6 Q848.895 1540.33 845.816 1544.94 Q842.761 1549.52 836.951 1549.52 Q831.141 1549.52 828.062 1544.94 Q825.006 1540.33 825.006 1531.6 Q825.006 1522.85 828.062 1518.27 Q831.141 1513.66 836.951 1513.66 Z" fill="#000000" fill-rule="nonzero" fill-opacity="1" /><path clip-path="url(#clip800)" d="M857.923 1544.91 L865.562 1544.91 L865.562 1518.55 L857.252 1520.21 L857.252 1515.95 L865.515 1514.29 L870.191 1514.29 L870.191 1544.91 L877.83 1544.91 L877.83 1548.85 L857.923 1548.85 L857.923 1544.91 Z" fill="#000000" fill-rule="nonzero" fill-opacity="1" /><path clip-path="url(#clip800)" d="M1153.04 1544.91 L1160.68 1544.91 L1160.68 1518.55 L1152.37 1520.21 L1152.37 1515.95 L1160.63 1514.29 L1165.31 1514.29 L1165.31 1544.91 L1172.95 1544.91 L1172.95 1548.85 L1153.04 1548.85 L1153.04 1544.91 Z" fill="#000000" fill-rule="nonzero" fill-opacity="1" /><path clip-path="url(#clip800)" d="M1182.53 1548.13 L1182.53 1543.87 Q1184.29 1544.7 1186.1 1545.14 Q1187.9 1545.58 1189.64 1545.58 Q1194.27 1545.58 1196.7 1542.48 Q1199.15 1539.36 1199.5 1533.01 Q1198.16 1535.01 1196.1 1536.07 Q1194.04 1537.13 1191.54 1537.13 Q1186.35 1537.13 1183.32 1534.01 Q1180.31 1530.86 1180.31 1525.42 Q1180.31 1520.1 1183.46 1516.88 Q1186.61 1513.66 1191.84 1513.66 Q1197.83 1513.66 1200.98 1518.27 Q1204.15 1522.85 1204.15 1531.6 Q1204.15 1539.77 1200.26 1544.66 Q1196.4 1549.52 1189.85 1549.52 Q1188.09 1549.52 1186.28 1549.17 Q1184.48 1548.82 1182.53 1548.13 M1191.84 1533.48 Q1194.99 1533.48 1196.81 1531.32 Q1198.67 1529.17 1198.67 1525.42 Q1198.67 1521.7 1196.81 1519.54 Q1194.99 1517.37 1191.84 1517.37 Q1188.69 1517.37 1186.84 1519.54 Q1185.01 1521.7 1185.01 1525.42 Q1185.01 1529.17 1186.84 1531.32 Q1188.69 1533.48 1191.84 1533.48 Z" fill="#000000" fill-rule="nonzero" fill-opacity="1" /><path clip-path="url(#clip800)" d="M1216.58 1544.91 L1232.9 1544.91 L1232.9 1548.85 L1210.96 1548.85 L1210.96 1544.91 Q1213.62 1542.16 1218.2 1537.53 Q1222.81 1532.88 1223.99 1531.53 Q1226.24 1529.01 1227.12 1527.27 Q1228.02 1525.51 1228.02 1523.82 Q1228.02 1521.07 1226.07 1519.33 Q1224.15 1517.6 1221.05 1517.6 Q1218.85 1517.6 1216.4 1518.36 Q1213.97 1519.13 1211.19 1520.68 L1211.19 1515.95 Q1214.01 1514.82 1216.47 1514.24 Q1218.92 1513.66 1220.96 1513.66 Q1226.33 1513.66 1229.52 1516.35 Q1232.72 1519.03 1232.72 1523.52 Q1232.72 1525.65 1231.91 1527.57 Q1231.12 1529.47 1229.01 1532.07 Q1228.43 1532.74 1225.33 1535.95 Q1222.23 1539.15 1216.58 1544.91 Z" fill="#000000" fill-rule="nonzero" fill-opacity="1" /><path clip-path="url(#clip800)" d="M1253.3 1529.7 Q1250.15 1529.7 1248.3 1531.86 Q1246.47 1534.01 1246.47 1537.76 Q1246.47 1541.49 1248.3 1543.66 Q1250.15 1545.82 1253.3 1545.82 Q1256.44 1545.82 1258.27 1543.66 Q1260.12 1541.49 1260.12 1537.76 Q1260.12 1534.01 1258.27 1531.86 Q1256.44 1529.7 1253.3 1529.7 M1262.58 1515.05 L1262.58 1519.31 Q1260.82 1518.48 1259.01 1518.04 Q1257.23 1517.6 1255.47 1517.6 Q1250.84 1517.6 1248.39 1520.72 Q1245.96 1523.85 1245.61 1530.17 Q1246.98 1528.15 1249.04 1527.09 Q1251.1 1526 1253.57 1526 Q1258.78 1526 1261.79 1529.17 Q1264.82 1532.32 1264.82 1537.76 Q1264.82 1543.08 1261.68 1546.3 Q1258.53 1549.52 1253.3 1549.52 Q1247.3 1549.52 1244.13 1544.94 Q1240.96 1540.33 1240.96 1531.6 Q1240.96 1523.41 1244.85 1518.55 Q1248.74 1513.66 1255.29 1513.66 Q1257.05 1513.66 1258.83 1514.01 Q1260.63 1514.36 1262.58 1515.05 Z" fill="#000000" fill-rule="nonzero" fill-opacity="1" /><path clip-path="url(#clip800)" d="M1270.12 1533.96 L1282.6 1533.96 L1282.6 1537.76 L1270.12 1537.76 L1270.12 1533.96 Z" fill="#000000" fill-rule="nonzero" fill-opacity="1" /><path clip-path="url(#clip800)" d="M1299.99 1517.37 Q1296.37 1517.37 1294.55 1520.93 Q1292.74 1524.47 1292.74 1531.6 Q1292.74 1538.71 1294.55 1542.27 Q1296.37 1545.82 1299.99 1545.82 Q1303.62 1545.82 1305.43 1542.27 Q1307.25 1538.71 1307.25 1531.6 Q1307.25 1524.47 1305.43 1520.93 Q1303.62 1517.37 1299.99 1517.37 M1299.99 1513.66 Q1305.8 1513.66 1308.85 1518.27 Q1311.93 1522.85 1311.93 1531.6 Q1311.93 1540.33 1308.85 1544.94 Q1305.8 1549.52 1299.99 1549.52 Q1294.18 1549.52 1291.1 1544.94 Q1288.04 1540.33 1288.04 1531.6 Q1288.04 1522.85 1291.1 1518.27 Q1294.18 1513.66 1299.99 1513.66 Z" fill="#000000" fill-rule="nonzero" fill-opacity="1" /><path clip-path="url(#clip800)" d="M1320.96 1544.91 L1328.6 1544.91 L1328.6 1518.55 L1320.29 1520.21 L1320.29 1515.95 L1328.55 1514.29 L1333.23 1514.29 L1333.23 1544.91 L1340.86 1544.91 L1340.86 1548.85 L1320.96 1548.85 L1320.96 1544.91 Z" fill="#000000" fill-rule="nonzero" fill-opacity="1" /><path clip-path="url(#clip800)" d="M1347.55 1533.96 L1360.03 1533.96 L1360.03 1537.76 L1347.55 1537.76 L1347.55 1533.96 Z" fill="#000000" fill-rule="nonzero" fill-opacity="1" /><path clip-path="url(#clip800)" d="M1377.42 1517.37 Q1373.8 1517.37 1371.98 1520.93 Q1370.17 1524.47 1370.17 1531.6 Q1370.17 1538.71 1371.98 1542.27 Q1373.8 1545.82 1377.42 1545.82 Q1381.05 1545.82 1382.86 1542.27 Q1384.68 1538.71 1384.68 1531.6 Q1384.68 1524.47 1382.86 1520.93 Q1381.05 1517.37 1377.42 1517.37 M1377.42 1513.66 Q1383.23 1513.66 1386.28 1518.27 Q1389.36 1522.85 1389.36 1531.6 Q1389.36 1540.33 1386.28 1544.94 Q1383.23 1549.52 1377.42 1549.52 Q1371.61 1549.52 1368.53 1544.94 Q1365.47 1540.33 1365.47 1531.6 Q1365.47 1522.85 1368.53 1518.27 Q1371.61 1513.66 1377.42 1513.66 Z" fill="#000000" fill-rule="nonzero" fill-opacity="1" /><path clip-path="url(#clip800)" d="M1398.39 1544.91 L1406.03 1544.91 L1406.03 1518.55 L1397.72 1520.21 L1397.72 1515.95 L1405.98 1514.29 L1410.66 1514.29 L1410.66 1544.91 L1418.29 1544.91 L1418.29 1548.85 L1398.39 1548.85 L1398.39 1544.91 Z" fill="#000000" fill-rule="nonzero" fill-opacity="1" /><path clip-path="url(#clip800)" d="M1693.56 1544.91 L1701.2 1544.91 L1701.2 1518.55 L1692.89 1520.21 L1692.89 1515.95 L1701.15 1514.29 L1705.83 1514.29 L1705.83 1544.91 L1713.46 1544.91 L1713.46 1548.85 L1693.56 1548.85 L1693.56 1544.91 Z" fill="#000000" fill-rule="nonzero" fill-opacity="1" /><path clip-path="url(#clip800)" d="M1723.05 1548.13 L1723.05 1543.87 Q1724.81 1544.7 1726.61 1545.14 Q1728.42 1545.58 1730.15 1545.58 Q1734.78 1545.58 1737.21 1542.48 Q1739.67 1539.36 1740.02 1533.01 Q1738.67 1535.01 1736.61 1536.07 Q1734.55 1537.13 1732.05 1537.13 Q1726.87 1537.13 1723.84 1534.01 Q1720.83 1530.86 1720.83 1525.42 Q1720.83 1520.1 1723.97 1516.88 Q1727.12 1513.66 1732.35 1513.66 Q1738.35 1513.66 1741.5 1518.27 Q1744.67 1522.85 1744.67 1531.6 Q1744.67 1539.77 1740.78 1544.66 Q1736.91 1549.52 1730.36 1549.52 Q1728.6 1549.52 1726.8 1549.17 Q1724.99 1548.82 1723.05 1548.13 M1732.35 1533.48 Q1735.5 1533.48 1737.33 1531.32 Q1739.18 1529.17 1739.18 1525.42 Q1739.18 1521.7 1737.33 1519.54 Q1735.5 1517.37 1732.35 1517.37 Q1729.21 1517.37 1727.35 1519.54 Q1725.52 1521.7 1725.52 1525.42 Q1725.52 1529.17 1727.35 1531.32 Q1729.21 1533.48 1732.35 1533.48 Z" fill="#000000" fill-rule="nonzero" fill-opacity="1" /><path clip-path="url(#clip800)" d="M1753.12 1514.29 L1771.47 1514.29 L1771.47 1518.22 L1757.4 1518.22 L1757.4 1526.7 Q1758.42 1526.35 1759.44 1526.19 Q1760.46 1526 1761.47 1526 Q1767.26 1526 1770.64 1529.17 Q1774.02 1532.34 1774.02 1537.76 Q1774.02 1543.34 1770.55 1546.44 Q1767.08 1549.52 1760.76 1549.52 Q1758.58 1549.52 1756.31 1549.15 Q1754.07 1548.78 1751.66 1548.04 L1751.66 1543.34 Q1753.74 1544.47 1755.96 1545.03 Q1758.19 1545.58 1760.66 1545.58 Q1764.67 1545.58 1767.01 1543.48 Q1769.34 1541.37 1769.34 1537.76 Q1769.34 1534.15 1767.01 1532.04 Q1764.67 1529.94 1760.66 1529.94 Q1758.79 1529.94 1756.91 1530.35 Q1755.06 1530.77 1753.12 1531.65 L1753.12 1514.29 Z" fill="#000000" fill-rule="nonzero" fill-opacity="1" /><path clip-path="url(#clip800)" d="M1783.28 1514.29 L1801.64 1514.29 L1801.64 1518.22 L1787.56 1518.22 L1787.56 1526.7 Q1788.58 1526.35 1789.6 1526.19 Q1790.62 1526 1791.64 1526 Q1797.42 1526 1800.8 1529.17 Q1804.18 1532.34 1804.18 1537.76 Q1804.18 1543.34 1800.71 1546.44 Q1797.24 1549.52 1790.92 1549.52 Q1788.74 1549.52 1786.47 1549.15 Q1784.23 1548.78 1781.82 1548.04 L1781.82 1543.34 Q1783.9 1544.47 1786.13 1545.03 Q1788.35 1545.58 1790.83 1545.58 Q1794.83 1545.58 1797.17 1543.48 Q1799.51 1541.37 1799.51 1537.76 Q1799.51 1534.15 1797.17 1532.04 Q1794.83 1529.94 1790.83 1529.94 Q1788.95 1529.94 1787.08 1530.35 Q1785.22 1530.77 1783.28 1531.65 L1783.28 1514.29 Z" fill="#000000" fill-rule="nonzero" fill-opacity="1" /><path clip-path="url(#clip800)" d="M1810.64 1533.96 L1823.12 1533.96 L1823.12 1537.76 L1810.64 1537.76 L1810.64 1533.96 Z" fill="#000000" fill-rule="nonzero" fill-opacity="1" /><path clip-path="url(#clip800)" d="M1840.5 1517.37 Q1836.89 1517.37 1835.06 1520.93 Q1833.26 1524.47 1833.26 1531.6 Q1833.26 1538.71 1835.06 1542.27 Q1836.89 1545.82 1840.5 1545.82 Q1844.14 1545.82 1845.94 1542.27 Q1847.77 1538.71 1847.77 1531.6 Q1847.77 1524.47 1845.94 1520.93 Q1844.14 1517.37 1840.5 1517.37 M1840.5 1513.66 Q1846.31 1513.66 1849.37 1518.27 Q1852.45 1522.85 1852.45 1531.6 Q1852.45 1540.33 1849.37 1544.94 Q1846.31 1549.52 1840.5 1549.52 Q1834.69 1549.52 1831.61 1544.94 Q1828.56 1540.33 1828.56 1531.6 Q1828.56 1522.85 1831.61 1518.27 Q1834.69 1513.66 1840.5 1513.66 Z" fill="#000000" fill-rule="nonzero" fill-opacity="1" /><path clip-path="url(#clip800)" d="M1861.47 1544.91 L1869.11 1544.91 L1869.11 1518.55 L1860.8 1520.21 L1860.8 1515.95 L1869.07 1514.29 L1873.74 1514.29 L1873.74 1544.91 L1881.38 1544.91 L1881.38 1548.85 L1861.47 1548.85 L1861.47 1544.91 Z" fill="#000000" fill-rule="nonzero" fill-opacity="1" /><path clip-path="url(#clip800)" d="M1888.07 1533.96 L1900.55 1533.96 L1900.55 1537.76 L1888.07 1537.76 L1888.07 1533.96 Z" fill="#000000" fill-rule="nonzero" fill-opacity="1" /><path clip-path="url(#clip800)" d="M1917.93 1517.37 Q1914.32 1517.37 1912.49 1520.93 Q1910.69 1524.47 1910.69 1531.6 Q1910.69 1538.71 1912.49 1542.27 Q1914.32 1545.82 1917.93 1545.82 Q1921.57 1545.82 1923.37 1542.27 Q1925.2 1538.71 1925.2 1531.6 Q1925.2 1524.47 1923.37 1520.93 Q1921.57 1517.37 1917.93 1517.37 M1917.93 1513.66 Q1923.74 1513.66 1926.8 1518.27 Q1929.88 1522.85 1929.88 1531.6 Q1929.88 1540.33 1926.8 1544.94 Q1923.74 1549.52 1917.93 1549.52 Q1912.12 1549.52 1909.04 1544.94 Q1905.99 1540.33 1905.99 1531.6 Q1905.99 1522.85 1909.04 1518.27 Q1912.12 1513.66 1917.93 1513.66 Z" fill="#000000" fill-rule="nonzero" fill-opacity="1" /><path clip-path="url(#clip800)" d="M1938.9 1544.91 L1946.54 1544.91 L1946.54 1518.55 L1938.23 1520.21 L1938.23 1515.95 L1946.5 1514.29 L1951.17 1514.29 L1951.17 1544.91 L1958.81 1544.91 L1958.81 1548.85 L1938.9 1548.85 L1938.9 1544.91 Z" fill="#000000" fill-rule="nonzero" fill-opacity="1" /><polyline clip-path="url(#clip800)" style="stroke:#000000; stroke-linecap:round; stroke-linejoin:round; stroke-width:4; stroke-opacity:1; fill:none" points="199.283,1486.45 199.283,47.2441 "/>
<polyline clip-path="url(#clip800)" style="stroke:#000000; stroke-linecap:round; stroke-linejoin:round; stroke-width:4; stroke-opacity:1; fill:none" points="199.283,1231.8 218.181,1231.8 "/>
<polyline clip-path="url(#clip800)" style="stroke:#000000; stroke-linecap:round; stroke-linejoin:round; stroke-width:4; stroke-opacity:1; fill:none" points="199.283,934.707 218.181,934.707 "/>
<polyline clip-path="url(#clip800)" style="stroke:#000000; stroke-linecap:round; stroke-linejoin:round; stroke-width:4; stroke-opacity:1; fill:none" points="199.283,637.608 218.181,637.608 "/>
<polyline clip-path="url(#clip800)" style="stroke:#000000; stroke-linecap:round; stroke-linejoin:round; stroke-width:4; stroke-opacity:1; fill:none" points="199.283,340.51 218.181,340.51 "/>
<path clip-path="url(#clip800)" d="M91.5938 1229.94 Q88.4456 1229.94 86.5938 1232.09 Q84.7651 1234.25 84.7651 1238 Q84.7651 1241.72 86.5938 1243.9 Q88.4456 1246.05 91.5938 1246.05 Q94.7419 1246.05 96.5706 1243.9 Q98.4224 1241.72 98.4224 1238 Q98.4224 1234.25 96.5706 1232.09 Q94.7419 1229.94 91.5938 1229.94 M100.876 1215.29 L100.876 1219.55 Q99.1169 1218.71 97.3113 1218.27 Q95.5289 1217.84 93.7697 1217.84 Q89.1401 1217.84 86.6864 1220.96 Q84.2558 1224.09 83.9086 1230.4 Q85.2743 1228.39 87.3345 1227.33 Q89.3947 1226.24 91.8715 1226.24 Q97.0798 1226.24 100.089 1229.41 Q103.121 1232.56 103.121 1238 Q103.121 1243.32 99.9733 1246.54 Q96.8252 1249.76 91.5938 1249.76 Q85.5984 1249.76 82.4271 1245.17 Q79.2559 1240.57 79.2559 1231.84 Q79.2559 1223.65 83.1447 1218.78 Q87.0336 1213.9 93.5845 1213.9 Q95.3437 1213.9 97.1261 1214.25 Q98.9317 1214.59 100.876 1215.29 Z" fill="#000000" fill-rule="nonzero" fill-opacity="1" /><path clip-path="url(#clip800)" d="M121.177 1217.6 Q117.566 1217.6 115.737 1221.17 Q113.932 1224.71 113.932 1231.84 Q113.932 1238.95 115.737 1242.51 Q117.566 1246.05 121.177 1246.05 Q124.811 1246.05 126.617 1242.51 Q128.445 1238.95 128.445 1231.84 Q128.445 1224.71 126.617 1221.17 Q124.811 1217.6 121.177 1217.6 M121.177 1213.9 Q126.987 1213.9 130.043 1218.51 Q133.121 1223.09 133.121 1231.84 Q133.121 1240.57 130.043 1245.17 Q126.987 1249.76 121.177 1249.76 Q115.367 1249.76 112.288 1245.17 Q109.233 1240.57 109.233 1231.84 Q109.233 1223.09 112.288 1218.51 Q115.367 1213.9 121.177 1213.9 Z" fill="#000000" fill-rule="nonzero" fill-opacity="1" /><path clip-path="url(#clip800)" d="M151.339 1217.6 Q147.728 1217.6 145.899 1221.17 Q144.093 1224.71 144.093 1231.84 Q144.093 1238.95 145.899 1242.51 Q147.728 1246.05 151.339 1246.05 Q154.973 1246.05 156.779 1242.51 Q158.607 1238.95 158.607 1231.84 Q158.607 1224.71 156.779 1221.17 Q154.973 1217.6 151.339 1217.6 M151.339 1213.9 Q157.149 1213.9 160.205 1218.51 Q163.283 1223.09 163.283 1231.84 Q163.283 1240.57 160.205 1245.17 Q157.149 1249.76 151.339 1249.76 Q145.529 1249.76 142.45 1245.17 Q139.394 1240.57 139.394 1231.84 Q139.394 1223.09 142.45 1218.51 Q145.529 1213.9 151.339 1213.9 Z" fill="#000000" fill-rule="nonzero" fill-opacity="1" /><path clip-path="url(#clip800)" d="M91.0151 935.575 Q87.6817 935.575 85.7605 937.357 Q83.8623 939.139 83.8623 942.264 Q83.8623 945.389 85.7605 947.172 Q87.6817 948.954 91.0151 948.954 Q94.3484 948.954 96.2697 947.172 Q98.1909 945.366 98.1909 942.264 Q98.1909 939.139 96.2697 937.357 Q94.3715 935.575 91.0151 935.575 M86.3392 933.584 Q83.3299 932.843 81.6401 930.783 Q79.9735 928.723 79.9735 925.76 Q79.9735 921.616 82.9133 919.209 Q85.8762 916.802 91.0151 916.802 Q96.1771 916.802 99.1169 919.209 Q102.057 921.616 102.057 925.76 Q102.057 928.723 100.367 930.783 Q98.7002 932.843 95.7141 933.584 Q99.0937 934.371 100.969 936.663 Q102.867 938.954 102.867 942.264 Q102.867 947.287 99.7882 949.973 Q96.7326 952.658 91.0151 952.658 Q85.2975 952.658 82.2188 949.973 Q79.1633 947.287 79.1633 942.264 Q79.1633 938.954 81.0614 936.663 Q82.9595 934.371 86.3392 933.584 M84.6262 926.2 Q84.6262 928.885 86.2929 930.389 Q87.9827 931.894 91.0151 931.894 Q94.0243 931.894 95.7141 930.389 Q97.4271 928.885 97.4271 926.2 Q97.4271 923.514 95.7141 922.01 Q94.0243 920.505 91.0151 920.505 Q87.9827 920.505 86.2929 922.01 Q84.6262 923.514 84.6262 926.2 Z" fill="#000000" fill-rule="nonzero" fill-opacity="1" /><path clip-path="url(#clip800)" d="M121.177 920.505 Q117.566 920.505 115.737 924.07 Q113.932 927.612 113.932 934.741 Q113.932 941.848 115.737 945.413 Q117.566 948.954 121.177 948.954 Q124.811 948.954 126.617 945.413 Q128.445 941.848 128.445 934.741 Q128.445 927.612 126.617 924.07 Q124.811 920.505 121.177 920.505 M121.177 916.802 Q126.987 916.802 130.043 921.408 Q133.121 925.991 133.121 934.741 Q133.121 943.468 130.043 948.075 Q126.987 952.658 121.177 952.658 Q115.367 952.658 112.288 948.075 Q109.233 943.468 109.233 934.741 Q109.233 925.991 112.288 921.408 Q115.367 916.802 121.177 916.802 Z" fill="#000000" fill-rule="nonzero" fill-opacity="1" /><path clip-path="url(#clip800)" d="M151.339 920.505 Q147.728 920.505 145.899 924.07 Q144.093 927.612 144.093 934.741 Q144.093 941.848 145.899 945.413 Q147.728 948.954 151.339 948.954 Q154.973 948.954 156.779 945.413 Q158.607 941.848 158.607 934.741 Q158.607 927.612 156.779 924.07 Q154.973 920.505 151.339 920.505 M151.339 916.802 Q157.149 916.802 160.205 921.408 Q163.283 925.991 163.283 934.741 Q163.283 943.468 160.205 948.075 Q157.149 952.658 151.339 952.658 Q145.529 952.658 142.45 948.075 Q139.394 943.468 139.394 934.741 Q139.394 925.991 142.45 921.408 Q145.529 916.802 151.339 916.802 Z" fill="#000000" fill-rule="nonzero" fill-opacity="1" /><path clip-path="url(#clip800)" d="M51.6634 650.953 L59.3023 650.953 L59.3023 624.587 L50.9921 626.254 L50.9921 621.995 L59.256 620.328 L63.9319 620.328 L63.9319 650.953 L71.5707 650.953 L71.5707 654.888 L51.6634 654.888 L51.6634 650.953 Z" fill="#000000" fill-rule="nonzero" fill-opacity="1" /><path clip-path="url(#clip800)" d="M91.0151 623.407 Q87.404 623.407 85.5753 626.972 Q83.7697 630.513 83.7697 637.643 Q83.7697 644.749 85.5753 648.314 Q87.404 651.856 91.0151 651.856 Q94.6493 651.856 96.4548 648.314 Q98.2835 644.749 98.2835 637.643 Q98.2835 630.513 96.4548 626.972 Q94.6493 623.407 91.0151 623.407 M91.0151 619.703 Q96.8252 619.703 99.8808 624.31 Q102.959 628.893 102.959 637.643 Q102.959 646.37 99.8808 650.976 Q96.8252 655.559 91.0151 655.559 Q85.2049 655.559 82.1262 650.976 Q79.0707 646.37 79.0707 637.643 Q79.0707 628.893 82.1262 624.31 Q85.2049 619.703 91.0151 619.703 Z" fill="#000000" fill-rule="nonzero" fill-opacity="1" /><path clip-path="url(#clip800)" d="M121.177 623.407 Q117.566 623.407 115.737 626.972 Q113.932 630.513 113.932 637.643 Q113.932 644.749 115.737 648.314 Q117.566 651.856 121.177 651.856 Q124.811 651.856 126.617 648.314 Q128.445 644.749 128.445 637.643 Q128.445 630.513 126.617 626.972 Q124.811 623.407 121.177 623.407 M121.177 619.703 Q126.987 619.703 130.043 624.31 Q133.121 628.893 133.121 637.643 Q133.121 646.37 130.043 650.976 Q126.987 655.559 121.177 655.559 Q115.367 655.559 112.288 650.976 Q109.233 646.37 109.233 637.643 Q109.233 628.893 112.288 624.31 Q115.367 619.703 121.177 619.703 Z" fill="#000000" fill-rule="nonzero" fill-opacity="1" /><path clip-path="url(#clip800)" d="M151.339 623.407 Q147.728 623.407 145.899 626.972 Q144.093 630.513 144.093 637.643 Q144.093 644.749 145.899 648.314 Q147.728 651.856 151.339 651.856 Q154.973 651.856 156.779 648.314 Q158.607 644.749 158.607 637.643 Q158.607 630.513 156.779 626.972 Q154.973 623.407 151.339 623.407 M151.339 619.703 Q157.149 619.703 160.205 624.31 Q163.283 628.893 163.283 637.643 Q163.283 646.37 160.205 650.976 Q157.149 655.559 151.339 655.559 Q145.529 655.559 142.45 650.976 Q139.394 646.37 139.394 637.643 Q139.394 628.893 142.45 624.31 Q145.529 619.703 151.339 619.703 Z" fill="#000000" fill-rule="nonzero" fill-opacity="1" /><path clip-path="url(#clip800)" d="M51.6634 353.855 L59.3023 353.855 L59.3023 327.489 L50.9921 329.156 L50.9921 324.897 L59.256 323.23 L63.9319 323.23 L63.9319 353.855 L71.5707 353.855 L71.5707 357.79 L51.6634 357.79 L51.6634 353.855 Z" fill="#000000" fill-rule="nonzero" fill-opacity="1" /><path clip-path="url(#clip800)" d="M85.0429 353.855 L101.362 353.855 L101.362 357.79 L79.4179 357.79 L79.4179 353.855 Q82.0799 351.1 86.6632 346.47 Q91.2697 341.818 92.4502 340.475 Q94.6956 337.952 95.5752 336.216 Q96.478 334.457 96.478 332.767 Q96.478 330.012 94.5336 328.276 Q92.6123 326.54 89.5104 326.54 Q87.3114 326.54 84.8577 327.304 Q82.4271 328.068 79.6494 329.619 L79.6494 324.897 Q82.4734 323.762 84.9271 323.184 Q87.3808 322.605 89.4178 322.605 Q94.7882 322.605 97.9826 325.29 Q101.177 327.975 101.177 332.466 Q101.177 334.596 100.367 336.517 Q99.5798 338.415 97.4734 341.008 Q96.8947 341.679 93.7928 344.896 Q90.691 348.091 85.0429 353.855 Z" fill="#000000" fill-rule="nonzero" fill-opacity="1" /><path clip-path="url(#clip800)" d="M121.177 326.309 Q117.566 326.309 115.737 329.873 Q113.932 333.415 113.932 340.545 Q113.932 347.651 115.737 351.216 Q117.566 354.757 121.177 354.757 Q124.811 354.757 126.617 351.216 Q128.445 347.651 128.445 340.545 Q128.445 333.415 126.617 329.873 Q124.811 326.309 121.177 326.309 M121.177 322.605 Q126.987 322.605 130.043 327.211 Q133.121 331.795 133.121 340.545 Q133.121 349.271 130.043 353.878 Q126.987 358.461 121.177 358.461 Q115.367 358.461 112.288 353.878 Q109.233 349.271 109.233 340.545 Q109.233 331.795 112.288 327.211 Q115.367 322.605 121.177 322.605 Z" fill="#000000" fill-rule="nonzero" fill-opacity="1" /><path clip-path="url(#clip800)" d="M151.339 326.309 Q147.728 326.309 145.899 329.873 Q144.093 333.415 144.093 340.545 Q144.093 347.651 145.899 351.216 Q147.728 354.757 151.339 354.757 Q154.973 354.757 156.779 351.216 Q158.607 347.651 158.607 340.545 Q158.607 333.415 156.779 329.873 Q154.973 326.309 151.339 326.309 M151.339 322.605 Q157.149 322.605 160.205 327.211 Q163.283 331.795 163.283 340.545 Q163.283 349.271 160.205 353.878 Q157.149 358.461 151.339 358.461 Q145.529 358.461 142.45 353.878 Q139.394 349.271 139.394 340.545 Q139.394 331.795 142.45 327.211 Q145.529 322.605 151.339 322.605 Z" fill="#000000" fill-rule="nonzero" fill-opacity="1" /><polyline clip-path="url(#clip802)" style="stroke:#009af9; stroke-linecap:round; stroke-linejoin:round; stroke-width:4; stroke-opacity:1; fill:none" points="260.231,459.349 278.857,399.93 297.534,692.571 316.16,325.655 334.786,399.93 353.412,399.93 372.09,915.395 390.716,295.945 409.342,87.9763 427.968,429.639 446.645,645.036 465.271,734.165 483.898,474.204 502.524,646.521 521.201,607.898 539.827,697.028 558.453,370.22 577.079,936.192 595.757,699.999 614.383,429.639 633.009,489.059 651.635,325.655 670.312,414.784 688.938,266.235 707.565,251.38 726.191,310.8 744.868,593.043 763.494,489.059 782.12,973.329 800.746,875.287 819.372,824.78 837.999,1092.17 856.625,726.738 875.251,885.685 893.928,1081.77 912.554,762.39 931.18,1095.14 949.807,607.898 968.484,563.334 987.11,683.658 1005.74,888.656 1024.36,1044.63 1043.04,1445.72 1061.67,899.055 1080.29,1080.28 1098.92,459.349 1117.6,489.059 1136.22,887.171 1154.85,988.184 1173.47,903.511 1192.15,982.242 1210.78,867.859 1229.4,839.635 1248.03,842.606 1266.71,1086.23 1285.33,867.859 1303.96,1017.89 1322.58,940.649 1341.26,578.189 1359.89,995.612 1378.51,962.931 1397.14,838.15 1415.82,867.859 1434.44,720.796 1453.07,661.376 1471.7,790.614 1490.37,902.026 1509,622.753 1527.63,977.786 1546.25,1118.91 1564.93,1159.02 1583.56,866.374 1602.18,916.881 1620.81,1020.87 1639.48,933.221 1658.11,578.189 1676.74,845.577 1695.36,824.78 1714.04,863.403 1732.67,801.012 1751.29,1017.89 1769.92,1010.47 1788.6,878.258 1807.22,563.334 1825.85,759.419 1844.47,658.405 1863.15,939.163 1881.78,751.991 1900.4,674.745 1919.03,912.424 1937.71,607.898 1956.33,777.244 1974.96,784.672 1993.59,385.075 2012.26,768.331 2030.89,1014.92 2049.52,757.933 2068.14,1056.52 2086.82,1062.46 2105.44,1023.84 "/>
<polyline clip-path="url(#clip802)" style="stroke:#e26f46; stroke-linecap:round; stroke-linejoin:round; stroke-width:4; stroke-opacity:1; fill:none" points="260.231,484.112 278.857,440.364 297.534,536.553 316.16,468.324 334.786,448.083 353.412,434.503 372.09,566.634 390.716,493.297 409.342,384.313 427.968,396.451 446.645,462.873 465.271,535.277 483.898,518.988 502.524,552.991 521.201,567.628 539.827,602.12 558.453,540.31 577.079,645.823 595.757,660.262 614.383,598.797 633.009,569.549 651.635,504.547 670.312,480.623 688.938,423.485 707.565,377.616 726.191,359.808 744.868,421.97 763.494,439.85 782.12,582.033 800.746,660.191 819.372,704.057 837.999,807.496 856.625,785.972 875.251,812.548 893.928,884.301 912.554,851.809 931.18,916.661 949.807,834.37 968.484,762.134 987.11,741.219 1005.74,780.514 1024.36,850.906 1043.04,1009.43 1061.67,980.016 1080.29,1006.74 1098.92,860.85 1117.6,761.76 1136.22,795.185 1154.85,846.623 1173.47,861.785 1192.15,893.889 1210.78,886.952 1229.4,874.341 1248.03,865.883 1266.71,924.609 1285.33,909.484 1303.96,938.377 1322.58,938.983 1341.26,842.824 1359.89,883.545 1378.51,904.703 1397.14,886.965 1415.82,881.873 1434.44,838.943 1453.07,791.618 1471.7,791.35 1490.37,820.847 1509,768.052 1527.63,823.95 1546.25,902.562 1564.93,970.912 1583.56,943.05 1602.18,936.076 1620.81,958.674 1639.48,951.89 1658.11,852.291 1676.74,850.502 1695.36,843.647 1714.04,848.912 1732.67,836.146 1751.29,884.585 1769.92,918.135 1788.6,907.507 1807.22,815.778 1825.85,800.757 1844.47,762.818 1863.15,809.817 1881.78,794.405 1900.4,762.514 1919.03,802.468 1937.71,750.611 1956.33,757.71 1974.96,764.896 1993.59,663.666 2012.26,691.561 2030.89,777.743 2049.52,772.464 2068.14,848.169 2086.82,905.281 2105.44,936.879 "/>
<polyline clip-path="url(#clip802)" style="stroke:#3da44d; stroke-linecap:round; stroke-linejoin:round; stroke-width:4; stroke-opacity:1; fill:none" points="260.231,478.379 278.857,477.815 297.534,484.794 316.16,471.651 334.786,472.647 353.412,480.685 372.09,496.544 390.716,471.84 409.342,464.171 427.968,492.933 446.645,527.824 465.271,551.364 483.898,557.201 502.524,571.076 521.201,577.645 539.827,581.284 558.453,573.714 577.079,585.851 595.757,564.06 614.383,529.105 633.009,503.782 651.635,479.885 670.312,470.924 688.938,467.399 707.565,483.356 726.191,521.778 744.868,580.632 763.494,638.283 782.12,710.386 800.746,757.025 819.372,792.211 837.999,824.243 856.625,830.328 875.251,846.445 893.928,858.762 912.554,849.483 931.18,848.637 949.807,823.92 968.484,820.123 987.11,841.194 1005.74,877.521 1024.36,912.77 1043.04,935.249 1061.67,908.293 1080.29,882.232 1098.92,836.99 1117.6,828.321 1136.22,852.506 1154.85,873.334 1173.47,883.041 1192.15,890.764 1210.78,889.629 1229.4,890.602 1248.03,896.51 1266.71,907.639 1285.33,901.473 1303.96,898.562 1322.58,884.094 1341.26,864.15 1359.89,871.899 1378.51,867.667 1397.14,854.21 1415.82,842.307 1434.44,827.931 1453.07,823.929 1471.7,835.67 1490.37,851.774 1509,863.012 1527.63,897.517 1546.25,924.248 1564.93,932.128 1583.56,918.036 1602.18,908.946 1620.81,899.088 1639.48,877.437 1658.11,850.384 1676.74,849.691 1695.36,849.396 1714.04,851.485 1732.67,852.42 1751.29,858.334 1769.92,848.795 1788.6,823.6 1807.22,793.111 1825.85,784.874 1844.47,779.103 1863.15,785.02 1881.78,776.01 1900.4,769.326 1919.03,771.801 1937.71,760.658 1956.33,764.309 1974.96,766.707 1993.59,767.366 2012.26,805.046 2030.89,846.282 2049.52,871.187 2068.14,907.059 2086.82,928.457 2105.44,936.879 "/>
<polyline clip-path="url(#clip802)" style="stroke:#c271d2; stroke-linecap:round; stroke-linejoin:round; stroke-width:4; stroke-opacity:1; fill:none" points="2124.07,936.879 2142.7,936.879 2161.37,936.879 2180,936.879 2198.63,936.879 2217.25,936.879 2235.93,936.879 2254.56,936.879 2273.18,936.879 2291.81,936.879 "/>
<path clip-path="url(#clip800)" d="M1567.67 1438.47 L2280.97 1438.47 L2280.97 1179.27 L1567.67 1179.27  Z" fill="#ffffff" fill-rule="evenodd" fill-opacity="1"/>
<polyline clip-path="url(#clip800)" style="stroke:#000000; stroke-linecap:round; stroke-linejoin:round; stroke-width:4; stroke-opacity:1; fill:none" points="1567.67,1438.47 2280.97,1438.47 2280.97,1179.27 1567.67,1179.27 1567.67,1438.47 "/>
<polyline clip-path="url(#clip800)" style="stroke:#009af9; stroke-linecap:round; stroke-linejoin:round; stroke-width:4; stroke-opacity:1; fill:none" points="1591.59,1231.11 1735.16,1231.11 "/>
<path clip-path="url(#clip800)" d="M1759.09 1213.83 L1765.38 1213.83 L1780.71 1242.75 L1780.71 1213.83 L1785.24 1213.83 L1785.24 1248.39 L1778.95 1248.39 L1763.62 1219.48 L1763.62 1248.39 L1759.09 1248.39 L1759.09 1213.83 Z" fill="#000000" fill-rule="nonzero" fill-opacity="1" /><path clip-path="url(#clip800)" d="M1794.36 1222.47 L1798.62 1222.47 L1798.62 1248.39 L1794.36 1248.39 L1794.36 1222.47 M1794.36 1212.38 L1798.62 1212.38 L1798.62 1217.77 L1794.36 1217.77 L1794.36 1212.38 Z" fill="#000000" fill-rule="nonzero" fill-opacity="1" /><path clip-path="url(#clip800)" d="M1807.53 1212.38 L1811.79 1212.38 L1811.79 1248.39 L1807.53 1248.39 L1807.53 1212.38 Z" fill="#000000" fill-rule="nonzero" fill-opacity="1" /><path clip-path="url(#clip800)" d="M1842.88 1234.37 L1842.88 1236.45 L1823.3 1236.45 Q1823.58 1240.85 1825.94 1243.16 Q1828.32 1245.45 1832.56 1245.45 Q1835.01 1245.45 1837.3 1244.85 Q1839.62 1244.25 1841.89 1243.05 L1841.89 1247.07 Q1839.59 1248.05 1837.19 1248.56 Q1834.78 1249.07 1832.3 1249.07 Q1826.1 1249.07 1822.47 1245.45 Q1818.85 1241.84 1818.85 1235.69 Q1818.85 1229.32 1822.28 1225.59 Q1825.73 1221.84 1831.56 1221.84 Q1836.79 1221.84 1839.83 1225.22 Q1842.88 1228.58 1842.88 1234.37 M1838.62 1233.12 Q1838.58 1229.62 1836.65 1227.54 Q1834.76 1225.45 1831.61 1225.45 Q1828.04 1225.45 1825.89 1227.47 Q1823.76 1229.48 1823.44 1233.14 L1838.62 1233.12 Z" fill="#000000" fill-rule="nonzero" fill-opacity="1" /><path clip-path="url(#clip800)" d="M1879.96 1226.45 Q1879.25 1226.03 1878.39 1225.85 Q1877.56 1225.64 1876.54 1225.64 Q1872.93 1225.64 1870.98 1228 Q1869.06 1230.34 1869.06 1234.74 L1869.06 1248.39 L1864.78 1248.39 L1864.78 1222.47 L1869.06 1222.47 L1869.06 1226.5 Q1870.4 1224.14 1872.56 1223 Q1874.71 1221.84 1877.79 1221.84 Q1878.23 1221.84 1878.76 1221.91 Q1879.29 1221.96 1879.94 1222.08 L1879.96 1226.45 Z" fill="#000000" fill-rule="nonzero" fill-opacity="1" /><path clip-path="url(#clip800)" d="M1884.43 1222.47 L1888.69 1222.47 L1888.69 1248.39 L1884.43 1248.39 L1884.43 1222.47 M1884.43 1212.38 L1888.69 1212.38 L1888.69 1217.77 L1884.43 1217.77 L1884.43 1212.38 Z" fill="#000000" fill-rule="nonzero" fill-opacity="1" /><path clip-path="url(#clip800)" d="M1894.55 1222.47 L1899.06 1222.47 L1907.16 1244.23 L1915.27 1222.47 L1919.78 1222.47 L1910.06 1248.39 L1904.27 1248.39 L1894.55 1222.47 Z" fill="#000000" fill-rule="nonzero" fill-opacity="1" /><path clip-path="url(#clip800)" d="M1947.83 1234.37 L1947.83 1236.45 L1928.25 1236.45 Q1928.53 1240.85 1930.89 1243.16 Q1933.27 1245.45 1937.51 1245.45 Q1939.96 1245.45 1942.26 1244.85 Q1944.57 1244.25 1946.84 1243.05 L1946.84 1247.07 Q1944.55 1248.05 1942.14 1248.56 Q1939.73 1249.07 1937.26 1249.07 Q1931.05 1249.07 1927.42 1245.45 Q1923.81 1241.84 1923.81 1235.69 Q1923.81 1229.32 1927.23 1225.59 Q1930.68 1221.84 1936.52 1221.84 Q1941.75 1221.84 1944.78 1225.22 Q1947.83 1228.58 1947.83 1234.37 M1943.58 1233.12 Q1943.53 1229.62 1941.61 1227.54 Q1939.71 1225.45 1936.56 1225.45 Q1933 1225.45 1930.84 1227.47 Q1928.71 1229.48 1928.39 1233.14 L1943.58 1233.12 Z" fill="#000000" fill-rule="nonzero" fill-opacity="1" /><path clip-path="url(#clip800)" d="M1969.85 1226.45 Q1969.13 1226.03 1968.27 1225.85 Q1967.44 1225.64 1966.42 1225.64 Q1962.81 1225.64 1960.87 1228 Q1958.95 1230.34 1958.95 1234.74 L1958.95 1248.39 L1954.66 1248.39 L1954.66 1222.47 L1958.95 1222.47 L1958.95 1226.5 Q1960.29 1224.14 1962.44 1223 Q1964.59 1221.84 1967.67 1221.84 Q1968.11 1221.84 1968.64 1221.91 Q1969.18 1221.96 1969.83 1222.08 L1969.85 1226.45 Z" fill="#000000" fill-rule="nonzero" fill-opacity="1" /><path clip-path="url(#clip800)" d="M2001.17 1235.36 Q1996.01 1235.36 1994.02 1236.54 Q1992.02 1237.72 1992.02 1240.57 Q1992.02 1242.84 1993.51 1244.18 Q1995.01 1245.5 1997.58 1245.5 Q2001.12 1245.5 2003.25 1243 Q2005.4 1240.48 2005.4 1236.31 L2005.4 1235.36 L2001.17 1235.36 M2009.66 1233.6 L2009.66 1248.39 L2005.4 1248.39 L2005.4 1244.46 Q2003.95 1246.82 2001.77 1247.95 Q1999.59 1249.07 1996.45 1249.07 Q1992.46 1249.07 1990.1 1246.84 Q1987.77 1244.6 1987.77 1240.85 Q1987.77 1236.47 1990.68 1234.25 Q1993.62 1232.03 1999.43 1232.03 L2005.4 1232.03 L2005.4 1231.61 Q2005.4 1228.67 2003.46 1227.08 Q2001.54 1225.45 1998.04 1225.45 Q1995.82 1225.45 1993.71 1225.99 Q1991.61 1226.52 1989.66 1227.58 L1989.66 1223.65 Q1992 1222.75 1994.2 1222.31 Q1996.4 1221.84 1998.48 1221.84 Q2004.11 1221.84 2006.89 1224.76 Q2009.66 1227.68 2009.66 1233.6 Z" fill="#000000" fill-rule="nonzero" fill-opacity="1" /><path clip-path="url(#clip800)" d="M2039.99 1232.75 L2039.99 1248.39 L2035.73 1248.39 L2035.73 1232.89 Q2035.73 1229.2 2034.29 1227.38 Q2032.86 1225.55 2029.99 1225.55 Q2026.54 1225.55 2024.55 1227.75 Q2022.56 1229.95 2022.56 1233.74 L2022.56 1248.39 L2018.27 1248.39 L2018.27 1222.47 L2022.56 1222.47 L2022.56 1226.5 Q2024.08 1224.16 2026.14 1223 Q2028.23 1221.84 2030.94 1221.84 Q2035.4 1221.84 2037.7 1224.62 Q2039.99 1227.38 2039.99 1232.75 Z" fill="#000000" fill-rule="nonzero" fill-opacity="1" /><path clip-path="url(#clip800)" d="M2070.03 1232.75 L2070.03 1248.39 L2065.77 1248.39 L2065.77 1232.89 Q2065.77 1229.2 2064.34 1227.38 Q2062.9 1225.55 2060.03 1225.55 Q2056.58 1225.55 2054.59 1227.75 Q2052.6 1229.95 2052.6 1233.74 L2052.6 1248.39 L2048.32 1248.39 L2048.32 1222.47 L2052.6 1222.47 L2052.6 1226.5 Q2054.13 1224.16 2056.19 1223 Q2058.27 1221.84 2060.98 1221.84 Q2065.45 1221.84 2067.74 1224.62 Q2070.03 1227.38 2070.03 1232.75 Z" fill="#000000" fill-rule="nonzero" fill-opacity="1" /><path clip-path="url(#clip800)" d="M2078.09 1238.16 L2078.09 1222.47 L2082.35 1222.47 L2082.35 1238 Q2082.35 1241.68 2083.78 1243.53 Q2085.22 1245.36 2088.09 1245.36 Q2091.54 1245.36 2093.53 1243.16 Q2095.54 1240.96 2095.54 1237.17 L2095.54 1222.47 L2099.8 1222.47 L2099.8 1248.39 L2095.54 1248.39 L2095.54 1244.41 Q2093.99 1246.77 2091.93 1247.93 Q2089.89 1249.07 2087.19 1249.07 Q2082.72 1249.07 2080.4 1246.29 Q2078.09 1243.51 2078.09 1238.16 M2088.81 1221.84 L2088.81 1221.84 Z" fill="#000000" fill-rule="nonzero" fill-opacity="1" /><path clip-path="url(#clip800)" d="M2120.36 1235.36 Q2115.19 1235.36 2113.2 1236.54 Q2111.21 1237.72 2111.21 1240.57 Q2111.21 1242.84 2112.69 1244.18 Q2114.2 1245.5 2116.77 1245.5 Q2120.31 1245.5 2122.44 1243 Q2124.59 1240.48 2124.59 1236.31 L2124.59 1235.36 L2120.36 1235.36 M2128.85 1233.6 L2128.85 1248.39 L2124.59 1248.39 L2124.59 1244.46 Q2123.13 1246.82 2120.96 1247.95 Q2118.78 1249.07 2115.63 1249.07 Q2111.65 1249.07 2109.29 1246.84 Q2106.95 1244.6 2106.95 1240.85 Q2106.95 1236.47 2109.87 1234.25 Q2112.81 1232.03 2118.62 1232.03 L2124.59 1232.03 L2124.59 1231.61 Q2124.59 1228.67 2122.65 1227.08 Q2120.73 1225.45 2117.23 1225.45 Q2115.01 1225.45 2112.9 1225.99 Q2110.8 1226.52 2108.85 1227.58 L2108.85 1223.65 Q2111.19 1222.75 2113.39 1222.31 Q2115.59 1221.84 2117.67 1221.84 Q2123.3 1221.84 2126.07 1224.76 Q2128.85 1227.68 2128.85 1233.6 Z" fill="#000000" fill-rule="nonzero" fill-opacity="1" /><path clip-path="url(#clip800)" d="M2137.63 1212.38 L2141.88 1212.38 L2141.88 1248.39 L2137.63 1248.39 L2137.63 1212.38 Z" fill="#000000" fill-rule="nonzero" fill-opacity="1" /><path clip-path="url(#clip800)" d="M2178.99 1212.38 L2178.99 1215.92 L2174.92 1215.92 Q2172.63 1215.92 2171.72 1216.84 Q2170.84 1217.77 2170.84 1220.18 L2170.84 1222.47 L2177.86 1222.47 L2177.86 1225.78 L2170.84 1225.78 L2170.84 1248.39 L2166.56 1248.39 L2166.56 1225.78 L2162.49 1225.78 L2162.49 1222.47 L2166.56 1222.47 L2166.56 1220.66 Q2166.56 1216.33 2168.57 1214.37 Q2170.59 1212.38 2174.96 1212.38 L2178.99 1212.38 Z" fill="#000000" fill-rule="nonzero" fill-opacity="1" /><path clip-path="url(#clip800)" d="M2182.56 1212.38 L2186.81 1212.38 L2186.81 1248.39 L2182.56 1248.39 L2182.56 1212.38 Z" fill="#000000" fill-rule="nonzero" fill-opacity="1" /><path clip-path="url(#clip800)" d="M2205.77 1225.45 Q2202.35 1225.45 2200.36 1228.14 Q2198.37 1230.8 2198.37 1235.45 Q2198.37 1240.11 2200.33 1242.79 Q2202.32 1245.45 2205.77 1245.45 Q2209.18 1245.45 2211.17 1242.77 Q2213.16 1240.08 2213.16 1235.45 Q2213.16 1230.85 2211.17 1228.16 Q2209.18 1225.45 2205.77 1225.45 M2205.77 1221.84 Q2211.33 1221.84 2214.5 1225.45 Q2217.67 1229.07 2217.67 1235.45 Q2217.67 1241.82 2214.5 1245.45 Q2211.33 1249.07 2205.77 1249.07 Q2200.19 1249.07 2197.02 1245.45 Q2193.88 1241.82 2193.88 1235.45 Q2193.88 1229.07 2197.02 1225.45 Q2200.19 1221.84 2205.77 1221.84 Z" fill="#000000" fill-rule="nonzero" fill-opacity="1" /><path clip-path="url(#clip800)" d="M2222.25 1222.47 L2226.51 1222.47 L2231.84 1242.7 L2237.14 1222.47 L2242.16 1222.47 L2247.49 1242.7 L2252.79 1222.47 L2257.05 1222.47 L2250.26 1248.39 L2245.24 1248.39 L2239.66 1227.14 L2234.06 1248.39 L2229.04 1248.39 L2222.25 1222.47 Z" fill="#000000" fill-rule="nonzero" fill-opacity="1" /><polyline clip-path="url(#clip800)" style="stroke:#e26f46; stroke-linecap:round; stroke-linejoin:round; stroke-width:4; stroke-opacity:1; fill:none" points="1591.59,1282.95 1735.16,1282.95 "/>
<path clip-path="url(#clip800)" d="M1759.09 1265.67 L1778.95 1265.67 L1778.95 1269.61 L1763.76 1269.61 L1763.76 1279.79 L1777.47 1279.79 L1777.47 1283.73 L1763.76 1283.73 L1763.76 1300.23 L1759.09 1300.23 L1759.09 1265.67 Z" fill="#000000" fill-rule="nonzero" fill-opacity="1" /><path clip-path="url(#clip800)" d="M1782.72 1274.31 L1786.98 1274.31 L1786.98 1300.23 L1782.72 1300.23 L1782.72 1274.31 M1782.72 1264.22 L1786.98 1264.22 L1786.98 1269.61 L1782.72 1269.61 L1782.72 1264.22 Z" fill="#000000" fill-rule="nonzero" fill-opacity="1" /><path clip-path="url(#clip800)" d="M1795.89 1264.22 L1800.15 1264.22 L1800.15 1300.23 L1795.89 1300.23 L1795.89 1264.22 Z" fill="#000000" fill-rule="nonzero" fill-opacity="1" /><path clip-path="url(#clip800)" d="M1813.28 1266.95 L1813.28 1274.31 L1822.05 1274.31 L1822.05 1277.62 L1813.28 1277.62 L1813.28 1291.69 Q1813.28 1294.86 1814.13 1295.77 Q1815.01 1296.67 1817.67 1296.67 L1822.05 1296.67 L1822.05 1300.23 L1817.67 1300.23 Q1812.74 1300.23 1810.87 1298.41 Q1808.99 1296.55 1808.99 1291.69 L1808.99 1277.62 L1805.87 1277.62 L1805.87 1274.31 L1808.99 1274.31 L1808.99 1266.95 L1813.28 1266.95 Z" fill="#000000" fill-rule="nonzero" fill-opacity="1" /><path clip-path="url(#clip800)" d="M1849.83 1286.21 L1849.83 1288.29 L1830.24 1288.29 Q1830.52 1292.69 1832.88 1295 Q1835.27 1297.29 1839.5 1297.29 Q1841.96 1297.29 1844.25 1296.69 Q1846.56 1296.09 1848.83 1294.89 L1848.83 1298.91 Q1846.54 1299.89 1844.13 1300.4 Q1841.72 1300.91 1839.25 1300.91 Q1833.04 1300.91 1829.41 1297.29 Q1825.8 1293.68 1825.8 1287.53 Q1825.8 1281.16 1829.22 1277.43 Q1832.67 1273.68 1838.51 1273.68 Q1843.74 1273.68 1846.77 1277.06 Q1849.83 1280.42 1849.83 1286.21 M1845.57 1284.96 Q1845.52 1281.46 1843.6 1279.38 Q1841.7 1277.29 1838.55 1277.29 Q1834.99 1277.29 1832.84 1279.31 Q1830.71 1281.32 1830.38 1284.98 L1845.57 1284.96 Z" fill="#000000" fill-rule="nonzero" fill-opacity="1" /><path clip-path="url(#clip800)" d="M1871.84 1278.29 Q1871.12 1277.87 1870.27 1277.69 Q1869.43 1277.48 1868.41 1277.48 Q1864.8 1277.48 1862.86 1279.84 Q1860.94 1282.18 1860.94 1286.58 L1860.94 1300.23 L1856.65 1300.23 L1856.65 1274.31 L1860.94 1274.31 L1860.94 1278.34 Q1862.28 1275.98 1864.43 1274.84 Q1866.59 1273.68 1869.66 1273.68 Q1870.1 1273.68 1870.64 1273.75 Q1871.17 1273.8 1871.82 1273.92 L1871.84 1278.29 Z" fill="#000000" fill-rule="nonzero" fill-opacity="1" /><path clip-path="url(#clip800)" d="M1897.44 1286.21 L1897.44 1288.29 L1877.86 1288.29 Q1878.14 1292.69 1880.5 1295 Q1882.88 1297.29 1887.12 1297.29 Q1889.57 1297.29 1891.86 1296.69 Q1894.18 1296.09 1896.45 1294.89 L1896.45 1298.91 Q1894.15 1299.89 1891.75 1300.4 Q1889.34 1300.91 1886.86 1300.91 Q1880.66 1300.91 1877.02 1297.29 Q1873.41 1293.68 1873.41 1287.53 Q1873.41 1281.16 1876.84 1277.43 Q1880.29 1273.68 1886.12 1273.68 Q1891.35 1273.68 1894.39 1277.06 Q1897.44 1280.42 1897.44 1286.21 M1893.18 1284.96 Q1893.14 1281.46 1891.21 1279.38 Q1889.32 1277.29 1886.17 1277.29 Q1882.6 1277.29 1880.45 1279.31 Q1878.32 1281.32 1878 1284.98 L1893.18 1284.96 Z" fill="#000000" fill-rule="nonzero" fill-opacity="1" /><path clip-path="url(#clip800)" d="M1921.49 1278.24 L1921.49 1264.22 L1925.75 1264.22 L1925.75 1300.23 L1921.49 1300.23 L1921.49 1296.35 Q1920.15 1298.66 1918.09 1299.79 Q1916.05 1300.91 1913.18 1300.91 Q1908.48 1300.91 1905.52 1297.16 Q1902.58 1293.41 1902.58 1287.29 Q1902.58 1281.18 1905.52 1277.43 Q1908.48 1273.68 1913.18 1273.68 Q1916.05 1273.68 1918.09 1274.82 Q1920.15 1275.93 1921.49 1278.24 M1906.98 1287.29 Q1906.98 1291.99 1908.9 1294.68 Q1910.84 1297.34 1914.22 1297.34 Q1917.6 1297.34 1919.55 1294.68 Q1921.49 1291.99 1921.49 1287.29 Q1921.49 1282.6 1919.55 1279.93 Q1917.6 1277.25 1914.22 1277.25 Q1910.84 1277.25 1908.9 1279.93 Q1906.98 1282.6 1906.98 1287.29 Z" fill="#000000" fill-rule="nonzero" fill-opacity="1" /><path clip-path="url(#clip800)" d="M1949.59 1264.22 L1953.85 1264.22 L1953.85 1300.23 L1949.59 1300.23 L1949.59 1264.22 Z" fill="#000000" fill-rule="nonzero" fill-opacity="1" /><path clip-path="url(#clip800)" d="M1984.94 1286.21 L1984.94 1288.29 L1965.36 1288.29 Q1965.64 1292.69 1968 1295 Q1970.38 1297.29 1974.62 1297.29 Q1977.07 1297.29 1979.36 1296.69 Q1981.68 1296.09 1983.95 1294.89 L1983.95 1298.91 Q1981.65 1299.89 1979.25 1300.4 Q1976.84 1300.91 1974.36 1300.91 Q1968.16 1300.91 1964.52 1297.29 Q1960.91 1293.68 1960.91 1287.53 Q1960.91 1281.16 1964.34 1277.43 Q1967.79 1273.68 1973.62 1273.68 Q1978.85 1273.68 1981.89 1277.06 Q1984.94 1280.42 1984.94 1286.21 M1980.68 1284.96 Q1980.64 1281.46 1978.71 1279.38 Q1976.82 1277.29 1973.67 1277.29 Q1970.1 1277.29 1967.95 1279.31 Q1965.82 1281.32 1965.5 1284.98 L1980.68 1284.96 Z" fill="#000000" fill-rule="nonzero" fill-opacity="1" /><path clip-path="url(#clip800)" d="M1988.88 1274.31 L1993.39 1274.31 L2001.49 1296.07 L2009.59 1274.31 L2014.11 1274.31 L2004.39 1300.23 L1998.6 1300.23 L1988.88 1274.31 Z" fill="#000000" fill-rule="nonzero" fill-opacity="1" /><path clip-path="url(#clip800)" d="M2042.16 1286.21 L2042.16 1288.29 L2022.58 1288.29 Q2022.86 1292.69 2025.22 1295 Q2027.6 1297.29 2031.84 1297.29 Q2034.29 1297.29 2036.58 1296.69 Q2038.9 1296.09 2041.17 1294.89 L2041.17 1298.91 Q2038.88 1299.89 2036.47 1300.4 Q2034.06 1300.91 2031.58 1300.91 Q2025.38 1300.91 2021.75 1297.29 Q2018.14 1293.68 2018.14 1287.53 Q2018.14 1281.16 2021.56 1277.43 Q2025.01 1273.68 2030.84 1273.68 Q2036.07 1273.68 2039.11 1277.06 Q2042.16 1280.42 2042.16 1286.21 M2037.9 1284.96 Q2037.86 1281.46 2035.94 1279.38 Q2034.04 1277.29 2030.89 1277.29 Q2027.33 1277.29 2025.17 1279.31 Q2023.04 1281.32 2022.72 1284.98 L2037.9 1284.96 Z" fill="#000000" fill-rule="nonzero" fill-opacity="1" /><path clip-path="url(#clip800)" d="M2049.15 1264.22 L2053.41 1264.22 L2053.41 1300.23 L2049.15 1300.23 L2049.15 1264.22 Z" fill="#000000" fill-rule="nonzero" fill-opacity="1" /><polyline clip-path="url(#clip800)" style="stroke:#3da44d; stroke-linecap:round; stroke-linejoin:round; stroke-width:4; stroke-opacity:1; fill:none" points="1591.59,1334.79 1735.16,1334.79 "/>
<path clip-path="url(#clip800)" d="M1781.33 1318.65 L1781.33 1323.21 Q1778.67 1321.94 1776.31 1321.31 Q1773.95 1320.69 1771.75 1320.69 Q1767.93 1320.69 1765.84 1322.17 Q1763.78 1323.65 1763.78 1326.38 Q1763.78 1328.67 1765.15 1329.85 Q1766.54 1331.01 1770.38 1331.73 L1773.21 1332.31 Q1778.44 1333.3 1780.91 1335.82 Q1783.41 1338.32 1783.41 1342.54 Q1783.41 1347.56 1780.03 1350.15 Q1776.68 1352.75 1770.17 1352.75 Q1767.72 1352.75 1764.94 1352.19 Q1762.19 1351.63 1759.22 1350.55 L1759.22 1345.73 Q1762.07 1347.33 1764.8 1348.14 Q1767.53 1348.95 1770.17 1348.95 Q1774.18 1348.95 1776.35 1347.38 Q1778.53 1345.8 1778.53 1342.88 Q1778.53 1340.34 1776.96 1338.9 Q1775.41 1337.47 1771.84 1336.75 L1768.99 1336.19 Q1763.76 1335.15 1761.42 1332.93 Q1759.09 1330.71 1759.09 1326.75 Q1759.09 1322.17 1762.3 1319.53 Q1765.54 1316.89 1771.22 1316.89 Q1773.65 1316.89 1776.17 1317.33 Q1778.69 1317.77 1781.33 1318.65 Z" fill="#000000" fill-rule="nonzero" fill-opacity="1" /><path clip-path="url(#clip800)" d="M1810.71 1331.13 Q1812.3 1328.26 1814.53 1326.89 Q1816.75 1325.52 1819.76 1325.52 Q1823.81 1325.52 1826.01 1328.37 Q1828.21 1331.19 1828.21 1336.43 L1828.21 1352.07 L1823.92 1352.07 L1823.92 1336.57 Q1823.92 1332.84 1822.6 1331.03 Q1821.28 1329.23 1818.58 1329.23 Q1815.27 1329.23 1813.34 1331.43 Q1811.42 1333.63 1811.42 1337.42 L1811.42 1352.07 L1807.14 1352.07 L1807.14 1336.57 Q1807.14 1332.82 1805.82 1331.03 Q1804.5 1329.23 1801.75 1329.23 Q1798.48 1329.23 1796.56 1331.45 Q1794.64 1333.65 1794.64 1337.42 L1794.64 1352.07 L1790.36 1352.07 L1790.36 1326.15 L1794.64 1326.15 L1794.64 1330.18 Q1796.1 1327.79 1798.14 1326.66 Q1800.17 1325.52 1802.97 1325.52 Q1805.8 1325.52 1807.77 1326.96 Q1809.76 1328.39 1810.71 1331.13 Z" fill="#000000" fill-rule="nonzero" fill-opacity="1" /><path clip-path="url(#clip800)" d="M1846.75 1329.13 Q1843.32 1329.13 1841.33 1331.82 Q1839.34 1334.48 1839.34 1339.13 Q1839.34 1343.79 1841.31 1346.47 Q1843.3 1349.13 1846.75 1349.13 Q1850.15 1349.13 1852.14 1346.45 Q1854.13 1343.76 1854.13 1339.13 Q1854.13 1334.53 1852.14 1331.84 Q1850.15 1329.13 1846.75 1329.13 M1846.75 1325.52 Q1852.3 1325.52 1855.47 1329.13 Q1858.65 1332.75 1858.65 1339.13 Q1858.65 1345.5 1855.47 1349.13 Q1852.3 1352.75 1846.75 1352.75 Q1841.17 1352.75 1838 1349.13 Q1834.85 1345.5 1834.85 1339.13 Q1834.85 1332.75 1838 1329.13 Q1841.17 1325.52 1846.75 1325.52 Z" fill="#000000" fill-rule="nonzero" fill-opacity="1" /><path clip-path="url(#clip800)" d="M1875.75 1329.13 Q1872.33 1329.13 1870.34 1331.82 Q1868.34 1334.48 1868.34 1339.13 Q1868.34 1343.79 1870.31 1346.47 Q1872.3 1349.13 1875.75 1349.13 Q1879.15 1349.13 1881.15 1346.45 Q1883.14 1343.76 1883.14 1339.13 Q1883.14 1334.53 1881.15 1331.84 Q1879.15 1329.13 1875.75 1329.13 M1875.75 1325.52 Q1881.31 1325.52 1884.48 1329.13 Q1887.65 1332.75 1887.65 1339.13 Q1887.65 1345.5 1884.48 1349.13 Q1881.31 1352.75 1875.75 1352.75 Q1870.17 1352.75 1867 1349.13 Q1863.85 1345.5 1863.85 1339.13 Q1863.85 1332.75 1867 1329.13 Q1870.17 1325.52 1875.75 1325.52 Z" fill="#000000" fill-rule="nonzero" fill-opacity="1" /><path clip-path="url(#clip800)" d="M1898.92 1318.79 L1898.92 1326.15 L1907.7 1326.15 L1907.7 1329.46 L1898.92 1329.46 L1898.92 1343.53 Q1898.92 1346.7 1899.78 1347.61 Q1900.66 1348.51 1903.32 1348.51 L1907.7 1348.51 L1907.7 1352.07 L1903.32 1352.07 Q1898.39 1352.07 1896.52 1350.25 Q1894.64 1348.39 1894.64 1343.53 L1894.64 1329.46 L1891.52 1329.46 L1891.52 1326.15 L1894.64 1326.15 L1894.64 1318.79 L1898.92 1318.79 Z" fill="#000000" fill-rule="nonzero" fill-opacity="1" /><path clip-path="url(#clip800)" d="M1934.85 1336.43 L1934.85 1352.07 L1930.59 1352.07 L1930.59 1336.57 Q1930.59 1332.88 1929.15 1331.06 Q1927.72 1329.23 1924.85 1329.23 Q1921.4 1329.23 1919.41 1331.43 Q1917.42 1333.63 1917.42 1337.42 L1917.42 1352.07 L1913.14 1352.07 L1913.14 1316.06 L1917.42 1316.06 L1917.42 1330.18 Q1918.95 1327.84 1921.01 1326.68 Q1923.09 1325.52 1925.8 1325.52 Q1930.27 1325.52 1932.56 1328.3 Q1934.85 1331.06 1934.85 1336.43 Z" fill="#000000" fill-rule="nonzero" fill-opacity="1" /><path clip-path="url(#clip800)" d="M1965.52 1338.05 L1965.52 1340.13 L1945.94 1340.13 Q1946.21 1344.53 1948.58 1346.84 Q1950.96 1349.13 1955.2 1349.13 Q1957.65 1349.13 1959.94 1348.53 Q1962.26 1347.93 1964.52 1346.73 L1964.52 1350.75 Q1962.23 1351.73 1959.83 1352.24 Q1957.42 1352.75 1954.94 1352.75 Q1948.74 1352.75 1945.1 1349.13 Q1941.49 1345.52 1941.49 1339.37 Q1941.49 1333 1944.92 1329.27 Q1948.37 1325.52 1954.2 1325.52 Q1959.43 1325.52 1962.46 1328.9 Q1965.52 1332.26 1965.52 1338.05 M1961.26 1336.8 Q1961.21 1333.3 1959.29 1331.22 Q1957.39 1329.13 1954.25 1329.13 Q1950.68 1329.13 1948.53 1331.15 Q1946.4 1333.16 1946.08 1336.82 L1961.26 1336.8 Z" fill="#000000" fill-rule="nonzero" fill-opacity="1" /><path clip-path="url(#clip800)" d="M1989.57 1330.08 L1989.57 1316.06 L1993.83 1316.06 L1993.83 1352.07 L1989.57 1352.07 L1989.57 1348.19 Q1988.23 1350.5 1986.17 1351.63 Q1984.13 1352.75 1981.26 1352.75 Q1976.56 1352.75 1973.6 1349 Q1970.66 1345.25 1970.66 1339.13 Q1970.66 1333.02 1973.6 1329.27 Q1976.56 1325.52 1981.26 1325.52 Q1984.13 1325.52 1986.17 1326.66 Q1988.23 1327.77 1989.57 1330.08 M1975.06 1339.13 Q1975.06 1343.83 1976.98 1346.52 Q1978.92 1349.18 1982.3 1349.18 Q1985.68 1349.18 1987.63 1346.52 Q1989.57 1343.83 1989.57 1339.13 Q1989.57 1334.44 1987.63 1331.77 Q1985.68 1329.09 1982.3 1329.09 Q1978.92 1329.09 1976.98 1331.77 Q1975.06 1334.44 1975.06 1339.13 Z" fill="#000000" fill-rule="nonzero" fill-opacity="1" /><path clip-path="url(#clip800)" d="M2017.67 1316.06 L2021.93 1316.06 L2021.93 1352.07 L2017.67 1352.07 L2017.67 1316.06 Z" fill="#000000" fill-rule="nonzero" fill-opacity="1" /><path clip-path="url(#clip800)" d="M2053.02 1338.05 L2053.02 1340.13 L2033.44 1340.13 Q2033.71 1344.53 2036.07 1346.84 Q2038.46 1349.13 2042.7 1349.13 Q2045.15 1349.13 2047.44 1348.53 Q2049.76 1347.93 2052.02 1346.73 L2052.02 1350.75 Q2049.73 1351.73 2047.32 1352.24 Q2044.92 1352.75 2042.44 1352.75 Q2036.24 1352.75 2032.6 1349.13 Q2028.99 1345.52 2028.99 1339.37 Q2028.99 1333 2032.42 1329.27 Q2035.87 1325.52 2041.7 1325.52 Q2046.93 1325.52 2049.96 1328.9 Q2053.02 1332.26 2053.02 1338.05 M2048.76 1336.8 Q2048.71 1333.3 2046.79 1331.22 Q2044.89 1329.13 2041.75 1329.13 Q2038.18 1329.13 2036.03 1331.15 Q2033.9 1333.16 2033.57 1336.82 L2048.76 1336.8 Z" fill="#000000" fill-rule="nonzero" fill-opacity="1" /><path clip-path="url(#clip800)" d="M2056.95 1326.15 L2061.47 1326.15 L2069.57 1347.91 L2077.67 1326.15 L2082.19 1326.15 L2072.46 1352.07 L2066.68 1352.07 L2056.95 1326.15 Z" fill="#000000" fill-rule="nonzero" fill-opacity="1" /><path clip-path="url(#clip800)" d="M2110.24 1338.05 L2110.24 1340.13 L2090.66 1340.13 Q2090.94 1344.53 2093.3 1346.84 Q2095.68 1349.13 2099.92 1349.13 Q2102.37 1349.13 2104.66 1348.53 Q2106.98 1347.93 2109.25 1346.73 L2109.25 1350.75 Q2106.95 1351.73 2104.55 1352.24 Q2102.14 1352.75 2099.66 1352.75 Q2093.46 1352.75 2089.82 1349.13 Q2086.21 1345.52 2086.21 1339.37 Q2086.21 1333 2089.64 1329.27 Q2093.09 1325.52 2098.92 1325.52 Q2104.15 1325.52 2107.19 1328.9 Q2110.24 1332.26 2110.24 1338.05 M2105.98 1336.8 Q2105.94 1333.3 2104.01 1331.22 Q2102.12 1329.13 2098.97 1329.13 Q2095.4 1329.13 2093.25 1331.15 Q2091.12 1333.16 2090.8 1336.82 L2105.98 1336.8 Z" fill="#000000" fill-rule="nonzero" fill-opacity="1" /><path clip-path="url(#clip800)" d="M2117.23 1316.06 L2121.49 1316.06 L2121.49 1352.07 L2117.23 1352.07 L2117.23 1316.06 Z" fill="#000000" fill-rule="nonzero" fill-opacity="1" /><polyline clip-path="url(#clip800)" style="stroke:#c271d2; stroke-linecap:round; stroke-linejoin:round; stroke-width:4; stroke-opacity:1; fill:none" points="1591.59,1386.63 1735.16,1386.63 "/>
<path clip-path="url(#clip800)" d="M1759.09 1369.35 L1778.95 1369.35 L1778.95 1373.29 L1763.76 1373.29 L1763.76 1383.47 L1777.47 1383.47 L1777.47 1387.41 L1763.76 1387.41 L1763.76 1403.91 L1759.09 1403.91 L1759.09 1369.35 Z" fill="#000000" fill-rule="nonzero" fill-opacity="1" /><path clip-path="url(#clip800)" d="M1794.53 1380.97 Q1791.1 1380.97 1789.11 1383.66 Q1787.12 1386.32 1787.12 1390.97 Q1787.12 1395.63 1789.09 1398.31 Q1791.08 1400.97 1794.53 1400.97 Q1797.93 1400.97 1799.92 1398.29 Q1801.91 1395.6 1801.91 1390.97 Q1801.91 1386.37 1799.92 1383.68 Q1797.93 1380.97 1794.53 1380.97 M1794.53 1377.36 Q1800.08 1377.36 1803.25 1380.97 Q1806.42 1384.59 1806.42 1390.97 Q1806.42 1397.34 1803.25 1400.97 Q1800.08 1404.59 1794.53 1404.59 Q1788.95 1404.59 1785.78 1400.97 Q1782.63 1397.34 1782.63 1390.97 Q1782.63 1384.59 1785.78 1380.97 Q1788.95 1377.36 1794.53 1377.36 Z" fill="#000000" fill-rule="nonzero" fill-opacity="1" /><path clip-path="url(#clip800)" d="M1828.51 1381.97 Q1827.79 1381.55 1826.93 1381.37 Q1826.1 1381.16 1825.08 1381.16 Q1821.47 1381.16 1819.53 1383.52 Q1817.6 1385.86 1817.6 1390.26 L1817.6 1403.91 L1813.32 1403.91 L1813.32 1377.99 L1817.6 1377.99 L1817.6 1382.02 Q1818.95 1379.66 1821.1 1378.52 Q1823.25 1377.36 1826.33 1377.36 Q1826.77 1377.36 1827.3 1377.43 Q1827.84 1377.48 1828.48 1377.6 L1828.51 1381.97 Z" fill="#000000" fill-rule="nonzero" fill-opacity="1" /><path clip-path="url(#clip800)" d="M1854.11 1389.89 L1854.11 1391.97 L1834.53 1391.97 Q1834.8 1396.37 1837.16 1398.68 Q1839.55 1400.97 1843.78 1400.97 Q1846.24 1400.97 1848.53 1400.37 Q1850.84 1399.77 1853.11 1398.57 L1853.11 1402.59 Q1850.82 1403.57 1848.41 1404.08 Q1846.01 1404.59 1843.53 1404.59 Q1837.33 1404.59 1833.69 1400.97 Q1830.08 1397.36 1830.08 1391.21 Q1830.08 1384.84 1833.51 1381.11 Q1836.96 1377.36 1842.79 1377.36 Q1848.02 1377.36 1851.05 1380.74 Q1854.11 1384.1 1854.11 1389.89 M1849.85 1388.64 Q1849.8 1385.14 1847.88 1383.06 Q1845.98 1380.97 1842.84 1380.97 Q1839.27 1380.97 1837.12 1382.99 Q1834.99 1385 1834.66 1388.66 L1849.85 1388.64 Z" fill="#000000" fill-rule="nonzero" fill-opacity="1" /><path clip-path="url(#clip800)" d="M1879.76 1378.98 L1879.76 1382.97 Q1877.95 1381.97 1876.12 1381.48 Q1874.32 1380.97 1872.46 1380.97 Q1868.32 1380.97 1866.03 1383.61 Q1863.74 1386.23 1863.74 1390.97 Q1863.74 1395.72 1866.03 1398.36 Q1868.32 1400.97 1872.46 1400.97 Q1874.32 1400.97 1876.12 1400.49 Q1877.95 1399.98 1879.76 1398.98 L1879.76 1402.92 Q1877.97 1403.75 1876.05 1404.17 Q1874.15 1404.59 1872 1404.59 Q1866.15 1404.59 1862.7 1400.91 Q1859.25 1397.22 1859.25 1390.97 Q1859.25 1384.63 1862.72 1381 Q1866.21 1377.36 1872.28 1377.36 Q1874.25 1377.36 1876.12 1377.78 Q1878 1378.17 1879.76 1378.98 Z" fill="#000000" fill-rule="nonzero" fill-opacity="1" /><path clip-path="url(#clip800)" d="M1898.95 1390.88 Q1893.78 1390.88 1891.79 1392.06 Q1889.8 1393.24 1889.8 1396.09 Q1889.8 1398.36 1891.28 1399.7 Q1892.79 1401.02 1895.36 1401.02 Q1898.9 1401.02 1901.03 1398.52 Q1903.18 1396 1903.18 1391.83 L1903.18 1390.88 L1898.95 1390.88 M1907.44 1389.12 L1907.44 1403.91 L1903.18 1403.91 L1903.18 1399.98 Q1901.72 1402.34 1899.55 1403.47 Q1897.37 1404.59 1894.22 1404.59 Q1890.24 1404.59 1887.88 1402.36 Q1885.54 1400.12 1885.54 1396.37 Q1885.54 1391.99 1888.46 1389.77 Q1891.4 1387.55 1897.21 1387.55 L1903.18 1387.55 L1903.18 1387.13 Q1903.18 1384.19 1901.24 1382.6 Q1899.32 1380.97 1895.82 1380.97 Q1893.6 1380.97 1891.49 1381.51 Q1889.39 1382.04 1887.44 1383.1 L1887.44 1379.17 Q1889.78 1378.27 1891.98 1377.83 Q1894.18 1377.36 1896.26 1377.36 Q1901.89 1377.36 1904.66 1380.28 Q1907.44 1383.2 1907.44 1389.12 Z" fill="#000000" fill-rule="nonzero" fill-opacity="1" /><path clip-path="url(#clip800)" d="M1932.74 1378.75 L1932.74 1382.78 Q1930.94 1381.85 1928.99 1381.39 Q1927.05 1380.93 1924.96 1380.93 Q1921.79 1380.93 1920.2 1381.9 Q1918.62 1382.87 1918.62 1384.82 Q1918.62 1386.3 1919.76 1387.16 Q1920.89 1387.99 1924.32 1388.75 L1925.77 1389.08 Q1930.31 1390.05 1932.21 1391.83 Q1934.13 1393.59 1934.13 1396.76 Q1934.13 1400.37 1931.26 1402.48 Q1928.41 1404.59 1923.41 1404.59 Q1921.33 1404.59 1919.06 1404.17 Q1916.82 1403.78 1914.32 1402.97 L1914.32 1398.57 Q1916.68 1399.79 1918.97 1400.42 Q1921.26 1401.02 1923.51 1401.02 Q1926.52 1401.02 1928.14 1400 Q1929.76 1398.96 1929.76 1397.09 Q1929.76 1395.35 1928.58 1394.42 Q1927.42 1393.5 1923.46 1392.64 L1921.98 1392.29 Q1918.02 1391.46 1916.26 1389.75 Q1914.5 1388.01 1914.5 1385 Q1914.5 1381.35 1917.09 1379.35 Q1919.69 1377.36 1924.46 1377.36 Q1926.82 1377.36 1928.9 1377.71 Q1930.98 1378.06 1932.74 1378.75 Z" fill="#000000" fill-rule="nonzero" fill-opacity="1" /><path clip-path="url(#clip800)" d="M1945.13 1370.63 L1945.13 1377.99 L1953.9 1377.99 L1953.9 1381.3 L1945.13 1381.3 L1945.13 1395.37 Q1945.13 1398.54 1945.98 1399.45 Q1946.86 1400.35 1949.52 1400.35 L1953.9 1400.35 L1953.9 1403.91 L1949.52 1403.91 Q1944.59 1403.91 1942.72 1402.09 Q1940.84 1400.23 1940.84 1395.37 L1940.84 1381.3 L1937.72 1381.3 L1937.72 1377.99 L1940.84 1377.99 L1940.84 1370.63 L1945.13 1370.63 Z" fill="#000000" fill-rule="nonzero" fill-opacity="1" /></svg>
