<?xml version="1.0" encoding="utf-8"?>
<svg xmlns="http://www.w3.org/2000/svg" xmlns:xlink="http://www.w3.org/1999/xlink" width="600" height="400" viewBox="0 0 2400 1600">
<defs>
  <clipPath id="clip040">
    <rect x="0" y="0" width="2400" height="1600"/>
  </clipPath>
</defs>
<path clip-path="url(#clip040)" d="M0 1600 L2400 1600 L2400 0 L0 0  Z" fill="#ffffff" fill-rule="evenodd" fill-opacity="1"/>
<defs>
  <clipPath id="clip041">
    <rect x="480" y="0" width="1681" height="1600"/>
  </clipPath>
</defs>
<path clip-path="url(#clip040)" d="M155.927 1486.45 L2352.76 1486.45 L2352.76 47.2441 L155.927 47.2441  Z" fill="#ffffff" fill-rule="evenodd" fill-opacity="1"/>
<defs>
  <clipPath id="clip042">
    <rect x="155" y="47" width="2198" height="1440"/>
  </clipPath>
</defs>
<polyline clip-path="url(#clip042)" style="stroke:#000000; stroke-linecap:round; stroke-linejoin:round; stroke-width:2; stroke-opacity:0.1; fill:none" points="205.691,1486.45 205.691,47.2441 "/>
<polyline clip-path="url(#clip042)" style="stroke:#000000; stroke-linecap:round; stroke-linejoin:round; stroke-width:2; stroke-opacity:0.1; fill:none" points="826.194,1486.45 826.194,47.2441 "/>
<polyline clip-path="url(#clip042)" style="stroke:#000000; stroke-linecap:round; stroke-linejoin:round; stroke-width:2; stroke-opacity:0.1; fill:none" points="1446.7,1486.45 1446.7,47.2441 "/>
<polyline clip-path="url(#clip042)" style="stroke:#000000; stroke-linecap:round; stroke-linejoin:round; stroke-width:2; stroke-opacity:0.1; fill:none" points="2067.2,1486.45 2067.2,47.2441 "/>
<polyline clip-path="url(#clip042)" style="stroke:#000000; stroke-linecap:round; stroke-linejoin:round; stroke-width:2; stroke-opacity:0.1; fill:none" points="155.927,1225.77 2352.76,1225.77 "/>
<polyline clip-path="url(#clip042)" style="stroke:#000000; stroke-linecap:round; stroke-linejoin:round; stroke-width:2; stroke-opacity:0.1; fill:none" points="155.927,916.52 2352.76,916.52 "/>
<polyline clip-path="url(#clip042)" style="stroke:#000000; stroke-linecap:round; stroke-linejoin:round; stroke-width:2; stroke-opacity:0.1; fill:none" points="155.927,607.269 2352.76,607.269 "/>
<polyline clip-path="url(#clip042)" style="stroke:#000000; stroke-linecap:round; stroke-linejoin:round; stroke-width:2; stroke-opacity:0.1; fill:none" points="155.927,298.018 2352.76,298.018 "/>
<polyline clip-path="url(#clip040)" style="stroke:#000000; stroke-linecap:round; stroke-linejoin:round; stroke-width:4; stroke-opacity:1; fill:none" points="155.927,1486.45 2352.76,1486.45 "/>
<polyline clip-path="url(#clip040)" style="stroke:#000000; stroke-linecap:round; stroke-linejoin:round; stroke-width:4; stroke-opacity:1; fill:none" points="205.691,1486.45 205.691,1467.55 "/>
<polyline clip-path="url(#clip040)" style="stroke:#000000; stroke-linecap:round; stroke-linejoin:round; stroke-width:4; stroke-opacity:1; fill:none" points="826.194,1486.45 826.194,1467.55 "/>
<polyline clip-path="url(#clip040)" style="stroke:#000000; stroke-linecap:round; stroke-linejoin:round; stroke-width:4; stroke-opacity:1; fill:none" points="1446.7,1486.45 1446.7,1467.55 "/>
<polyline clip-path="url(#clip040)" style="stroke:#000000; stroke-linecap:round; stroke-linejoin:round; stroke-width:4; stroke-opacity:1; fill:none" points="2067.2,1486.45 2067.2,1467.55 "/>
<path clip-path="url(#clip040)" d="M205.691 1517.37 Q202.08 1517.37 200.251 1520.93 Q198.446 1524.47 198.446 1531.6 Q198.446 1538.71 200.251 1542.27 Q202.08 1545.82 205.691 1545.82 Q209.326 1545.82 211.131 1542.27 Q212.96 1538.71 212.96 1531.6 Q212.96 1524.47 211.131 1520.93 Q209.326 1517.37 205.691 1517.37 M205.691 1513.66 Q211.501 1513.66 214.557 1518.27 Q217.636 1522.85 217.636 1531.6 Q217.636 1540.33 214.557 1544.94 Q211.501 1549.52 205.691 1549.52 Q199.881 1549.52 196.802 1544.94 Q193.747 1540.33 193.747 1531.6 Q193.747 1522.85 196.802 1518.27 Q199.881 1513.66 205.691 1513.66 Z" fill="#000000" fill-rule="nonzero" fill-opacity="1" /><path clip-path="url(#clip040)" d="M800.894 1514.29 L819.25 1514.29 L819.25 1518.22 L805.176 1518.22 L805.176 1526.7 Q806.194 1526.35 807.213 1526.19 Q808.231 1526 809.25 1526 Q815.037 1526 818.417 1529.17 Q821.796 1532.34 821.796 1537.76 Q821.796 1543.34 818.324 1546.44 Q814.852 1549.52 808.532 1549.52 Q806.356 1549.52 804.088 1549.15 Q801.843 1548.78 799.435 1548.04 L799.435 1543.34 Q801.519 1544.47 803.741 1545.03 Q805.963 1545.58 808.44 1545.58 Q812.444 1545.58 814.782 1543.48 Q817.12 1541.37 817.12 1537.76 Q817.12 1534.15 814.782 1532.04 Q812.444 1529.94 808.44 1529.94 Q806.565 1529.94 804.69 1530.35 Q802.838 1530.77 800.894 1531.65 L800.894 1514.29 Z" fill="#000000" fill-rule="nonzero" fill-opacity="1" /><path clip-path="url(#clip040)" d="M841.009 1517.37 Q837.398 1517.37 835.569 1520.93 Q833.764 1524.47 833.764 1531.6 Q833.764 1538.71 835.569 1542.27 Q837.398 1545.82 841.009 1545.82 Q844.643 1545.82 846.449 1542.27 Q848.278 1538.71 848.278 1531.6 Q848.278 1524.47 846.449 1520.93 Q844.643 1517.37 841.009 1517.37 M841.009 1513.66 Q846.819 1513.66 849.875 1518.27 Q852.953 1522.85 852.953 1531.6 Q852.953 1540.33 849.875 1544.94 Q846.819 1549.52 841.009 1549.52 Q835.199 1549.52 832.12 1544.94 Q829.065 1540.33 829.065 1531.6 Q829.065 1522.85 832.12 1518.27 Q835.199 1513.66 841.009 1513.66 Z" fill="#000000" fill-rule="nonzero" fill-opacity="1" /><path clip-path="url(#clip040)" d="M1406.3 1544.91 L1413.94 1544.91 L1413.94 1518.55 L1405.63 1520.21 L1405.63 1515.95 L1413.9 1514.29 L1418.57 1514.29 L1418.57 1544.91 L1426.21 1544.91 L1426.21 1548.85 L1406.3 1548.85 L1406.3 1544.91 Z" fill="#000000" fill-rule="nonzero" fill-opacity="1" /><path clip-path="url(#clip040)" d="M1445.66 1517.37 Q1442.04 1517.37 1440.22 1520.93 Q1438.41 1524.47 1438.41 1531.6 Q1438.41 1538.71 1440.22 1542.27 Q1442.04 1545.82 1445.66 1545.82 Q1449.29 1545.82 1451.1 1542.27 Q1452.92 1538.71 1452.92 1531.6 Q1452.92 1524.47 1451.1 1520.93 Q1449.29 1517.37 1445.66 1517.37 M1445.66 1513.66 Q1451.47 1513.66 1454.52 1518.27 Q1457.6 1522.85 1457.6 1531.6 Q1457.6 1540.33 1454.52 1544.94 Q1451.47 1549.52 1445.66 1549.52 Q1439.85 1549.52 1436.77 1544.94 Q1433.71 1540.33 1433.71 1531.6 Q1433.71 1522.85 1436.77 1518.27 Q1439.85 1513.66 1445.66 1513.66 Z" fill="#000000" fill-rule="nonzero" fill-opacity="1" /><path clip-path="url(#clip040)" d="M1475.82 1517.37 Q1472.21 1517.37 1470.38 1520.93 Q1468.57 1524.47 1468.57 1531.6 Q1468.57 1538.71 1470.38 1542.27 Q1472.21 1545.82 1475.82 1545.82 Q1479.45 1545.82 1481.26 1542.27 Q1483.09 1538.71 1483.09 1531.6 Q1483.09 1524.47 1481.26 1520.93 Q1479.45 1517.37 1475.82 1517.37 M1475.82 1513.66 Q1481.63 1513.66 1484.68 1518.27 Q1487.76 1522.85 1487.76 1531.6 Q1487.76 1540.33 1484.68 1544.94 Q1481.63 1549.52 1475.82 1549.52 Q1470.01 1549.52 1466.93 1544.94 Q1463.87 1540.33 1463.87 1531.6 Q1463.87 1522.85 1466.93 1518.27 Q1470.01 1513.66 1475.82 1513.66 Z" fill="#000000" fill-rule="nonzero" fill-opacity="1" /><path clip-path="url(#clip040)" d="M2026.81 1544.91 L2034.45 1544.91 L2034.45 1518.55 L2026.14 1520.21 L2026.14 1515.95 L2034.4 1514.29 L2039.08 1514.29 L2039.08 1544.91 L2046.71 1544.91 L2046.71 1548.85 L2026.81 1548.85 L2026.81 1544.91 Z" fill="#000000" fill-rule="nonzero" fill-opacity="1" /><path clip-path="url(#clip040)" d="M2056.21 1514.29 L2074.56 1514.29 L2074.56 1518.22 L2060.49 1518.22 L2060.49 1526.7 Q2061.51 1526.35 2062.52 1526.19 Q2063.54 1526 2064.56 1526 Q2070.35 1526 2073.73 1529.17 Q2077.11 1532.34 2077.11 1537.76 Q2077.11 1543.34 2073.64 1546.44 Q2070.16 1549.52 2063.84 1549.52 Q2061.67 1549.52 2059.4 1549.15 Q2057.15 1548.78 2054.75 1548.04 L2054.75 1543.34 Q2056.83 1544.47 2059.05 1545.03 Q2061.27 1545.58 2063.75 1545.58 Q2067.76 1545.58 2070.09 1543.48 Q2072.43 1541.37 2072.43 1537.76 Q2072.43 1534.15 2070.09 1532.04 Q2067.76 1529.94 2063.75 1529.94 Q2061.88 1529.94 2060 1530.35 Q2058.15 1530.77 2056.21 1531.65 L2056.21 1514.29 Z" fill="#000000" fill-rule="nonzero" fill-opacity="1" /><path clip-path="url(#clip040)" d="M2096.32 1517.37 Q2092.71 1517.37 2090.88 1520.93 Q2089.08 1524.47 2089.08 1531.6 Q2089.08 1538.71 2090.88 1542.27 Q2092.71 1545.82 2096.32 1545.82 Q2099.95 1545.82 2101.76 1542.27 Q2103.59 1538.71 2103.59 1531.6 Q2103.59 1524.47 2101.76 1520.93 Q2099.95 1517.37 2096.32 1517.37 M2096.32 1513.66 Q2102.13 1513.66 2105.19 1518.27 Q2108.27 1522.85 2108.27 1531.6 Q2108.27 1540.33 2105.19 1544.94 Q2102.13 1549.52 2096.32 1549.52 Q2090.51 1549.52 2087.43 1544.94 Q2084.38 1540.33 2084.38 1531.6 Q2084.38 1522.85 2087.43 1518.27 Q2090.51 1513.66 2096.32 1513.66 Z" fill="#000000" fill-rule="nonzero" fill-opacity="1" /><polyline clip-path="url(#clip040)" style="stroke:#000000; stroke-linecap:round; stroke-linejoin:round; stroke-width:4; stroke-opacity:1; fill:none" points="155.927,1486.45 155.927,47.2441 "/>
<polyline clip-path="url(#clip040)" style="stroke:#000000; stroke-linecap:round; stroke-linejoin:round; stroke-width:4; stroke-opacity:1; fill:none" points="155.927,1225.77 174.825,1225.77 "/>
<polyline clip-path="url(#clip040)" style="stroke:#000000; stroke-linecap:round; stroke-linejoin:round; stroke-width:4; stroke-opacity:1; fill:none" points="155.927,916.52 174.825,916.52 "/>
<polyline clip-path="url(#clip040)" style="stroke:#000000; stroke-linecap:round; stroke-linejoin:round; stroke-width:4; stroke-opacity:1; fill:none" points="155.927,607.269 174.825,607.269 "/>
<polyline clip-path="url(#clip040)" style="stroke:#000000; stroke-linecap:round; stroke-linejoin:round; stroke-width:4; stroke-opacity:1; fill:none" points="155.927,298.018 174.825,298.018 "/>
<path clip-path="url(#clip040)" d="M52.7977 1208.49 L71.1541 1208.49 L71.1541 1212.43 L57.0801 1212.43 L57.0801 1220.9 Q58.0986 1220.55 59.1171 1220.39 Q60.1356 1220.2 61.1541 1220.2 Q66.9411 1220.2 70.3207 1223.37 Q73.7003 1226.55 73.7003 1231.96 Q73.7003 1237.54 70.2281 1240.64 Q66.7559 1243.72 60.4365 1243.72 Q58.2606 1243.72 55.9921 1243.35 Q53.7467 1242.98 51.3393 1242.24 L51.3393 1237.54 Q53.4227 1238.68 55.6449 1239.23 Q57.8671 1239.79 60.3439 1239.79 Q64.3485 1239.79 66.6865 1237.68 Q69.0244 1235.57 69.0244 1231.96 Q69.0244 1228.35 66.6865 1226.25 Q64.3485 1224.14 60.3439 1224.14 Q58.4689 1224.14 56.5939 1224.56 Q54.7421 1224.97 52.7977 1225.85 L52.7977 1208.49 Z" fill="#000000" fill-rule="nonzero" fill-opacity="1" /><path clip-path="url(#clip040)" d="M82.9133 1237.17 L87.7975 1237.17 L87.7975 1243.05 L82.9133 1243.05 L82.9133 1237.17 Z" fill="#000000" fill-rule="nonzero" fill-opacity="1" /><path clip-path="url(#clip040)" d="M107.983 1211.57 Q104.371 1211.57 102.543 1215.13 Q100.737 1218.68 100.737 1225.81 Q100.737 1232.91 102.543 1236.48 Q104.371 1240.02 107.983 1240.02 Q111.617 1240.02 113.422 1236.48 Q115.251 1232.91 115.251 1225.81 Q115.251 1218.68 113.422 1215.13 Q111.617 1211.57 107.983 1211.57 M107.983 1207.87 Q113.793 1207.87 116.848 1212.47 Q119.927 1217.06 119.927 1225.81 Q119.927 1234.53 116.848 1239.14 Q113.793 1243.72 107.983 1243.72 Q102.172 1243.72 99.0937 1239.14 Q96.0382 1234.53 96.0382 1225.81 Q96.0382 1217.06 99.0937 1212.47 Q102.172 1207.87 107.983 1207.87 Z" fill="#000000" fill-rule="nonzero" fill-opacity="1" /><path clip-path="url(#clip040)" d="M53.793 899.24 L72.1494 899.24 L72.1494 903.175 L58.0754 903.175 L58.0754 911.647 Q59.0939 911.3 60.1124 911.138 Q61.131 910.953 62.1495 910.953 Q67.9365 910.953 71.3161 914.124 Q74.6957 917.295 74.6957 922.712 Q74.6957 928.29 71.2235 931.392 Q67.7513 934.471 61.4319 934.471 Q59.256 934.471 56.9875 934.101 Q54.7421 933.73 52.3347 932.99 L52.3347 928.29 Q54.418 929.425 56.6402 929.98 Q58.8625 930.536 61.3393 930.536 Q65.3439 930.536 67.6819 928.429 Q70.0198 926.323 70.0198 922.712 Q70.0198 919.101 67.6819 916.994 Q65.3439 914.888 61.3393 914.888 Q59.4643 914.888 57.5893 915.304 Q55.7375 915.721 53.793 916.601 L53.793 899.24 Z" fill="#000000" fill-rule="nonzero" fill-opacity="1" /><path clip-path="url(#clip040)" d="M83.9086 927.92 L88.7928 927.92 L88.7928 933.8 L83.9086 933.8 L83.9086 927.92 Z" fill="#000000" fill-rule="nonzero" fill-opacity="1" /><path clip-path="url(#clip040)" d="M99.0243 899.24 L117.381 899.24 L117.381 903.175 L103.307 903.175 L103.307 911.647 Q104.325 911.3 105.344 911.138 Q106.362 910.953 107.381 910.953 Q113.168 910.953 116.547 914.124 Q119.927 917.295 119.927 922.712 Q119.927 928.29 116.455 931.392 Q112.983 934.471 106.663 934.471 Q104.487 934.471 102.219 934.101 Q99.9733 933.73 97.566 932.99 L97.566 928.29 Q99.6493 929.425 101.871 929.98 Q104.094 930.536 106.571 930.536 Q110.575 930.536 112.913 928.429 Q115.251 926.323 115.251 922.712 Q115.251 919.101 112.913 916.994 Q110.575 914.888 106.571 914.888 Q104.696 914.888 102.821 915.304 Q100.969 915.721 99.0243 916.601 L99.0243 899.24 Z" fill="#000000" fill-rule="nonzero" fill-opacity="1" /><path clip-path="url(#clip040)" d="M63.33 605.405 Q60.1819 605.405 58.33 607.558 Q56.5014 609.711 56.5014 613.461 Q56.5014 617.188 58.33 619.364 Q60.1819 621.516 63.33 621.516 Q66.4782 621.516 68.3068 619.364 Q70.1587 617.188 70.1587 613.461 Q70.1587 609.711 68.3068 607.558 Q66.4782 605.405 63.33 605.405 M72.6124 590.753 L72.6124 595.012 Q70.8531 594.178 69.0476 593.739 Q67.2652 593.299 65.5059 593.299 Q60.8763 593.299 58.4226 596.424 Q55.9921 599.549 55.6449 605.868 Q57.0106 603.854 59.0708 602.79 Q61.131 601.702 63.6078 601.702 Q68.8161 601.702 71.8253 604.873 Q74.8577 608.021 74.8577 613.461 Q74.8577 618.785 71.7096 622.002 Q68.5615 625.22 63.33 625.22 Q57.3347 625.22 54.1634 620.637 Q50.9921 616.03 50.9921 607.303 Q50.9921 599.109 54.881 594.248 Q58.7699 589.364 65.3208 589.364 Q67.08 589.364 68.8624 589.711 Q70.6679 590.058 72.6124 590.753 Z" fill="#000000" fill-rule="nonzero" fill-opacity="1" /><path clip-path="url(#clip040)" d="M82.9133 618.669 L87.7975 618.669 L87.7975 624.549 L82.9133 624.549 L82.9133 618.669 Z" fill="#000000" fill-rule="nonzero" fill-opacity="1" /><path clip-path="url(#clip040)" d="M107.983 593.067 Q104.371 593.067 102.543 596.632 Q100.737 600.174 100.737 607.303 Q100.737 614.41 102.543 617.975 Q104.371 621.516 107.983 621.516 Q111.617 621.516 113.422 617.975 Q115.251 614.41 115.251 607.303 Q115.251 600.174 113.422 596.632 Q111.617 593.067 107.983 593.067 M107.983 589.364 Q113.793 589.364 116.848 593.97 Q119.927 598.553 119.927 607.303 Q119.927 616.03 116.848 620.637 Q113.793 625.22 107.983 625.22 Q102.172 625.22 99.0937 620.637 Q96.0382 616.03 96.0382 607.303 Q96.0382 598.553 99.0937 593.97 Q102.172 589.364 107.983 589.364 Z" fill="#000000" fill-rule="nonzero" fill-opacity="1" /><path clip-path="url(#clip040)" d="M64.3254 296.154 Q61.1773 296.154 59.3254 298.307 Q57.4967 300.46 57.4967 304.21 Q57.4967 307.937 59.3254 310.113 Q61.1773 312.265 64.3254 312.265 Q67.4735 312.265 69.3022 310.113 Q71.1541 307.937 71.1541 304.21 Q71.1541 300.46 69.3022 298.307 Q67.4735 296.154 64.3254 296.154 M73.6077 281.502 L73.6077 285.761 Q71.8485 284.927 70.0429 284.488 Q68.2606 284.048 66.5013 284.048 Q61.8717 284.048 59.418 287.173 Q56.9875 290.298 56.6402 296.617 Q58.006 294.603 60.0662 293.539 Q62.1263 292.451 64.6032 292.451 Q69.8115 292.451 72.8207 295.622 Q75.8531 298.77 75.8531 304.21 Q75.8531 309.534 72.705 312.751 Q69.5568 315.969 64.3254 315.969 Q58.33 315.969 55.1588 311.386 Q51.9875 306.779 51.9875 298.052 Q51.9875 289.858 55.8764 284.997 Q59.7652 280.113 66.3161 280.113 Q68.0754 280.113 69.8578 280.46 Q71.6633 280.807 73.6077 281.502 Z" fill="#000000" fill-rule="nonzero" fill-opacity="1" /><path clip-path="url(#clip040)" d="M83.9086 309.418 L88.7928 309.418 L88.7928 315.298 L83.9086 315.298 L83.9086 309.418 Z" fill="#000000" fill-rule="nonzero" fill-opacity="1" /><path clip-path="url(#clip040)" d="M99.0243 280.738 L117.381 280.738 L117.381 284.673 L103.307 284.673 L103.307 293.145 Q104.325 292.798 105.344 292.636 Q106.362 292.451 107.381 292.451 Q113.168 292.451 116.547 295.622 Q119.927 298.793 119.927 304.21 Q119.927 309.788 116.455 312.89 Q112.983 315.969 106.663 315.969 Q104.487 315.969 102.219 315.599 Q99.9733 315.228 97.566 314.487 L97.566 309.788 Q99.6493 310.923 101.871 311.478 Q104.094 312.034 106.571 312.034 Q110.575 312.034 112.913 309.927 Q115.251 307.821 115.251 304.21 Q115.251 300.599 112.913 298.492 Q110.575 296.386 106.571 296.386 Q104.696 296.386 102.821 296.802 Q100.969 297.219 99.0243 298.099 L99.0243 280.738 Z" fill="#000000" fill-rule="nonzero" fill-opacity="1" /><polyline clip-path="url(#clip042)" style="stroke:#000000; stroke-linecap:round; stroke-linejoin:round; stroke-width:4; stroke-opacity:1; fill:none" points="218.101,1399.88 230.511,1367.6 242.921,1298.26 255.332,1312.48 267.742,1352.07 280.152,1284.36 292.562,1227.49 304.972,1227.49 317.382,1279.79 329.792,1362.38 342.202,1445.72 354.612,1367.6 367.022,1383.53 379.432,1327.03 391.842,1257.46 404.252,1284.36 416.662,1331.96 429.072,1223.33 441.482,1141.78 453.893,1141.78 466.303,1187.06 478.713,1293.59 491.123,1388.93 503.533,1261.87 515.943,1240.16 528.353,1219.19 540.763,1113.34 553.173,1167.79 565.583,1134.55 577.993,1113.34 590.403,1044.36 602.813,1044.36 615.223,1092.83 627.633,1171.59 640.043,1235.91 652.453,1156.51 664.864,1138.15 677.274,1106.43 689.684,1063.3 702.094,1103 714.504,1096.2 726.914,987.96 739.324,954.818 751.734,923.362 764.144,1014.04 776.554,1069.74 788.964,1134.55 801.374,1060.1 813.784,1053.76 826.194,1053.76 838.604,938.89 851.014,941.516 863.425,957.513 875.835,920.811 888.245,869.545 900.655,851.081 913.065,936.275 925.475,1008.15 937.885,1106.43 950.295,1038.18 962.705,1029.01 975.115,1079.53 987.525,941.516 999.935,962.938 1012.35,944.154 1024.76,869.545 1037.17,786.37 1049.58,805.083 1061.99,881.371 1074.4,957.513 1086.81,1032.05 1099.22,957.513 1111.63,923.362 1124.04,946.803 1136.45,862.556 1148.86,857.941 1161.27,855.646 1173.68,760.303 1186.09,670.879 1198.5,700.462 1210.91,766.222 1223.32,846.55 1235.73,936.275 1248.14,837.586 1260.55,824.379 1272.96,839.815 1285.37,756.388 1297.78,764.243 1310.19,754.44 1322.6,654.117 1335.01,592.766 1347.42,604.865 1359.83,686.364 1372.24,778.232 1384.65,853.359 1397.06,778.232 1409.47,760.303 1421.88,788.422 1434.29,684.624 1446.7,698.682 1459.11,686.364 1471.52,579.433 1483.93,519.418 1496.34,516.764 1508.75,606.394 1521.16,700.462 1533.57,780.256 1545.98,720.386 1558.39,713.066 1570.8,754.44 1583.21,674.287 1595.62,698.682 1608.03,672.581 1620.44,560.667 1632.85,485.768 1645.26,468.379 1657.67,606.394 1670.08,679.434 1682.49,770.199 1694.9,718.548 1707.31,677.714 1719.72,709.439 1732.13,603.339 1744.54,618.764 1756.95,582.371 1769.36,510.177 1781.77,417.837 1794.18,405.545 1806.59,522.084 1819,601.818 1831.41,674.287 1843.82,604.865 1856.23,586.805 1868.64,626.623 1881.05,583.845 1893.46,524.762 1905.87,510.177 1918.28,432.686 1930.69,339.494 1943.1,355.613 1955.51,464.715 1967.92,524.762 1980.33,628.207 1992.74,564.947 "/>
<polyline clip-path="url(#clip042)" style="stroke:#0000ff; stroke-linecap:round; stroke-linejoin:round; stroke-width:4; stroke-opacity:1; fill:none" points="2005.15,539.12 2017.56,574.008 2029.97,501.058 2042.38,484.003 2054.79,463.435 2067.2,379.179 2079.61,293.51 2092.02,296.223 2104.43,406.443 2116.84,477.999 2129.25,568.002 2141.66,503.345 2154.07,479.589 2166.48,514.477 2178.89,441.527 2191.3,424.472 2203.71,403.904 2216.12,319.649 2228.53,233.979 2240.94,236.692 2253.35,346.912 2265.76,418.468 2278.17,508.471 2290.58,443.814 "/>
<path clip-path="url(#clip042)" d="M2005.15 583.481 L2017.56 625.702 L2029.97 559.167 L2042.38 547.886 L2054.79 532.612 L2067.2 453.273 L2079.61 372.214 L2092.02 379.281 L2104.43 493.638 L2116.84 569.144 L2129.25 662.933 L2141.66 601.916 L2154.07 588.446 L2166.48 629.874 L2178.89 563.113 L2191.3 551.947 L2203.71 537.007 L2216.12 458.151 L2228.53 377.679 L2240.94 385.407 L2253.35 500.479 L2265.76 576.739 L2278.17 671.309 L2290.58 611.095 L2290.58 276.533 L2278.17 345.633 L2265.76 260.198 L2253.35 193.344 L2240.94 87.9763 L2228.53 90.2795 L2216.12 181.146 L2203.71 270.801 L2191.3 296.998 L2178.89 319.941 L2166.48 399.081 L2154.07 370.733 L2141.66 404.774 L2129.25 473.072 L2116.84 386.854 L2104.43 319.247 L2092.02 213.165 L2079.61 214.807 L2067.2 305.086 L2054.79 394.258 L2042.38 420.12 L2029.97 442.949 L2017.56 522.314 L2005.15 494.76  Z" fill="#4682b4" fill-rule="evenodd" fill-opacity="0.5"/>
<polyline clip-path="url(#clip042)" style="stroke:#4682b4; stroke-linecap:round; stroke-linejoin:round; stroke-width:4; stroke-opacity:1; fill:none" points="2005.15,583.481 2017.56,625.702 2029.97,559.167 2042.38,547.886 2054.79,532.612 2067.2,453.273 2079.61,372.214 2092.02,379.281 2104.43,493.638 2116.84,569.144 2129.25,662.933 2141.66,601.916 2154.07,588.446 2166.48,629.874 2178.89,563.113 2191.3,551.947 2203.71,537.007 2216.12,458.151 2228.53,377.679 2240.94,385.407 2253.35,500.479 2265.76,576.739 2278.17,671.309 2290.58,611.095 "/>
<path clip-path="url(#clip042)" d="M2005.15 568.126 L2017.56 607.809 L2029.97 539.053 L2042.38 525.774 L2054.79 508.668 L2067.2 427.627 L2079.61 344.972 L2092.02 350.531 L2104.43 463.457 L2116.84 537.596 L2129.25 630.074 L2141.66 567.797 L2154.07 550.767 L2166.48 589.931 L2178.89 521.028 L2191.3 507.823 L2203.71 490.936 L2216.12 410.211 L2228.53 327.94 L2240.94 333.932 L2253.35 447.324 L2265.76 521.956 L2278.17 614.945 L2290.58 553.193 L2290.58 334.435 L2278.17 401.997 L2265.76 314.981 L2253.35 246.499 L2240.94 139.452 L2228.53 140.019 L2216.12 229.087 L2203.71 316.873 L2191.3 341.121 L2178.89 362.026 L2166.48 439.024 L2154.07 408.412 L2141.66 438.893 L2129.25 505.93 L2116.84 418.403 L2104.43 349.429 L2092.02 241.914 L2079.61 242.049 L2067.2 330.732 L2054.79 418.203 L2042.38 442.232 L2029.97 463.062 L2017.56 540.207 L2005.15 510.114  Z" fill="#4682b4" fill-rule="evenodd" fill-opacity="0.5"/>
<polyline clip-path="url(#clip042)" style="stroke:#4682b4; stroke-linecap:round; stroke-linejoin:round; stroke-width:4; stroke-opacity:1; fill:none" points="2005.15,568.126 2017.56,607.809 2029.97,539.053 2042.38,525.774 2054.79,508.668 2067.2,427.627 2079.61,344.972 2092.02,350.531 2104.43,463.457 2116.84,537.596 2129.25,630.074 2141.66,567.797 2154.07,550.767 2166.48,589.931 2178.89,521.028 2191.3,507.823 2203.71,490.936 2216.12,410.211 2228.53,327.94 2240.94,333.932 2253.35,447.324 2265.76,521.956 2278.17,614.945 2290.58,553.193 "/>
<path clip-path="url(#clip040)" d="M229.155 250.738 L501.268 250.738 L501.268 95.2176 L229.155 95.2176  Z" fill="#ffffff" fill-rule="evenodd" fill-opacity="1"/>
<polyline clip-path="url(#clip040)" style="stroke:#000000; stroke-linecap:round; stroke-linejoin:round; stroke-width:4; stroke-opacity:1; fill:none" points="229.155,250.738 501.268,250.738 501.268,95.2176 229.155,95.2176 229.155,250.738 "/>
<polyline clip-path="url(#clip040)" style="stroke:#000000; stroke-linecap:round; stroke-linejoin:round; stroke-width:4; stroke-opacity:1; fill:none" points="253.564,147.058 400.019,147.058 "/>
<path clip-path="url(#clip040)" d="M438.271 166.745 Q436.465 171.375 434.752 172.787 Q433.039 174.199 430.169 174.199 L426.766 174.199 L426.766 170.634 L429.266 170.634 Q431.025 170.634 431.998 169.8 Q432.97 168.967 434.15 165.865 L434.914 163.921 L424.428 138.412 L428.942 138.412 L437.044 158.689 L445.146 138.412 L449.66 138.412 L438.271 166.745 Z" fill="#000000" fill-rule="nonzero" fill-opacity="1" /><path clip-path="url(#clip040)" d="M456.951 160.402 L464.59 160.402 L464.59 134.037 L456.28 135.703 L456.28 131.444 L464.544 129.778 L469.22 129.778 L469.22 160.402 L476.859 160.402 L476.859 164.338 L456.951 164.338 L456.951 160.402 Z" fill="#000000" fill-rule="nonzero" fill-opacity="1" /><polyline clip-path="url(#clip040)" style="stroke:#0000ff; stroke-linecap:round; stroke-linejoin:round; stroke-width:4; stroke-opacity:1; fill:none" points="253.564,198.898 400.019,198.898 "/>
<path clip-path="url(#clip040)" d="M438.271 218.585 Q436.465 223.215 434.752 224.627 Q433.039 226.039 430.169 226.039 L426.766 226.039 L426.766 222.474 L429.266 222.474 Q431.025 222.474 431.998 221.64 Q432.97 220.807 434.15 217.705 L434.914 215.761 L424.428 190.252 L428.942 190.252 L437.044 210.529 L445.146 190.252 L449.66 190.252 L438.271 218.585 Z" fill="#000000" fill-rule="nonzero" fill-opacity="1" /><path clip-path="url(#clip040)" d="M460.169 212.242 L476.488 212.242 L476.488 216.178 L454.544 216.178 L454.544 212.242 Q457.206 209.488 461.789 204.858 Q466.396 200.205 467.576 198.863 Q469.822 196.34 470.701 194.604 Q471.604 192.844 471.604 191.155 Q471.604 188.4 469.659 186.664 Q467.738 184.928 464.636 184.928 Q462.437 184.928 459.984 185.692 Q457.553 186.455 454.775 188.006 L454.775 183.284 Q457.599 182.15 460.053 181.571 Q462.507 180.993 464.544 180.993 Q469.914 180.993 473.109 183.678 Q476.303 186.363 476.303 190.854 Q476.303 192.983 475.493 194.905 Q474.706 196.803 472.599 199.395 Q472.021 200.067 468.919 203.284 Q465.817 206.479 460.169 212.242 Z" fill="#000000" fill-rule="nonzero" fill-opacity="1" /></svg>
